<svg width="472" height="495" viewBox="0 0 472 495" fill="none" xmlns="http://www.w3.org/2000/svg">
<path d="M307.5 0.873653C74 10.3745 204 47.3745 86 222.374C86 234.374 104 276.374 176 348.374C248 420.374 195 194.373 263 199.373L282 323.374L412 348.374C494 356.374 480 187.374 438 133.374C402.402 87.6047 580.774 -10.2456 307.5 0.873653Z" fill="#14621C" fill-opacity="0.16"/>
<path d="M242.601 159.78C77.6007 -5.2202 256.601 157.78 27.6007 159.78C11.6007 178.28 -25.5636 274.356 27.6007 263.28C63.6004 255.78 27.6007 263.28 50.6007 240.28C69.0007 221.88 183.601 194.78 166.101 240.28C236.601 230.78 179.001 380.38 242.601 316.78C322.101 237.28 407.601 324.78 242.601 159.78Z" fill="#E80909" fill-opacity="0.3"/>
<path d="M147 218.822C45 116.822 15.8333 264.989 14 351.822C80 358.822 212 391.222 212 464.822C212 556.822 458 426.822 458 218.822C458 10.8221 274.5 346.322 147 218.822Z" fill="#5D87F2" fill-opacity="0.46"/>
</svg>
