<svg width="16" height="16" viewBox="0 0 16 16" fill="none" xmlns="http://www.w3.org/2000/svg">
<path d="M8.00008 6.66663C7.26675 6.66663 6.66675 7.26663 6.66675 7.99996C6.66675 8.73329 7.26675 9.33329 8.00008 9.33329C8.73341 9.33329 9.33342 8.73329 9.33342 7.99996C9.33342 7.26663 8.73341 6.66663 8.00008 6.66663ZM8.00008 2.66663C7.26675 2.66663 6.66675 3.26663 6.66675 3.99996C6.66675 4.73329 7.26675 5.33329 8.00008 5.33329C8.73341 5.33329 9.33342 4.73329 9.33342 3.99996C9.33342 3.26663 8.73341 2.66663 8.00008 2.66663ZM8.00008 10.6666C7.26675 10.6666 6.66675 11.2666 6.66675 12C6.66675 12.7333 7.26675 13.3333 8.00008 13.3333C8.73341 13.3333 9.33342 12.7333 9.33342 12C9.33342 11.2666 8.73341 10.6666 8.00008 10.6666Z" fill="#2F80ED"/>
</svg>
