<svg width="375" height="813" viewBox="0 0 375 813" fill="none" xmlns="http://www.w3.org/2000/svg">
<rect width="375" height="813" fill="url(#paint0_linear_213_2310)"/>
<rect x="0.5" y="0.5" width="374" height="812" stroke="#707070"/>
<mask id="mask0_213_2310" style="mask-type:luminance" maskUnits="userSpaceOnUse" x="0" y="428" width="375" height="385">
<rect y="428" width="375" height="385" fill="white"/>
</mask>
<g mask="url(#mask0_213_2310)">
<ellipse opacity="0.2" cx="186.123" cy="769.772" rx="167.424" ry="8.99" fill="#71ABDE"/>
<path fill-rule="evenodd" clip-rule="evenodd" d="M170.563 634.055C170.563 634.055 183.4 631.972 189.789 634.272C194.412 635.935 199.961 639.904 201.449 651.895C201.449 651.895 186.165 656.395 170.564 656.543C170.563 656.544 168.163 642.523 170.563 634.055Z" fill="#F3AE92"/>
<path opacity="0.5" fill-rule="evenodd" clip-rule="evenodd" d="M182.163 655.728C182.575 652.188 182.943 646.219 181.363 642.613C180.063 639.642 175.715 637.175 170.044 636.342C168.552 644.824 170.557 656.542 170.557 656.542C174.438 656.489 178.313 656.217 182.163 655.728H182.163Z" fill="#EB7C74"/>
<path opacity="0.2" fill-rule="evenodd" clip-rule="evenodd" d="M189.789 634.272C186.684 633.379 183.449 633.018 180.223 633.203C183.406 633.344 193.536 635.791 196.473 642.547C197.775 645.745 198.698 649.083 199.224 652.495C200.642 652.131 201.449 651.895 201.449 651.895C199.959 639.904 194.41 635.936 189.789 634.272Z" fill="white"/>
<path fill-rule="evenodd" clip-rule="evenodd" d="M75.0792 648.617C69.1152 646.793 69.4372 646.475 63.9382 644.486C58.4392 642.497 57.7262 642.286 52.9933 640.527C48.2604 638.768 31.5002 636.465 24.0763 658.249C16.4243 680.698 24.9472 688.023 29.9513 691.735C37.7192 697.498 55.6813 704.027 60.8813 706.155C60.8802 706.155 50.6921 669.34 75.0792 648.617Z" fill="#F29297"/>
<path fill-rule="evenodd" clip-rule="evenodd" d="M75.0792 648.617C69.1152 646.793 69.4372 646.475 63.9382 644.486C58.4392 642.497 57.7262 642.286 52.9933 640.527C48.2604 638.768 31.5002 636.465 24.0763 658.249C16.4243 680.698 24.9472 688.023 29.9513 691.735C37.7192 697.498 55.6813 704.027 60.8813 706.155C60.8802 706.155 50.6921 669.34 75.0792 648.617Z" fill="#F29297"/>
<path fill-rule="evenodd" clip-rule="evenodd" d="M73.853 648.995C65.853 646.852 54.977 642.501 51.1939 641.556C47.4108 640.611 41.7359 640.893 38.6149 643.542C35.4939 646.191 43.17 643.513 52.342 646.634C61.514 649.755 65.376 651.62 68.431 652.792C71.4859 653.964 73.853 648.995 73.853 648.995Z" fill="#F5A9A7"/>
<path opacity="0.5" fill-rule="evenodd" clip-rule="evenodd" d="M48.05 668.173C42.6331 665.71 36.7271 663.235 33.25 659.36C26.193 651.495 31.761 645.16 36.166 642.06C31.553 644.633 27.0601 649.493 24.0761 658.249C16.4241 680.698 24.947 688.023 29.9501 691.735C37.7191 697.498 55.681 704.027 60.8811 706.155C60.8811 706.155 56.5081 690.348 60.3531 673.619C56.1111 671.795 51.9971 669.967 48.05 668.173Z" fill="#EC6469"/>
<path opacity="0.5" fill-rule="evenodd" clip-rule="evenodd" d="M30.5281 646.635C27.6162 650.032 25.4207 653.983 24.0731 658.25C16.4211 680.699 24.9441 688.024 29.9471 691.736C37.7162 697.499 55.6781 704.028 60.8782 706.156C59.4814 700.407 58.7765 694.511 58.7781 688.594C50.3574 685.222 42.2507 681.113 34.5522 676.316C18.2611 665.669 29.5751 648.06 30.5281 646.635Z" fill="#E73555"/>
<path fill-rule="evenodd" clip-rule="evenodd" d="M95.367 716.19C94.8294 716.921 93.9552 717.326 93.05 717.264C91.029 717.23 87.0039 715.273 76.699 712.025C68.414 709.414 63.221 708.372 61.668 706.983C57.799 703.523 52.992 690.521 56.532 674.198C59.8421 658.939 69.882 650.838 73.3321 649.222C76.157 647.899 79.2111 648.176 84.995 649.9C88.4948 650.942 92.0581 651.758 95.6629 652.341C97.719 652.675 99.688 652.917 101.547 653.088C106.442 653.536 105.535 655.361 105.535 655.361C105.535 655.361 88.6451 661.656 84.7801 680.07C79.912 703.259 95.367 716.19 95.367 716.19Z" fill="#16A461"/>
<path fill-rule="evenodd" clip-rule="evenodd" d="M73.8531 648.996C73.6781 649.065 73.5032 649.14 73.3291 649.222C71.535 650.174 69.8851 651.377 68.4292 652.793C75.8485 655.735 83.4421 658.216 91.1667 660.224C91.1671 660.224 95.5131 659.808 98.8201 659.119C100.001 658.283 101.105 657.598 102.063 657.055C101.137 656.587 100.144 656.266 99.1191 656.101C90.8002 654.313 78.9321 650.618 73.8531 648.996Z" fill="#3EC664"/>
<path fill-rule="evenodd" clip-rule="evenodd" d="M57.022 672.242C56.851 672.886 56.678 673.525 56.532 674.197C52.992 690.52 57.799 703.522 61.668 706.983C63.221 708.372 68.415 709.415 76.699 712.025C87.0041 715.273 91.029 717.231 93.05 717.264C93.9552 717.326 94.8294 716.921 95.367 716.19C95.367 716.19 81.356 704.45 84.231 683.295C74.782 679.807 65.602 676.016 57.022 672.242Z" fill="#16935D"/>
<path fill-rule="evenodd" clip-rule="evenodd" d="M93.0511 717.263C93.9563 717.325 94.8304 716.92 95.368 716.189C91.3021 712.375 88.1882 707.661 86.2772 702.424L78.3772 695.854C78.3772 695.854 67.5662 692.459 55.3262 687.143C55.6472 697.127 58.8992 704.502 61.6711 706.981C63.2241 708.37 68.4181 709.412 76.7021 712.023C87.0051 715.272 91.0302 717.23 93.0511 717.263Z" fill="#0E7F4C"/>
<path fill-rule="evenodd" clip-rule="evenodd" d="M70.4211 679.357C73.9261 658.623 92.7801 652.724 95.0931 652.24C91.9422 651.707 88.824 650.997 85.753 650.114H85.7391C82.5771 650.463 66.382 657.814 63.459 676.394C60.626 694.394 67.8441 707.456 70.386 710.127C72.2331 710.661 74.335 711.276 76.699 712.02C77.8741 712.391 78.9571 712.741 79.975 713.077C79.975 713.077 67.0541 699.274 70.4211 679.357Z" fill="#FFD348"/>
<path fill-rule="evenodd" clip-rule="evenodd" d="M81.8872 651.486C79.6628 652.581 77.5673 653.92 75.6392 655.479C78.0332 656.325 80.6671 657.209 83.4121 658.053C85.5837 656.432 87.9236 655.05 90.3911 653.931C87.4812 653.138 84.5482 652.286 81.8872 651.486Z" fill="#FFE568"/>
<g style="mix-blend-mode:multiply" opacity="0.1">
<path fill-rule="evenodd" clip-rule="evenodd" d="M79.9711 713.081H79.9771C79.9771 713.081 67.0541 699.274 70.4211 679.358C70.4981 678.905 70.59 678.468 70.6811 678.03C68.3204 677.069 65.9908 676.103 63.6921 675.13C63.61 675.55 63.527 675.971 63.459 676.404C60.626 694.404 67.8441 707.466 70.386 710.137L70.402 710.143L71.5511 710.476L71.975 710.6L72.9681 710.892L73.4921 711.048C73.8421 711.148 74.2021 711.262 74.5661 711.372L75.0571 711.52C75.59 711.684 76.1351 711.852 76.6981 712.029C77.292 712.217 77.862 712.399 78.4111 712.576C78.9601 712.753 79.4701 712.915 79.9711 713.081Z" fill="#E85D1C"/>
</g>
<g style="mix-blend-mode:multiply" opacity="0.3">
<path fill-rule="evenodd" clip-rule="evenodd" d="M78.415 712.572C78.942 712.741 79.446 712.906 79.937 713.072L79.973 713.083H79.979C75.1465 707.38 71.8866 700.514 70.522 693.165C68.359 692.383 65.853 691.447 63.1379 690.377C64.3379 700.963 68.5649 708.218 70.3879 710.134H70.3979L71.5439 710.466H71.554L71.859 710.555C72.3176 710.688 72.7903 710.828 73.277 710.973L73.495 711.038L74.556 711.358H74.566L75.057 711.506C75.589 711.669 76.1331 711.837 76.6949 712.014C77.2889 712.202 77.8589 712.384 78.408 712.561L78.415 712.572Z" fill="#E85D1C"/>
</g>
<path fill-rule="evenodd" clip-rule="evenodd" d="M275.691 629.566C275.691 629.566 272.606 628.454 261.076 632.925C249.546 637.396 182.009 660.852 105.537 655.36C105.537 655.36 89.7711 653.2 80.1231 675.418C70.4752 697.636 89.2281 713.367 89.2281 713.367C89.2281 713.367 115.473 728.348 178.821 731.286C239.752 734.112 269.142 727.286 282.048 723.986C295.44 720.563 300.03 717.833 300.812 716.108C301.558 714.453 275.691 629.566 275.691 629.566Z" fill="#FFD348"/>
<g style="mix-blend-mode:multiply" opacity="0.1">
<path fill-rule="evenodd" clip-rule="evenodd" d="M154.119 698.711C130.578 698.647 103.186 690.687 78.2321 681.038C73.5912 700.238 89.2231 713.368 89.2231 713.368C89.2231 713.368 115.469 728.349 178.816 731.287C239.747 734.113 269.137 727.287 282.043 723.987C295.435 720.564 300.025 717.834 300.807 716.109C300.997 715.69 299.469 709.896 297.086 701.493L250.217 690.517C250.217 690.517 208.311 698.859 154.119 698.711Z" fill="#E85D1C"/>
</g>
<path fill-rule="evenodd" clip-rule="evenodd" d="M275.69 629.566C275.69 629.566 272.606 628.454 261.075 632.925C249.544 637.396 182.006 660.852 105.532 655.36C105.532 655.36 92.2211 653.553 82.5771 670.497C146.116 691.666 219.547 675.418 242.99 668.003L276.911 656.814L281.988 650.37C278.376 638.376 275.69 629.566 275.69 629.566Z" fill="#FFDA60"/>
<path fill-rule="evenodd" clip-rule="evenodd" d="M259.818 644.423C259.818 644.423 276.871 631.371 271.159 632.631C265.447 633.891 240.487 646.364 188.345 654.809C158.824 659.568 128.767 660.003 99.12 656.099C96.2318 656.956 93.5334 658.355 91.1692 660.222C104.237 663.305 129.236 668.001 163.485 665.709C218.408 662.037 250.082 648.567 259.818 644.423Z" fill="#FFE568"/>
<path d="M82.5771 670.497C146.116 691.666 219.547 675.418 242.99 668.003" stroke="#FFEAA8" stroke-width="3"/>
<path fill-rule="evenodd" clip-rule="evenodd" d="M256.852 705.916C246.679 709.527 168.475 726.885 78.3772 695.855C80.296 702.587 84.0516 708.651 89.2231 713.368C89.2231 713.368 115.468 728.349 178.816 731.287C239.747 734.113 269.137 727.287 282.043 723.987C295.435 720.564 300.025 717.834 300.807 716.109C301.048 715.577 298.525 706.399 294.996 694.209L256.852 705.916Z" fill="#FECB2F"/>
<g style="mix-blend-mode:multiply" opacity="0.3">
<path fill-rule="evenodd" clip-rule="evenodd" d="M300.808 716.106C300.74 715.071 300.546 714.049 300.231 713.061L278.889 712.077C254.243 723.266 148.019 737.354 78.3782 695.855C79.2383 699.058 80.5624 702.117 82.3083 704.936C84.1874 708.071 86.5173 710.912 89.2234 713.368C89.2233 713.368 115.468 728.349 178.816 731.287C239.747 734.113 269.137 727.287 282.043 723.987C295.436 720.561 300.026 717.83 300.808 716.106Z" fill="#E85D1C"/>
</g>
<path d="M256.852 705.916C246.679 709.527 168.475 726.885 78.3772 695.855" stroke="#FFE568" stroke-width="3"/>
<path fill-rule="evenodd" clip-rule="evenodd" d="M104.465 683.312C99.2008 682.178 96.6459 681.598 92.8899 680.971C86.3589 679.882 85.5089 688.434 90.5569 691.271C94.4717 693.445 98.7025 694.993 103.096 695.858C105.687 696.442 108.342 696.691 110.996 696.601C113.532 696.465 115.896 694.967 116.466 692.694C117.221 689.897 115.823 686.968 113.175 685.794C110.367 684.662 107.448 683.83 104.465 683.312Z" fill="#16A461"/>
<path fill-rule="evenodd" clip-rule="evenodd" d="M90.5569 691.268C94.4717 693.442 98.7026 694.99 103.096 695.855C105.687 696.439 108.342 696.688 110.996 696.598C113.208 696.567 115.222 695.315 116.23 693.345C106.61 690.936 96.9 687.872 87.421 684.466C86.9101 687.17 88.169 689.901 90.5569 691.268Z" fill="#16935D"/>
<path fill-rule="evenodd" clip-rule="evenodd" d="M108.07 694.378C107.47 694.333 107.176 694.306 106.585 694.243C105.985 693.601 105.693 693.275 105.133 692.615C101.841 688.659 100.642 686.62 98.5168 685.88C97.0838 685.38 95.4888 685.435 94.5668 687.223C94.1175 688.199 94.1055 689.319 94.5339 690.304C93.8268 690.27 93.4728 690.246 92.7648 690.183C92.2907 688.853 92.4245 687.382 93.1308 686.159C94.2408 684.067 96.7676 683.174 98.9457 684.103C101.433 684.973 102.937 687.217 105.609 690.458C105.993 690.948 106.19 691.191 106.596 691.671L106.647 691.677C107.164 689.292 107.381 688.095 107.726 685.702C108.39 685.768 108.726 685.794 109.396 685.831C109.124 688.704 108.681 691.558 108.07 694.378L108.07 694.378Z" fill="#FFD348"/>
<path fill-rule="evenodd" clip-rule="evenodd" d="M275.691 629.565C272.691 630.365 263.132 639.798 256.616 648.45C250.1 657.102 243.465 664.45 242.99 668.003C242.515 671.556 247.848 683.879 250.217 690.514C252.586 697.149 255.786 704.614 256.852 705.914C257.918 707.214 272.847 710.414 278.889 712.075C284.931 713.736 298.675 716.575 300.808 716.104C302.941 715.633 323.333 694.136 333.632 680.047C341.382 669.557 348.461 658.587 354.825 647.203C355.654 645.426 355.664 642.173 351.28 641.462C346.896 640.751 326.99 638.224 311.234 635.775C296.491 633.485 279.008 628.685 275.691 629.565Z" fill="#F8E9D0"/>
<path fill-rule="evenodd" clip-rule="evenodd" d="M353.187 642.051C352.585 641.759 351.942 641.561 351.28 641.463C346.897 640.752 326.99 638.225 311.234 635.776C296.491 633.484 279.008 628.685 275.69 629.565C272.69 630.365 263.131 639.798 256.615 648.45C251.278 655.537 245.867 661.742 243.821 665.711C247.563 664.526 261.831 662.011 291.286 656.542C296.772 655.524 303.369 654.231 308.786 653.272C323.823 650.539 338.657 646.79 353.187 642.051L353.187 642.051Z" fill="#FCF1E0"/>
<path fill-rule="evenodd" clip-rule="evenodd" d="M353.187 642.051C356.338 646.066 350.414 650.1 344.004 655.606C337.594 661.112 322.936 671.719 295.764 680.048C267.644 688.669 261.509 688.669 250.219 690.513C252.588 697.148 255.788 704.613 256.854 705.913C257.92 707.213 272.849 710.413 278.891 712.074C284.933 713.735 298.677 716.574 300.81 716.103C302.943 715.632 323.335 694.135 333.634 680.046C341.384 669.556 348.462 658.586 354.825 647.202C355.314 646.306 355.415 645.249 355.106 644.277C354.796 643.304 354.103 642.5 353.187 642.051Z" fill="#F5DFCE"/>
<path fill-rule="evenodd" clip-rule="evenodd" d="M345.495 642.552C345.495 642.552 324.458 641.315 308.763 638.616C294.446 636.154 274.963 632.116 271.163 632.634C267.087 636.269 263.296 640.211 259.822 644.426C261.292 643.467 268.167 643.315 287.822 644.433C304.34 645.372 336.145 645.105 345.495 642.552Z" fill="#FFF8ED"/>
<path fill-rule="evenodd" clip-rule="evenodd" d="M352.743 650.963C343.293 666.563 312.717 696.671 278.89 712.076C284.933 713.735 298.676 716.576 300.809 716.105C302.942 715.634 323.334 694.137 333.633 680.048C342.515 667.898 349.433 656.671 352.743 650.963H352.743Z" fill="#EDC1AD"/>
<path fill-rule="evenodd" clip-rule="evenodd" d="M351.28 641.463C347.241 640.808 330.025 638.611 315.018 636.354C315.018 636.354 304.812 645.441 310.469 661.739C316.126 678.037 333.632 680.048 333.632 680.048C341.383 669.558 348.461 658.588 354.825 647.204C355.655 645.427 355.664 642.175 351.28 641.463Z" fill="#194A72"/>
<path fill-rule="evenodd" clip-rule="evenodd" d="M350.691 641.371L350.315 641.315L350.103 641.283L349.727 641.227L349.427 641.184L349.056 641.13L348.717 641.082L348.306 641.024L347.952 640.974L347.464 640.906L347.145 640.861L346.545 640.778L346.256 640.739C339.045 639.739 326.4 638.066 315.021 636.355C310.647 640.86 308.384 647.005 308.79 653.271C332.621 649.049 355.861 643.305 351.283 641.463L350.842 641.394L350.691 641.371Z" fill="#29688C"/>
<path fill-rule="evenodd" clip-rule="evenodd" d="M354.997 646.768C355.023 646.693 355.048 646.617 355.07 646.539C355.084 646.49 355.097 646.439 355.109 646.392C355.127 646.321 355.142 646.25 355.158 646.178C355.17 646.122 355.181 646.064 355.191 646.007C355.201 645.95 355.209 645.874 355.218 645.807C355.227 645.74 355.234 645.68 355.239 645.615C355.239 645.565 355.239 645.515 355.245 645.463C355.252 645.304 355.249 645.144 355.237 644.985C355.237 644.95 355.237 644.914 355.229 644.879C355.219 644.788 355.205 644.698 355.189 644.608C355.182 644.571 355.176 644.534 355.169 644.497C355.149 644.404 355.126 644.312 355.098 644.22C355.089 644.189 355.08 644.161 355.07 644.131C355.037 644.031 355.002 643.931 354.96 643.836L354.95 643.813C354.794 643.461 354.577 643.138 354.309 642.861L354.301 642.852C354.212 642.761 354.118 642.674 354.02 642.593L353.957 642.541C353.856 642.459 353.75 642.383 353.641 642.312C353.615 642.295 353.588 642.279 353.563 642.263C353.444 642.189 353.321 642.116 353.187 642.05C356.338 646.065 350.414 650.099 344.004 655.605C339.867 659.159 329.992 665.023 317.256 672.237C324.256 678.715 333.645 680.404 333.632 680.048C341.382 669.558 348.461 658.588 354.825 647.204C354.873 647.104 354.917 646.994 354.958 646.883C354.973 646.846 354.984 646.802 354.997 646.768Z" fill="#123668"/>
<path fill-rule="evenodd" clip-rule="evenodd" d="M309.892 644.927C324.363 644.882 339.517 644.185 345.492 642.553C345.492 642.553 327.705 641.506 312.639 639.239C311.461 640.997 310.536 642.911 309.892 644.927Z" fill="#3C8DAA"/>
<path fill-rule="evenodd" clip-rule="evenodd" d="M335.461 677.52C335.919 676.881 336.372 676.246 336.818 675.613L336.88 675.528C337.346 674.869 337.804 674.216 338.253 673.567L338.594 673.075C339.006 672.48 339.413 671.89 339.814 671.305C339.849 671.253 339.886 671.2 339.922 671.148C340.353 670.517 340.776 669.893 341.192 669.276C341.298 669.119 341.403 668.962 341.508 668.807C341.877 668.257 342.24 667.713 342.599 667.176L342.741 666.962C343.141 666.362 343.53 665.772 343.907 665.192L344.178 664.777C344.516 664.259 344.848 663.749 345.173 663.246C345.219 663.176 345.264 663.105 345.309 663.037C345.673 662.474 346.027 661.921 346.371 661.38L346.597 661.025C346.901 660.548 347.198 660.079 347.488 659.618L347.615 659.418C347.944 658.894 348.263 658.384 348.571 657.887C348.624 657.804 348.671 657.721 348.725 657.639C349.005 657.187 349.277 656.746 349.542 656.316C349.572 656.266 349.604 656.216 349.635 656.165C349.926 655.688 350.207 655.227 350.477 654.781L350.566 654.634C350.824 654.207 351.073 653.793 351.31 653.397L351.346 653.338C351.599 652.912 351.841 652.505 352.071 652.116L352.098 652.07C352.326 651.683 352.542 651.313 352.744 650.97C348.42 658.107 339.665 668.283 328.208 678.696C329.969 679.323 331.786 679.779 333.634 680.055C334.13 679.377 334.618 678.702 335.099 678.031L335.461 677.52Z" fill="#0E2D54"/>
<path fill-rule="evenodd" clip-rule="evenodd" d="M103.974 656.543C103.483 660.157 105.121 666.259 114.174 669.565C123.227 672.871 136.374 670.212 137.793 670.212C139.212 670.212 140.784 671.156 139.839 676.351C138.894 681.546 140.471 688.669 140.471 688.669C138.916 689.697 138.374 691.725 139.21 693.391C140.469 696.654 137.951 699.791 137.951 703.258C137.951 706.725 135.905 716.309 144.719 717.258C153.533 718.207 175.411 708.882 175.096 706.15C174.781 703.418 168.424 701.787 164.913 696.621C161.402 691.455 162.577 659.677 149.086 659.19C135.595 658.703 103.974 656.543 103.974 656.543Z" fill="url(#paint1_linear_213_2310)"/>
<path fill-rule="evenodd" clip-rule="evenodd" d="M111.9 573.756C111.9 573.756 104.31 571.418 97.7361 578.306C92.4112 583.884 88.0081 592.539 92.3852 595.932C96.7622 599.325 111.9 573.756 111.9 573.756Z" fill="#28BBE2"/>
<g style="mix-blend-mode:multiply" opacity="0.2">
<path fill-rule="evenodd" clip-rule="evenodd" d="M111.9 573.757C106.755 575.971 102.25 579.444 98.8001 583.857C94.7191 588.94 92.2532 589.023 92.1942 586.157C90.2832 590.104 89.8013 593.933 92.3812 595.933C96.7632 599.322 111.9 573.757 111.9 573.757Z" fill="#242357"/>
</g>
<path fill-rule="evenodd" clip-rule="evenodd" d="M87.0592 605.797C84.9162 605.474 80.5322 606.609 78.1422 612.086C75.7522 617.563 74.0241 630.446 77.4771 634.963C80.9302 639.48 85.3281 638.319 85.3281 638.319L87.0592 605.797Z" fill="#28BBE2"/>
<g style="mix-blend-mode:multiply" opacity="0.2">
<path fill-rule="evenodd" clip-rule="evenodd" d="M80.448 622.099C79.548 628.275 76.387 628.299 75.541 626.59C75.5601 630.04 76.105 633.165 77.479 634.962C80.932 639.478 85.33 638.318 85.33 638.318L87.0609 605.797C87.0609 605.797 82.1941 610.143 80.448 622.099Z" fill="#242357"/>
</g>
<path fill-rule="evenodd" clip-rule="evenodd" d="M142.725 572.346C138.579 570.009 125.425 568.046 115.202 572.018C104.979 575.99 89.8331 596.267 84.1191 613.046C78.4051 629.825 83.2401 645.058 101.545 647.184C119.85 649.31 129.299 646.784 133.745 644.66C138.191 642.536 145.275 627.213 148.413 610.112C151.551 593.011 142.725 572.346 142.725 572.346Z" fill="#28BBE2"/>
<g style="mix-blend-mode:multiply" opacity="0.2">
<path fill-rule="evenodd" clip-rule="evenodd" d="M142.725 572.346C141.543 571.68 133.085 570.667 124.415 573.375C116.42 575.875 103.115 585.533 95.9602 598.948C88.8053 612.363 96.6422 638.707 95.9602 640.623C95.4242 642.123 89.7863 641.63 85.2231 638.154C88.3522 642.954 93.7112 646.274 101.544 647.184C119.85 649.309 129.298 646.784 133.744 644.66C138.19 642.536 145.274 627.213 148.412 610.112C151.55 593.011 142.725 572.346 142.725 572.346Z" fill="#242357"/>
</g>
<path opacity="0.2" fill-rule="evenodd" clip-rule="evenodd" d="M83.1412 607.216C80.7941 608.563 78.2752 611.974 77.3592 616.607C76.4432 621.24 78.5712 620.539 79.1982 618.448C79.8251 616.357 80.6812 611.554 83.0572 608.867C84.9921 606.676 84.0822 606.677 83.1412 607.216Z" fill="#F5FFFE"/>
<path opacity="0.2" fill-rule="evenodd" clip-rule="evenodd" d="M104.787 574.549C101.488 575.589 98.6578 577.751 96.7871 580.66C95.3692 583.194 96.9291 583.823 98.4871 582.125C100.045 580.427 103.079 576.574 106.129 575.44C109.179 574.306 107.484 573.757 104.787 574.549Z" fill="#F5FFFE"/>
<path opacity="0.2" fill-rule="evenodd" clip-rule="evenodd" d="M125.316 570.742C126.071 570.842 123.356 571.595 119.225 573.757C114.807 576.069 108.317 581.394 105.625 583.991C102.933 586.588 101.255 584.236 108.338 577.673C113.729 572.674 121.71 570.285 125.316 570.742Z" fill="#F5FFFE"/>
<path fill-rule="evenodd" clip-rule="evenodd" d="M167.642 589.474C168.68 591.444 172.688 604.068 169.092 610.984C165.496 617.9 161.611 613.384 161.611 613.384L165.111 590.227L167.642 589.474Z" fill="#007CB6"/>
<path fill-rule="evenodd" clip-rule="evenodd" d="M167.402 594.041C167.276 592.599 166.996 591.175 166.567 589.793L165.111 590.225L161.611 613.382C162.283 614.115 163.174 614.612 164.151 614.797C163.818 614.179 163.594 613.836 163.594 613.836C163.594 613.836 168.612 606.234 167.402 594.041Z" fill="#00629E"/>
<path fill-rule="evenodd" clip-rule="evenodd" d="M169.766 609.366C167.734 607.994 165.072 607.994 163.04 609.366C161.105 610.874 160.559 615.882 160.559 615.882L162.425 627.789C163.486 628.659 164.742 629.26 166.086 629.538C167.484 629.621 168.842 629.053 169.766 628.001C170.547 627.342 172.303 627.342 172.961 625.586C173.619 623.83 173.62 621.744 174.498 620.536C175.376 619.328 178.098 617.353 176.898 614.169C175.698 610.985 175.189 609.494 175.905 607.033C176.539 604.856 177.586 602.994 176.426 601.583C174.984 599.827 171.997 601.215 170.557 603.52C170.61 605.499 170.343 607.473 169.766 609.366Z" fill="#F8C6A3"/>
<path fill-rule="evenodd" clip-rule="evenodd" d="M170.858 616.894C170.836 616.138 167.927 615.305 165.886 613.278C163.845 611.251 165.886 607.851 168.315 608.657C166.544 608.029 164.579 608.292 163.036 609.364C161.101 610.872 160.555 615.88 160.555 615.88L162.421 627.787C163.482 628.657 164.738 629.258 166.082 629.536C167.006 629.65 167.939 629.409 168.691 628.861C167.926 629.181 167.041 628.957 166.52 628.312C165.52 627.194 166.872 624.819 167.543 623.268C168.214 621.717 164.443 620.511 166.343 617.168C167.275 615.523 170.883 617.652 170.858 616.894Z" fill="#F2A37C"/>
<path fill-rule="evenodd" clip-rule="evenodd" d="M174.573 600.798C172.89 601.046 171.411 602.048 170.557 603.52C170.609 605.499 170.342 607.473 169.765 609.367C169.765 609.367 171.814 610.69 173.283 611.718C172.745 610.911 172.367 610.009 172.168 609.06C171.543 607.076 171.594 604.94 172.313 602.988C172.761 601.998 173.569 601.215 174.573 600.798V600.798Z" fill="#F2A37C"/>
<path opacity="0.3" fill-rule="evenodd" clip-rule="evenodd" d="M175.201 606.45C174.239 608.589 175.08 611.364 175.889 613.338C176.698 615.312 176.818 617.152 174.783 620.183C175.842 618.955 177.983 617.061 176.9 614.167C175.706 610.984 175.19 609.492 175.906 607.031C176.54 604.854 177.587 602.992 176.427 601.581C176.817 602.285 176.319 603.962 175.201 606.45Z" fill="white"/>
<path fill-rule="evenodd" clip-rule="evenodd" d="M158.641 583.98C158.641 583.98 164.463 582.689 165.515 593.302C166.726 605.494 161.707 613.097 161.707 613.097C161.707 613.097 167.546 621.969 164.468 632.549C162.445 639.5 128.083 646.229 101.544 640.388C101.544 640.388 102.434 616.643 110.944 600.388C115.951 590.738 123.95 582.971 133.744 578.251L142.729 577.671C142.729 577.671 146.88 582.993 150.816 584.643C154.752 586.293 158.641 583.98 158.641 583.98Z" fill="#EFF8FC"/>
<path fill-rule="evenodd" clip-rule="evenodd" d="M130.294 642.279L142.449 632.549C142.449 632.549 127.835 635.708 119.393 634.076C110.951 632.444 108.951 623.941 111.899 620.183L109.699 615.176L105.287 615.711C103.257 623.798 102.004 632.061 101.545 640.387C110.992 642.36 120.67 642.997 130.294 642.279Z" fill="#CCE4EA"/>
<path fill-rule="evenodd" clip-rule="evenodd" d="M149.084 609.24C149.084 609.24 158.248 609.54 161.708 613.097C162.213 612.384 162.619 611.607 162.915 610.785C158.849 607.999 153.664 607.42 149.084 609.24Z" fill="#CCE4EA"/>
<path fill-rule="evenodd" clip-rule="evenodd" d="M114.078 617.839C117.833 618.786 122.768 623.672 132.718 624.324C142.668 624.976 147.197 621.909 151.83 617.839C146.212 620.051 139.993 620.199 134.276 618.258C123.46 614.528 120.376 605.287 109.294 605.036C109.118 605.036 108.95 605.045 108.778 605.049C104.991 614.236 103.162 624.707 102.296 631.849L114.078 617.839Z" fill="#CCE4EA"/>
<path fill-rule="evenodd" clip-rule="evenodd" d="M153.387 596.242C153.387 596.242 153.202 604.226 146.787 606.45C146.787 606.45 156.273 606.35 156.547 600.789C156.821 595.228 153.387 596.242 153.387 596.242Z" fill="#A9CBD3"/>
<path fill-rule="evenodd" clip-rule="evenodd" d="M149.084 587.706C149.084 587.706 149.352 595.621 154.119 596.924C159.054 598.272 155.032 587.829 154.363 587.743C153.694 587.657 149.084 587.706 149.084 587.706Z" fill="#A9CBD3"/>
<path fill-rule="evenodd" clip-rule="evenodd" d="M153.123 586.141C150.648 587.241 149.487 590.188 149.281 592.146C149.075 594.104 149.095 594.487 148.607 594.38C146.898 594.141 145.312 593.357 144.083 592.146C141.82 590.112 147.176 582.126 147.176 582.126H148.163C150.085 582.127 151.827 583.254 152.614 585.007L153.123 586.141Z" fill="#A9CBD3"/>
<path fill-rule="evenodd" clip-rule="evenodd" d="M161.148 588.337C162.479 589.844 162.378 593.019 162.479 593.681C162.58 594.343 165.846 592.041 166.086 590.796C166.326 589.551 164.398 584.152 164.398 584.152L161.148 588.337Z" fill="#A9CBD3"/>
<path fill-rule="evenodd" clip-rule="evenodd" d="M135.344 579.655L141.69 579.245C143.718 584.431 143.718 590.191 141.69 595.377C138.316 604.321 131.574 608.561 123.926 607.755L135.344 579.655Z" fill="#CCE4EA"/>
<path fill-rule="evenodd" clip-rule="evenodd" d="M133.74 578.253L140.086 577.843C142.114 583.029 142.114 588.788 140.086 593.974C136.711 602.919 129.969 607.158 122.322 606.353L133.74 578.253Z" fill="#007CB6"/>
<path fill-rule="evenodd" clip-rule="evenodd" d="M122.323 606.353C123.491 606.474 124.668 606.472 125.835 606.347C129.342 602.314 133.512 597.254 135.508 593.836C138.141 589.312 138.553 583.831 136.626 578.964C136.4 578.629 136.109 578.343 135.771 578.122L133.741 578.253L122.323 606.353Z" fill="#00629E"/>
<path fill-rule="evenodd" clip-rule="evenodd" d="M121.126 603.493C121.126 603.493 89.9031 642.276 87.5741 644.954C85.2451 647.632 84.7802 650.31 79.4231 650.194C74.066 650.078 70.1082 651.125 65.6831 652.173C61.2581 653.221 58.1151 652.873 58.4631 650.309C58.8112 647.745 63.9362 644.487 63.9362 644.487L52.9912 640.528C54.2523 638.916 56.1835 637.972 58.2302 637.966C61.8392 637.849 67.7782 639.48 69.5253 639.48C71.2723 639.48 72.9022 638.315 76.1632 633.89C79.4242 629.465 104.341 595.931 104.341 595.931L121.126 603.493Z" fill="#F8C6A3"/>
<path fill-rule="evenodd" clip-rule="evenodd" d="M100.776 600.73C98.7521 603.455 96.0571 607.083 93.1761 610.96C95.4891 613.699 97.8651 616 98.8761 616.253C100.189 616.581 103.657 615.662 105.287 615.711C105.287 615.711 85.5331 641.971 83.0161 644.865C80.4991 647.759 75.7451 646.736 71.3942 647.986C67.0432 649.236 61.6611 653.241 58.6091 651.486C59.2981 652.95 62.0602 653.032 65.6841 652.174C70.108 651.125 74.0681 650.074 79.4241 650.195C84.78 650.316 85.2471 647.633 87.5751 644.955C89.338 642.929 107.645 620.228 116.447 609.303L100.776 600.73Z" fill="#F2A37C"/>
<path fill-rule="evenodd" clip-rule="evenodd" d="M66.981 642.851C66.981 642.851 56.224 640.259 55.297 639.908C54.4869 639.602 55.264 638.622 55.876 638.423C54.7311 638.832 53.7291 639.564 52.991 640.53L63.9359 644.489C64.9221 643.891 65.9385 643.344 66.9811 642.851H66.981Z" fill="#F2A37C"/>
<path opacity="0.3" fill-rule="evenodd" clip-rule="evenodd" d="M76.1631 633.892C72.9021 638.317 71.2721 639.482 69.5251 639.482C67.7782 639.482 61.8401 637.851 58.2301 637.968C57.9603 637.978 57.6913 638.002 57.4241 638.04C61.171 638.092 65.3461 639.68 67.4181 640.218C69.4901 640.756 71.4181 641.218 73.8521 638.423C76.286 635.628 92.6371 611.689 92.6421 611.681C85.686 621.046 77.889 631.546 76.1631 633.892Z" fill="white"/>
<path fill-rule="evenodd" clip-rule="evenodd" d="M133.736 578.253C131.783 575.153 122.257 575.338 114.619 581.853C105.933 589.261 97.7322 597.733 97.7322 597.733C97.7322 597.733 98.8652 601.873 105.238 607.481C108.484 610.471 112.746 612.113 117.159 612.074C117.159 612.074 128.822 599.626 132.618 593.128C135.252 588.603 135.664 583.12 133.736 578.253Z" fill="#DEF1F8"/>
<path fill-rule="evenodd" clip-rule="evenodd" d="M105.243 607.479C108.489 610.469 112.751 612.111 117.163 612.072C117.163 612.072 128.825 599.624 132.622 593.125C133.926 590.912 134.7 588.427 134.884 585.865L134.873 585.811C131.763 592.978 116.873 609.533 97.7363 597.731C97.7362 597.731 98.8693 601.871 105.243 607.479Z" fill="#CCE4EA"/>
<path fill-rule="evenodd" clip-rule="evenodd" d="M130.307 577.722C125.545 577.478 120.838 578.84 116.941 581.589C113.305 584.167 110.602 587.165 116.941 587.574C123.28 587.983 129.605 583.321 131.202 581.589C132.718 579.949 133.682 578.003 130.307 577.722Z" fill="#E9F6FB"/>
<path fill-rule="evenodd" clip-rule="evenodd" d="M127.446 578.572C123.635 578.994 120.913 580.237 119.399 581.797C117.885 583.357 126.689 582.241 129.43 581.066C132.803 579.621 131.675 578.103 127.446 578.572Z" fill="#EFF8FC"/>
<path fill-rule="evenodd" clip-rule="evenodd" d="M162.022 578.314C162.022 578.314 165.346 578.075 166.898 580.202C168.224 582.02 168.938 585.365 167.641 589.474C166.221 593.974 164.255 594.04 163.841 593.958C163.427 593.876 163.887 589.358 162.299 587.746C160.711 586.134 158.638 583.98 158.638 583.98C158.638 583.98 160.201 579.302 162.022 578.314Z" fill="#DEF1F8"/>
<path fill-rule="evenodd" clip-rule="evenodd" d="M167.543 581.363C167.368 580.954 167.151 580.565 166.896 580.201C165.344 578.074 162.02 578.313 162.02 578.313C160.199 579.301 158.638 583.979 158.638 583.979C158.638 583.979 160.712 586.136 162.299 587.745C163.156 588.615 163.416 590.331 163.539 591.739C163.883 588.858 163.239 586.908 162.476 584.213C162.112 582.888 162.752 581.492 163.994 580.903C165.18 580.46 166.509 580.632 167.543 581.363H167.543Z" fill="#CCE4EA"/>
<path fill-rule="evenodd" clip-rule="evenodd" d="M166.317 582.578C164.9 581.74 164.304 584.047 164.802 586.578C165.075 588.506 165.048 590.466 164.722 592.386C164.678 593.086 165.956 592.124 166.868 589.486C167.78 586.848 168.039 583.596 166.317 582.578Z" fill="#E9F6FB"/>
<path fill-rule="evenodd" clip-rule="evenodd" d="M149.071 570.932C147.149 573.353 145.026 575.608 142.725 577.673C142.725 577.673 146.576 586.166 154.364 587.746C154.364 587.746 159.82 584.201 162.064 578.723C162.064 578.723 161.125 575.528 156.046 572.707C150.967 569.886 149.071 570.932 149.071 570.932Z" fill="#F8C6A3"/>
<path fill-rule="evenodd" clip-rule="evenodd" d="M156.042 572.706C150.964 569.885 149.071 570.931 149.071 570.931C149.071 570.931 148.771 571.342 148.085 572.146L147.653 572.646C147.653 572.646 148.843 576.546 153.929 579.413C155.935 580.57 158.136 581.35 160.423 581.713C161.069 580.776 161.618 579.775 162.061 578.726C162.061 578.726 161.12 575.527 156.042 572.706Z" fill="#F2A37C"/>
<path fill-rule="evenodd" clip-rule="evenodd" d="M156.042 572.706C150.964 569.885 149.071 570.931 149.071 570.931C149.071 570.931 148.885 571.181 148.516 571.631C152.579 576.1 157.881 577.631 162.06 578.722C162.06 578.722 161.121 575.527 156.042 572.706Z" fill="#DD8964"/>
<path fill-rule="evenodd" clip-rule="evenodd" d="M154.118 596.927C153.989 599.059 153.318 604.87 146.691 605.411C140.064 605.952 135.473 605.201 125.337 596.927C115.201 588.653 109.93 584.576 100.604 586.141C97.495 586.896 86.953 596.49 86.819 598.924C86.685 601.358 98.7119 612.303 99.928 613.25C101.144 614.197 108.193 612.367 115.516 615.441C121.871 618.108 127.916 624.332 141.897 622.17C155.878 620.008 162.204 605.47 160.191 596.928C160.192 596.927 158.437 594.789 154.118 596.927Z" fill="#EA4D5F"/>
<path fill-rule="evenodd" clip-rule="evenodd" d="M119.393 592.197C117.481 590.706 115.454 589.368 113.331 588.197C107.05 595.144 99.4003 600.718 90.863 604.569C93.4451 607.326 96.639 610.326 98.495 611.999C108.294 606.407 116.509 596.69 119.393 592.197Z" fill="#EFF8FC"/>
<path fill-rule="evenodd" clip-rule="evenodd" d="M128.721 621.585C131.503 622.358 134.388 622.698 137.273 622.595C138.862 616.807 139.242 610.753 138.389 604.811C136.881 604.355 135.425 603.744 134.044 602.986C133.731 609.514 131.909 615.88 128.721 621.585Z" fill="#EFF8FC"/>
<path fill-rule="evenodd" clip-rule="evenodd" d="M148.152 620.182C150.046 619.232 151.787 618.004 153.318 616.539C152.402 612.434 150.643 608.563 148.154 605.173C147.674 605.289 147.185 605.368 146.693 605.41C145.61 605.498 144.584 605.546 143.577 605.538C146.667 609.785 148.275 614.931 148.152 620.182Z" fill="#EFF8FC"/>
<path fill-rule="evenodd" clip-rule="evenodd" d="M120.183 617.826C125.252 611.602 127.809 604.152 128.971 599.742C127.839 598.916 126.635 597.985 125.338 596.926C124.896 596.564 124.473 596.226 124.049 595.876C120.697 604.297 114.733 610.676 110.986 614.087C112.539 614.38 114.057 614.833 115.517 615.439C117.113 616.152 118.671 616.949 120.183 617.826H120.183Z" fill="#EFF8FC"/>
<path fill-rule="evenodd" clip-rule="evenodd" d="M153.634 599.852C153.263 601.207 152.538 602.439 151.534 603.422C154.286 604.772 156.669 606.768 158.481 609.24C159.168 607.74 159.695 606.173 160.056 604.564C158.247 602.585 156.065 600.984 153.634 599.852Z" fill="#EFF8FC"/>
<g style="mix-blend-mode:multiply" opacity="0.2">
<path fill-rule="evenodd" clip-rule="evenodd" d="M154.119 596.926C154.078 599.124 153.325 601.25 151.972 602.983V602.983C153.38 601.694 154.382 600.023 154.856 598.174C154.856 598.174 159.039 599.506 160.192 596.923L157.121 596.004C156.072 596.123 155.054 596.435 154.119 596.926Z" fill="#242357"/>
</g>
<path fill-rule="evenodd" clip-rule="evenodd" d="M154.107 584.435C155.412 583.89 159.033 583.235 160.771 585.049C162.509 586.863 162.909 589.032 162.022 592.219C161.614 593.86 160.999 595.442 160.192 596.927C158.316 598.024 155.994 598.024 154.118 596.927C151.536 594.627 150.058 591.334 150.056 587.876C151.062 586.377 152.465 585.186 154.107 584.435Z" fill="#EA4D5F"/>
<path fill-rule="evenodd" clip-rule="evenodd" d="M160.585 596.173C158.052 592.753 154.357 590.374 150.195 589.483C150.342 590.516 150.614 591.527 151.003 592.495C153.818 593.638 156.347 595.386 158.411 597.614C159.042 597.498 159.646 597.264 160.191 596.926C160.191 596.926 160.347 596.669 160.585 596.173Z" fill="#EFF8FC"/>
<path fill-rule="evenodd" clip-rule="evenodd" d="M155.118 584.12C154.774 584.198 154.436 584.303 154.108 584.434C153.258 584.842 152.463 585.357 151.743 585.965C155.743 586.893 159.346 589.063 162.036 592.165C162.391 591.009 162.53 589.798 162.447 588.591C160.403 586.528 157.888 584.993 155.118 584.12Z" fill="#EFF8FC"/>
<g style="mix-blend-mode:multiply" opacity="0.2">
<path fill-rule="evenodd" clip-rule="evenodd" d="M153.122 592.146C152.452 588.276 153.835 584.731 155.746 583.994C155.186 584.082 154.636 584.23 154.107 584.435C152.465 585.186 151.062 586.377 150.056 587.876C150.057 591.333 151.535 594.626 154.117 596.926C155.035 597.419 156.055 597.693 157.097 597.727C155.337 597.057 153.732 595.669 153.122 592.146Z" fill="#242357"/>
</g>
<g style="mix-blend-mode:multiply" opacity="0.2">
<path fill-rule="evenodd" clip-rule="evenodd" d="M140.918 619.571C128.718 619.304 124.931 614.971 115.468 610.756C110.885 608.716 103.392 609.195 101.544 608.348C99.2442 607.293 89.8052 599.211 89.5102 598.354C88.9951 596.854 95.4042 589.474 95.4042 589.474C91.4142 592.714 86.9092 597.338 86.8222 598.923C86.6872 601.355 98.7151 612.302 99.9312 613.249C101.147 614.196 108.196 612.366 115.519 615.44C121.874 618.107 127.919 624.331 141.9 622.169C147.73 621.265 152.928 617.991 156.26 613.122C153.308 616.547 149.483 619.759 140.918 619.571Z" fill="#242357"/>
</g>
<path opacity="0.15" fill-rule="evenodd" clip-rule="evenodd" d="M109.684 588.003C107.046 587.201 104.27 586.952 101.531 587.272C99.9431 587.56 97.0912 590.212 95.3741 592.326C92.4011 595.984 99.7821 592.116 110.146 596.436C120.51 600.756 133.851 607.75 136.51 606.891C139.169 606.032 131.405 603.196 125.31 598.291C120.242 594.197 114.022 589.323 109.684 588.003Z" fill="white"/>
<path opacity="0.15" fill-rule="evenodd" clip-rule="evenodd" d="M160.192 585.454C158.417 584.289 157.673 587.425 157.852 590.795C158.031 594.165 158.421 596.809 159.389 596.395C160.357 595.981 161.933 591.81 161.817 589.485C161.701 587.16 161.079 586.038 160.192 585.454Z" fill="white"/>
<path fill-rule="evenodd" clip-rule="evenodd" d="M147.379 572.958C146.353 572.135 145.015 571.81 143.726 572.071C141.269 572.388 134.216 577.301 133.741 578.253C133.266 579.205 133.399 583.306 138.341 589.031C141.092 592.221 145.791 594.183 147.059 594.579C148.327 594.975 147.587 587.479 154.113 584.435C154.113 584.435 154.462 583.019 151.313 581.67C149.013 580.688 145.755 577.67 145.597 574.883L147.379 572.958Z" fill="#DEF1F8"/>
<path fill-rule="evenodd" clip-rule="evenodd" d="M145.588 574.883L147.379 572.958C146.353 572.135 145.015 571.81 143.726 572.071C141.269 572.388 134.216 577.301 133.741 578.253C133.266 579.205 133.399 583.306 138.341 589.031C135.59 585.098 135.95 579.345 138.123 577.673C140.296 576.001 143.474 573.441 144.565 576.226C145.656 579.011 150.065 580.992 150.065 580.993C147.979 579.656 145.719 577.199 145.588 574.883Z" fill="#CCE4EA"/>
<path fill-rule="evenodd" clip-rule="evenodd" d="M150.426 583.033C151.558 582.399 154.239 583.176 152.268 584.482C149.333 586.428 147.474 591.371 147.128 592.371C146.782 593.371 144.449 592.489 142.573 591.31C140.697 590.131 139.231 588.868 138.832 587.599C138.66 587.049 142.806 589.785 145.226 587.746C147.646 585.707 148.15 584.309 150.426 583.033Z" fill="#E9F6FB"/>
<path fill-rule="evenodd" clip-rule="evenodd" d="M134.065 559.086C133.015 563.655 134.744 566.434 135.917 567.607C137.09 568.78 139.499 569.521 140.301 566.989C141.214 569.031 143.017 570.537 145.189 571.071C148.833 571.936 150.057 569.336 150.057 569.336L144.191 560.322L134.065 559.086Z" fill="#D65132"/>
<path fill-rule="evenodd" clip-rule="evenodd" d="M134.065 559.086C133.782 560.264 133.687 561.479 133.782 562.686C135.988 564.718 139.224 565.165 141.899 563.809C141.899 563.809 143.58 569.334 148.571 570.779C149.198 570.454 149.715 569.952 150.057 569.334L144.191 560.32L134.065 559.086Z" fill="#BA422B"/>
<path fill-rule="evenodd" clip-rule="evenodd" d="M174.012 524.057C181.941 524.057 191.658 529.641 193.892 538.357C196.126 547.073 195.455 554.328 196.572 559.357C197.272 562.498 197.791 566.341 196.344 569.688C196.078 570.305 195.773 570.905 195.43 571.483C193.06 575.483 188.58 578.341 182.279 579.824C175.029 581.357 167.492 580.781 160.558 578.165C151.958 574.591 146.202 570.637 142.516 561.032C138.394 549.818 142.449 537.238 152.344 530.542C163.402 523.051 174.012 524.057 174.012 524.057Z" fill="#F8C6A3"/>
<path fill-rule="evenodd" clip-rule="evenodd" d="M144.327 551.371C144.495 552.895 145.887 554.339 148.583 553.344C151.279 552.349 156.309 547.714 157.283 535.438L144.327 551.371Z" fill="#F2A37C"/>
<path fill-rule="evenodd" clip-rule="evenodd" d="M174.012 524.057C170.623 523.902 167.231 524.295 163.967 525.222C160.74 527.222 157.852 528.922 157.852 528.922C161.599 536.98 169.726 541.937 174.874 543.047C180.022 544.157 186.189 544.147 188.474 540.995C190.619 538.036 187.334 534.987 187.334 534.987C189.176 536.231 191.305 536.984 193.519 537.176C190.749 529.145 181.578 524.057 174.012 524.057Z" fill="#F2A37C"/>
<circle opacity="0.5" cx="158.529" cy="560.377" r="8.771" fill="#EE9681"/>
<path opacity="0.5" fill-rule="evenodd" clip-rule="evenodd" d="M188.495 560.615C188.495 565.146 191.949 568.931 196.462 569.346C197.739 566.078 197.247 562.388 196.572 559.346C196.128 556.913 195.86 554.45 195.772 551.978C191.568 552.703 188.496 556.349 188.495 560.615H188.495Z" fill="#EE9681"/>
<path fill-rule="evenodd" clip-rule="evenodd" d="M196.248 557.515C194.899 558.556 193.244 559.122 191.54 559.128C187.058 559.128 183.408 555.228 183.311 550.398C183.217 550.364 183.126 550.322 183.038 550.274C182.808 550.14 182.584 549.996 182.361 549.853C182.361 549.97 182.344 550.085 182.344 550.203C182.344 550.261 182.352 550.318 182.353 550.375C182.034 550.245 181.691 550.186 181.347 550.203C180.469 550.182 179.602 550.394 178.833 550.819C178.844 550.619 178.865 550.412 178.865 550.203V550.172C178.727 550.3 178.598 550.438 178.48 550.585C178.325 550.798 178.112 550.962 177.865 551.055C177.403 556.57 172.676 560.741 167.146 560.513C161.616 560.285 157.249 555.738 157.243 550.203C157.243 549.917 157.262 549.634 157.286 549.353C157.157 549.293 157.035 549.219 156.923 549.131L156.393 548.72C156.373 548.876 156.359 549.033 156.343 549.19L141.614 546.99L142.385 551.236L156.375 551.571C157.04 557.035 161.55 561.222 167.049 561.479C172.547 561.736 177.429 557.988 178.6 552.61C179.464 552.171 180.42 551.942 181.389 551.943C181.776 551.934 182.162 552 182.525 552.135C183.224 556.61 187.013 559.951 191.541 560.085C193.281 560.081 194.98 559.554 196.417 558.571L196.248 557.515Z" fill="#F2A37C"/>
<path fill-rule="evenodd" clip-rule="evenodd" d="M196.248 557.515C194.899 558.555 193.244 559.122 191.54 559.128C190.581 559.125 189.631 558.941 188.74 558.585C188.665 558.902 188.607 559.223 188.567 559.547C189.518 559.901 190.526 560.083 191.541 560.085C193.281 560.081 194.98 559.554 196.417 558.571L196.304 557.864C196.293 557.786 196.278 557.711 196.267 557.632L196.248 557.515Z" fill="#EB7C74"/>
<path opacity="0.3" fill-rule="evenodd" clip-rule="evenodd" d="M196.031 561.278C196.642 565.836 196.401 569.903 191.822 574.055C186.467 578.91 176.667 580.828 170.233 580.443C174.256 580.885 178.324 580.674 182.28 579.817C188.58 578.334 193.06 575.472 195.431 571.476C195.774 570.898 196.079 570.298 196.345 569.681C197.792 566.333 197.271 562.491 196.573 559.35C196.182 557.312 195.941 555.248 195.85 553.175L195.695 553.064C195.94 554.454 195.418 556.72 196.031 561.278Z" fill="white"/>
<path fill-rule="evenodd" clip-rule="evenodd" d="M167.223 561.475C167.264 561.158 167.287 560.839 167.292 560.52C162.277 560.378 158.089 556.655 157.36 551.691C157.045 551.734 156.733 551.793 156.425 551.869C157.234 557.257 161.777 561.299 167.223 561.475Z" fill="#EB7C74"/>
<path opacity="0.3" fill-rule="evenodd" clip-rule="evenodd" d="M157.473 552.907C157.473 553.907 156.202 554.707 154.635 554.707C153.068 554.707 151.797 553.9 151.797 552.907C151.797 551.914 153.068 551.107 154.635 551.107C156.202 551.107 157.473 551.912 157.473 552.907Z" fill="white"/>
<g style="mix-blend-mode:multiply" opacity="0.7">
<path fill-rule="evenodd" clip-rule="evenodd" d="M166.899 558.287C171.356 558.287 175.835 554.998 176.514 548.654C177.193 542.31 172.555 536.202 164.778 538.512C157.001 540.822 156.829 550.074 159.178 553.672C160.818 556.405 163.715 558.137 166.899 558.287Z" fill="url(#paint2_linear_213_2310)"/>
</g>
<g style="mix-blend-mode:multiply" opacity="0.7">
<path fill-rule="evenodd" clip-rule="evenodd" d="M193.91 538.448C192.104 537.868 190.16 537.876 188.359 538.471C181.219 540.586 181.064 549.082 183.221 552.383C184.725 554.893 187.386 556.483 190.309 556.619C192.387 556.614 194.39 555.843 195.936 554.454C195.603 550.03 195.48 544.602 193.91 538.448Z" fill="url(#paint3_linear_213_2310)"/>
</g>
<path fill-rule="evenodd" clip-rule="evenodd" d="M141.613 546.113C143.061 547.527 144.014 549.371 144.327 551.371C144.621 553.435 147.919 554.256 152.373 547.976C158.529 539.298 157.852 528.923 157.852 528.923C161.884 533.184 166.623 536.715 171.859 539.361C180.014 543.291 184.828 542.24 187.186 541.243C189.544 540.246 191.214 537.396 189.052 533.859C189.052 533.859 193.08 537.003 200.841 536.708C208.602 536.413 211.746 532.68 209.584 529.831C207.422 526.982 203.272 524.752 197.266 522.94C197.266 522.94 204.181 522.366 203.789 518.535C203.397 514.704 193.617 505.35 174.946 507.935C153.967 510.835 150.803 521.56 150.803 521.56C150.803 521.56 147.917 519.878 141.613 519.927C137.162 519.962 134.232 521.746 133.937 522.752C133.642 523.758 134.286 524.339 136.317 525.116C137.887 525.683 139.423 526.341 140.917 527.085C137.254 528.248 133.872 530.16 130.988 532.7C125.978 537.022 126.041 540.984 126.567 541.541C127.554 542.587 130.134 540.124 133.867 539.632C133.867 539.632 131.282 545.455 131.967 550.464C132.652 555.473 141.613 546.113 141.613 546.113Z" fill="#E26644"/>
<path fill-rule="evenodd" clip-rule="evenodd" d="M163.117 521.832C160.717 522.246 159.009 524.239 162.302 525.416C165.595 526.593 176.017 530.969 180.934 534.954C186.148 539.181 190.259 540.004 188.975 535.937C187.151 531.14 183.69 527.141 179.204 524.648C174.318 521.909 168.644 520.916 163.117 521.832H163.117Z" fill="#EE7249"/>
<path fill-rule="evenodd" clip-rule="evenodd" d="M184.033 542.061C178.587 541.715 168.348 537.086 158.362 524.974C158.223 524.807 157.991 524.751 157.791 524.837C157.592 524.923 157.473 525.13 157.5 525.346C157.624 526.301 157.764 527.562 157.852 528.924C161.885 533.185 166.623 536.716 171.859 539.363C177.337 542.002 181.301 542.387 184.033 542.061Z" fill="#D65132"/>
<path fill-rule="evenodd" clip-rule="evenodd" d="M163.478 510.811C152.724 515.059 150.803 521.559 150.803 521.559C150.803 521.559 147.917 519.877 141.613 519.926C137.162 519.96 134.232 521.745 133.937 522.751C133.642 523.757 134.286 524.338 136.317 525.115C137.887 525.682 139.422 526.34 140.917 527.084C137.253 528.247 133.872 530.159 130.988 532.699C125.978 537.021 126.041 540.983 126.567 541.54C127.554 542.586 130.134 540.123 133.867 539.631C133.867 539.631 131.282 545.454 131.967 550.463C132.652 555.472 141.608 546.113 141.608 546.113C142.44 546.951 143.12 547.927 143.618 548.998C144.151 548.018 144.546 547.053 144.181 546.498C142.299 543.625 141.603 539.376 143.381 533.978C144.373 530.417 146.887 527.477 150.251 525.944C151.591 525.298 153.064 524.977 154.551 525.007C154.714 525.011 154.868 524.93 154.957 524.792C155.017 524.639 155.008 524.468 154.934 524.322C154.37 522.592 154.357 520.73 154.898 518.993C155.856 516.119 157.89 513.653 163.478 510.811Z" fill="#D65132"/>
<path fill-rule="evenodd" clip-rule="evenodd" d="M143.771 549.339C144.039 549.991 144.225 550.674 144.327 551.371C144.489 552.508 145.606 553.287 147.294 552.701C146.77 552.861 146.199 552.721 145.809 552.336C145.64 552.024 145.573 551.666 145.617 551.314L149.417 551.405H149.423C149.979 550.929 150.494 550.408 150.962 549.846L147.572 549.608L143.771 549.339Z" fill="#D65132"/>
<path fill-rule="evenodd" clip-rule="evenodd" d="M200.841 536.708C205.922 536.516 209.009 534.847 209.941 532.919C205.686 536.419 195.75 533.841 191.541 531.862C189.363 530.783 187.247 529.581 185.205 528.262C186.839 529.861 188.146 531.763 189.052 533.862C189.052 533.862 193.08 537.003 200.841 536.708Z" fill="#D65132"/>
<path fill-rule="evenodd" clip-rule="evenodd" d="M203.788 518.534C203.604 517.535 203.14 516.609 202.451 515.863C204.724 519.163 200.726 520.081 197.94 520.639C195.154 521.197 187.692 521.615 187.692 521.615C187.692 521.615 195.011 522.522 197.266 522.939C197.266 522.939 204.181 522.366 203.788 518.534Z" fill="#D65132"/>
<path fill-rule="evenodd" clip-rule="evenodd" d="M138.246 523.397C135.472 522.687 135.484 521.338 136.815 520.738C135.135 521.349 134.105 522.176 133.936 522.751C133.641 523.758 134.285 524.338 136.316 525.115C137.886 525.682 139.422 526.34 140.916 527.084C142.292 526.679 143.702 526.397 145.129 526.241C142.923 525.092 140.62 524.14 138.246 523.397Z" fill="#BA422B"/>
<path fill-rule="evenodd" clip-rule="evenodd" d="M129.982 538.44C127.682 539.566 126.351 540.193 126.537 539.085C126.221 539.875 126.233 540.758 126.568 541.539C127.555 542.585 130.135 540.122 133.868 539.63C134.398 538.231 135.142 536.923 136.073 535.752C133.994 536.533 131.96 537.431 129.982 538.44H129.982Z" fill="#BA422B"/>
<path fill-rule="evenodd" clip-rule="evenodd" d="M189.342 509.63C181.834 507.494 166.192 508.7 159.602 514.795C157.45 516.785 163.157 515.516 170.374 515.622C177.161 515.841 183.916 516.639 190.566 518.01C197.8 519.61 202.593 519.17 202.089 517.32C201.585 515.47 196.632 511.7 189.342 509.63Z" fill="#EE7249"/>
<path fill-rule="evenodd" clip-rule="evenodd" d="M209.43 532.152C210.038 530.619 206.857 527.297 202.125 525.463C197.393 523.629 190.566 522.363 189.042 522.94C187.35 523.584 192.535 530.682 200.198 532.964C206.843 534.942 208.913 533.448 209.43 532.152Z" fill="#EE7249"/>
<path fill-rule="evenodd" clip-rule="evenodd" d="M156.01 528.752C155.01 527.396 151.264 528.906 149.004 532.775C146.117 537.717 147.204 545.403 149.226 546.112C151.248 546.821 154.135 542.043 155.184 538.012C156.233 533.981 156.887 529.942 156.01 528.752Z" fill="#EE7249"/>
<path fill-rule="evenodd" clip-rule="evenodd" d="M137.583 521.192C136.561 521.509 137.311 522.714 139.069 522.747C140.844 522.781 147.602 522.401 147.513 521.767C147.424 521.133 142.032 519.809 137.583 521.192Z" fill="#E26644"/>
<path fill-rule="evenodd" clip-rule="evenodd" d="M127.68 538.44C127.938 538.752 129.339 538.263 130.648 536.978C131.957 535.693 135.753 531.335 136.075 530.778C136.397 530.221 133.394 531.256 130.648 533.861C127.902 536.466 127.404 538.107 127.68 538.44Z" fill="#E26644"/>
<path fill-rule="evenodd" clip-rule="evenodd" d="M195.677 524.313C198.508 525.013 205.101 526.278 208.9 530.951C207.192 529.477 205.262 528.284 203.18 527.414C200.737 526.245 198.232 525.21 195.677 524.313H195.677Z" fill="#F49A6E"/>
<path fill-rule="evenodd" clip-rule="evenodd" d="M168.639 510.811C171.955 509.484 184.662 508.79 190.763 510.811C197.973 513.198 200.363 516.281 200.363 516.281C196.353 514.348 192.087 513.001 187.694 512.281C189.916 512.371 192.125 512.661 194.294 513.148C194.294 513.148 190.194 510.548 182.008 510.148C177.541 509.862 173.056 510.084 168.639 510.811H168.639Z" fill="#F49A6E"/>
<path fill-rule="evenodd" clip-rule="evenodd" d="M178.232 524.795C182.169 526.303 187.063 531.59 188.291 535.232C186.997 533.14 185.471 531.201 183.742 529.452C182.025 527.763 180.183 526.207 178.232 524.795V524.795Z" fill="#F49A6E"/>
<path fill-rule="evenodd" clip-rule="evenodd" d="M155.657 530.408C155.709 532.316 154.921 540.138 150.802 545.071C150.358 543.218 150.358 541.285 150.802 539.432C150.869 540.611 151.026 541.784 151.273 542.939C151.273 542.939 154.162 539.33 155.657 530.408Z" fill="#F49A6E"/>
<g style="mix-blend-mode:multiply" opacity="0.5">
<path fill-rule="evenodd" clip-rule="evenodd" d="M170.319 537.427C170.189 536.209 167.606 535.037 163.925 537.104C160.244 539.171 158.951 542.404 159.21 543.369C159.469 544.334 162.81 542.929 165.152 542.013C169.092 540.469 170.705 541.044 170.319 537.427Z" fill="#F2A37C"/>
</g>
<g style="mix-blend-mode:multiply" opacity="0.5">
<path fill-rule="evenodd" clip-rule="evenodd" d="M195.008 544.012C194.844 542.883 194.642 541.723 194.392 540.532C193.562 539.358 192.469 538.393 191.201 537.713C187.519 535.645 186.139 537.435 186.123 538.661C186.087 541.432 188.523 541.823 190.823 542.613C192.734 543.268 194.319 544.176 195.008 544.012Z" fill="#F2A37C"/>
</g>
<path fill-rule="evenodd" clip-rule="evenodd" d="M170.762 535.974C170.595 534.48 167.605 533.707 163.923 535.774C160.241 537.841 158.949 541.074 159.208 542.04C159.467 543.006 162.808 541.599 165.15 540.683C169.092 539.14 171.109 539.082 170.762 535.974Z" fill="#D65132"/>
<path fill-rule="evenodd" clip-rule="evenodd" d="M166.548 538.44C163.148 539.546 161.248 540.003 161.406 538.764C161.564 537.525 163.395 536.053 163.923 535.774C160.241 537.842 158.949 541.074 159.208 542.04C159.467 543.006 162.808 541.599 165.15 540.683C169.092 539.14 171.109 539.083 170.762 535.974C170.587 536.762 169.95 537.334 166.548 538.44Z" fill="#BA422B"/>
<path fill-rule="evenodd" clip-rule="evenodd" d="M186.128 537.33C186.143 536.104 187.528 534.315 191.206 536.382C194.884 538.449 195.62 541.397 195.361 542.366C195.102 543.335 193.204 542.097 190.827 541.282C188.519 540.493 186.087 540.102 186.128 537.33Z" fill="#D65132"/>
<path fill-rule="evenodd" clip-rule="evenodd" d="M193.946 541.265C192.918 540.644 190.091 539.565 188.363 538.472C186.655 537.39 187.155 535.734 188.52 535.453C187.946 535.339 187.35 535.48 186.889 535.841C186.428 536.202 186.147 536.746 186.12 537.331C186.084 540.102 188.52 540.494 190.82 541.283C193.197 542.098 195.095 543.335 195.354 542.367C195.448 541.695 195.34 541.01 195.044 540.399C195.343 541.025 194.972 541.885 193.946 541.265Z" fill="#BA422B"/>
<path fill-rule="evenodd" clip-rule="evenodd" d="M191.54 559.208C186.469 559.208 182.34 554.774 182.34 549.324C182.34 543.874 186.465 539.44 191.54 539.44C196.615 539.44 200.74 543.874 200.74 549.324C200.74 554.774 196.611 559.208 191.54 559.208ZM191.54 540.398C186.998 540.398 183.301 544.398 183.301 549.324C183.301 554.25 187.001 558.25 191.54 558.25C196.079 558.25 199.779 554.25 199.779 549.324C199.779 544.398 196.083 540.398 191.54 540.398Z" fill="#19313A"/>
<ellipse cx="166.899" cy="551.169" rx="7.11961" ry="7.1196" fill="white"/>
<path opacity="0.2" fill-rule="evenodd" clip-rule="evenodd" d="M164.002 555.48C161.47 552.786 161.102 548.712 163.11 545.607L162.858 545.307C160.383 547.017 159.25 550.1 160.03 553.006C160.81 555.912 163.334 558.014 166.333 558.255C169.332 558.496 172.159 556.824 173.393 554.08C171.378 556.753 166.166 557.444 164.002 555.48Z" fill="#BAC4CA"/>
<path fill-rule="evenodd" clip-rule="evenodd" d="M159.877 552.337C159.877 552.337 160.107 547.293 164.162 545.631C168.728 543.76 172.662 546.211 173.471 548.45C173.551 547.815 173.39 547.172 173.02 546.65C171.848 544.85 168.963 542.631 164.397 544.156C160.892 545.17 158.87 548.83 159.877 552.337Z" fill="#19313A"/>
<path fill-rule="evenodd" clip-rule="evenodd" d="M174.017 551.169C174.018 550.475 173.917 549.784 173.717 549.12C173.396 548.031 172.552 547.175 171.467 546.84C170.099 546.394 168.598 546.698 167.511 547.64C165.397 549.666 164.911 552.862 166.327 555.425C166.836 556.16 167.553 556.725 168.386 557.049C169.611 557.476 170.972 557.162 171.886 556.242C173.251 554.907 174.02 553.078 174.017 551.169Z" fill="#19313A"/>
<path fill-rule="evenodd" clip-rule="evenodd" d="M167.542 556.603C167.805 556.784 168.087 556.934 168.384 557.05C169.609 557.477 170.97 557.163 171.884 556.243C172.513 555.623 173.022 554.892 173.384 554.086C171.903 555.746 169.765 556.667 167.542 556.603Z" fill="#002030"/>
<path fill-rule="evenodd" clip-rule="evenodd" d="M172.642 547.976C172.185 547.508 171.499 547.348 170.882 547.564C170.265 547.781 169.83 548.336 169.766 548.986C169.498 550.857 170.771 552.908 172.321 552.908C173.345 552.908 173.821 551.934 173.681 550.475C173.651 549.543 173.282 548.654 172.642 547.976Z" fill="white"/>
<path fill-rule="evenodd" clip-rule="evenodd" d="M183.168 550.492C183.132 550.195 182.985 549.922 182.758 549.727C182.352 549.427 181.85 549.284 181.347 549.327C180.415 549.299 179.495 549.538 178.694 550.015C178.355 550.217 178.125 550.562 178.069 550.953L177.894 552.165C178.914 551.439 180.137 551.054 181.389 551.065C183.046 551.065 183.397 551.978 183.397 551.978L183.168 550.492Z" fill="#19313A"/>
<path fill-rule="evenodd" clip-rule="evenodd" d="M181.347 549.324C180.415 549.296 179.495 549.534 178.694 550.012C178.355 550.214 178.125 550.559 178.069 550.95L177.894 552.162C178.914 551.436 180.137 551.051 181.389 551.062C183.046 551.062 183.397 551.975 183.397 551.975C182.807 550.152 180.091 550.808 179.983 550.357C179.875 549.906 180.316 549.412 181.347 549.324Z" fill="#002030"/>
<path fill-rule="evenodd" clip-rule="evenodd" d="M157.03 548.413L141.613 546.113L142.384 550.359L156.762 550.703C156.762 550.703 156.987 549.344 157.03 548.413Z" fill="#19313A"/>
<path fill-rule="evenodd" clip-rule="evenodd" d="M156.839 550.201L145.089 548.612C144.948 547.849 144.641 547.127 144.189 546.496L141.616 546.113L142.387 550.359L156.765 550.703C156.765 550.703 156.796 550.501 156.839 550.201Z" fill="#002030"/>
<path fill-rule="evenodd" clip-rule="evenodd" d="M180.195 553.473C179.432 553.834 178.711 556.33 179.363 558.473C179.827 560.125 181.332 561.268 183.048 561.273C184.802 561.333 185.756 560.313 185.711 559.024C185.673 557.897 184.32 557.876 183.048 556.324C181.87 554.895 181.621 552.798 180.195 553.473Z" fill="#EE9681"/>
<path fill-rule="evenodd" clip-rule="evenodd" d="M182.582 560.135C180.316 559.717 179.135 557.052 179.222 555.483C179.037 556.477 179.085 557.5 179.363 558.471C179.827 560.123 181.332 561.266 183.048 561.271C184.802 561.33 185.756 560.311 185.711 559.022C185.414 559.905 184.456 560.481 182.582 560.135Z" fill="#EB7C74"/>
<path fill-rule="evenodd" clip-rule="evenodd" d="M184.737 558.977C184.69 558.976 184.644 558.971 184.598 558.963C184.457 558.938 184.321 558.887 184.198 558.813C183.862 558.61 183.61 558.294 183.487 557.922C183.436 557.78 183.3 557.331 183.608 557.408C183.672 557.429 183.731 557.463 183.781 557.508C183.926 557.624 184.081 557.728 184.222 557.838C184.483 558.038 184.813 558.151 185.059 558.355C185.15 558.424 185.205 558.532 185.207 558.646C185.193 558.777 185.105 558.89 184.982 558.936C184.904 558.967 184.821 558.981 184.737 558.977Z" fill="#F8C6A3"/>
<path fill-rule="evenodd" clip-rule="evenodd" d="M167.574 560.615C161.338 560.615 156.283 555.56 156.283 549.324C156.283 543.088 161.338 538.033 167.574 538.033C173.81 538.033 178.865 543.088 178.865 549.324C178.859 555.559 173.806 560.611 167.573 560.615H167.574ZM167.574 538.99C163.394 538.99 159.626 541.507 158.026 545.369C156.426 549.23 157.31 553.675 160.265 556.631C163.221 559.587 167.666 560.471 171.527 558.872C175.389 557.272 177.907 553.504 177.907 549.324C177.901 543.619 173.278 538.996 167.573 538.99H167.574Z" fill="#19313A"/>
<path fill-rule="evenodd" clip-rule="evenodd" d="M177.1 567.494C174.281 567.106 171.563 566.182 169.092 564.771C166.718 563.517 164.902 563.335 164.482 565.171C163.873 567.82 166.47 574.571 175.182 575.88C180.758 576.718 184.808 575.092 187.063 573.263C188.206 572.375 189.062 571.169 189.524 569.797C190.024 568.197 189.396 566.284 185.467 567.043C182.717 567.621 179.896 567.773 177.1 567.494Z" fill="#C9434D"/>
<path fill-rule="evenodd" clip-rule="evenodd" d="M175.9 567.329C173.518 566.813 171.224 565.951 169.092 564.771C166.718 563.517 164.902 563.335 164.482 565.171C163.989 567.317 165.602 572.155 170.868 574.611C173.888 573.526 175.904 570.663 175.906 567.453C175.906 567.409 175.9 567.37 175.9 567.329Z" fill="#7C1423"/>
<path fill-rule="evenodd" clip-rule="evenodd" d="M184.033 567.293C181.74 567.656 179.411 567.723 177.102 567.493C174.532 567.157 172.047 566.351 169.769 565.115H169.769C169.82 566.081 170.06 567.028 170.476 567.902C171.14 568.883 174.319 570.102 176.112 570.357C179.612 570.857 182.363 569.964 182.667 569.626C183.184 568.886 183.641 568.106 184.033 567.293Z" fill="white"/>
<path opacity="0.2" fill-rule="evenodd" clip-rule="evenodd" d="M174.84 567.814C177.768 568.509 180.816 568.519 183.749 567.845C183.916 567.527 184.033 567.293 184.033 567.293C181.74 567.656 179.411 567.723 177.102 567.493C174.532 567.157 172.047 566.351 169.769 565.115H169.769C169.82 566.081 170.06 567.028 170.476 567.902C170.934 568.579 172.591 569.368 174.162 569.877C172.898 569.432 171.868 568.494 171.306 567.277C171.152 566.55 172.034 567.092 174.84 567.814Z" fill="#BAC4CA"/>
<path fill-rule="evenodd" clip-rule="evenodd" d="M180.727 575.908C179.974 574.279 175.51 570.108 166.527 571.246C168.716 573.841 171.816 575.497 175.19 575.875C177.023 576.165 178.89 576.176 180.727 575.908Z" fill="#EC6469"/>
<path fill-rule="evenodd" clip-rule="evenodd" d="M179.46 576.052C179.452 576.052 174.408 575.741 171.991 574.132C169.591 572.532 170.157 571.091 172.253 571.246C170.352 570.99 168.425 570.99 166.524 571.246C168.713 573.841 171.813 575.497 175.187 575.875C176.6 576.094 178.034 576.153 179.46 576.052Z" fill="#DB545B"/>
<path opacity="0.2" fill-rule="evenodd" clip-rule="evenodd" d="M176.623 572.975C175.305 572.237 173.832 571.816 172.323 571.748C170.238 571.959 174.414 573.634 176.23 574.294C178.558 575.141 178.83 574.12 176.623 572.975Z" fill="white"/>
<path opacity="0.2" fill-rule="evenodd" clip-rule="evenodd" d="M179.341 574.775C178.988 574.537 178.517 574.548 178.517 574.836C178.517 575.05 178.789 575.406 179.341 575.577C179.893 575.748 179.91 575.157 179.341 574.775Z" fill="white"/>
<path fill-rule="evenodd" clip-rule="evenodd" d="M194.767 554.607C196.32 552.907 196.206 547.136 194.014 545.433C191.356 543.398 187.563 543.836 185.44 546.425C183.317 549.013 183.63 552.819 186.146 555.027C188.663 557.234 192.477 557.049 194.767 554.607Z" fill="white"/>
<path opacity="0.2" fill-rule="evenodd" clip-rule="evenodd" d="M194.767 554.607C195.271 553.945 195.586 553.157 195.677 552.33C194.377 554.851 191.277 556.286 188.566 554.483C185.209 552.248 185.641 547.071 186.995 545.083C184.948 546.351 183.82 548.689 184.102 551.08C184.384 553.471 186.025 555.483 188.311 556.24C190.597 556.997 193.114 556.362 194.767 554.611V554.607Z" fill="#BAC4CA"/>
<path fill-rule="evenodd" clip-rule="evenodd" d="M184.178 551.654C184.178 551.654 183.992 547.002 187.732 545.469C189.742 544.577 192.051 544.66 193.991 545.694C194.474 545.975 194.86 546.397 195.097 546.904C195.046 546.032 194.618 545.226 193.925 544.695C192.62 543.717 190.702 543.159 187.949 544.104C182.426 546.007 184.178 551.654 184.178 551.654Z" fill="#19313A"/>
<path fill-rule="evenodd" clip-rule="evenodd" d="M194.146 546.568C192.976 546.22 191.708 546.489 190.78 547.282C188.936 549.05 188.513 551.837 189.749 554.072C190.565 555.303 192.041 555.923 193.492 555.645C194.623 555.222 195.455 554.246 195.692 553.062C196.238 551.309 196.136 549.417 195.403 547.733C195.167 547.185 194.711 546.762 194.146 546.568Z" fill="#19313A"/>
<path fill-rule="evenodd" clip-rule="evenodd" d="M195.693 553.063C195.828 552.609 195.921 552.143 195.971 551.672C195.253 553.77 193.314 555.207 191.098 555.282C191.828 555.681 192.675 555.81 193.491 555.646C194.622 555.224 195.455 554.247 195.693 553.063Z" fill="#002030"/>
<path fill-rule="evenodd" clip-rule="evenodd" d="M194.76 547.376C194.361 546.966 193.759 546.825 193.22 547.015C192.68 547.205 192.299 547.691 192.244 548.261C192.009 549.898 193.124 551.691 194.479 551.691C195.379 551.691 195.793 550.84 195.668 549.562C195.642 548.747 195.32 547.969 194.76 547.376Z" fill="white"/>
<path fill-rule="evenodd" clip-rule="evenodd" d="M141.611 546.114C139.697 544.953 135.011 544.154 131.949 547.155C128.887 550.156 129.109 558.407 134.67 561.188C137.723 562.865 141.489 562.522 144.189 560.322C144.877 554.491 144.902 548.263 141.611 546.114Z" fill="#F8C6A3"/>
<path fill-rule="evenodd" clip-rule="evenodd" d="M135.511 555.842C135.511 554.734 136.178 553.736 137.201 553.312C138.224 552.889 139.401 553.123 140.184 553.906C140.967 554.69 141.2 555.867 140.776 556.89C140.352 557.913 139.353 558.579 138.246 558.578C136.736 558.577 135.512 557.353 135.511 555.842Z" fill="#DD8964"/>
<path fill-rule="evenodd" clip-rule="evenodd" d="M138.247 558.573C140.83 558.553 142.812 555.727 142.393 552.332C141.899 548.332 138.639 547.627 136.628 547.739C134.523 547.824 132.829 549.498 132.719 551.602C133.498 549.869 135.461 549.006 137.265 549.602C140.616 550.496 139.533 555.502 138.415 555.839C137.297 556.176 138.247 558.573 138.247 558.573Z" fill="#DD8964"/>
<path fill-rule="evenodd" clip-rule="evenodd" d="M138.054 545.738C136.095 545.4 134.088 545.979 132.61 547.309C130.64 548.968 130.21 551.574 130.531 553.971C130.539 554.028 130.68 554.12 130.691 554.043C131.04 551.45 131.576 548.807 133.936 547.243C135.192 546.451 136.618 545.966 138.096 545.829C138.157 545.817 138.081 545.744 138.054 545.738Z" fill="#FDDEBC"/>
<path fill-rule="evenodd" clip-rule="evenodd" d="M145.147 561.201C144.781 560.238 144.373 558.578 144.373 558.578C143.509 559.361 142.504 559.972 141.411 560.378C138.434 561.475 135.118 561.139 132.421 559.468C133.059 560.174 133.822 560.757 134.671 561.187C137.145 562.533 140.121 562.587 142.642 561.33C146.332 570.707 152.053 574.623 160.558 578.158C162.776 579.047 165.086 579.687 167.445 580.067C157.176 578.212 148.677 571.021 145.147 561.201Z" fill="#F2A37C"/>
<path fill-rule="evenodd" clip-rule="evenodd" d="M173.626 577.026C172.033 576.623 170.506 575.994 169.092 575.157C169.092 575.157 170.047 577.057 173.471 577.843C177.293 578.721 179.226 577.496 179.226 577.496C177.346 577.615 175.459 577.457 173.626 577.026Z" fill="#F2A37C"/>
<path fill-rule="evenodd" clip-rule="evenodd" d="M101.545 640.389C101.489 644.14 100.199 654.223 107.938 662.079C115.677 669.935 130.571 666.886 133.559 666.179C135.818 665.755 138.125 665.636 140.416 665.827C142.01 665.795 146.161 664.772 146.865 661.607C146.865 661.607 142.409 663.951 139.126 658.792C135.529 652.717 135.631 645.142 139.39 639.166C142.874 633.816 150.335 632.657 152.373 632.412C152.373 632.412 151.867 629.984 148.537 629.563C146.72 629.332 142.037 631.509 135.612 633.375C125.999 636.171 113.543 640.607 101.545 640.389Z" fill="#4477BB"/>
<path fill-rule="evenodd" clip-rule="evenodd" d="M140.967 631.975C137.515 633.461 133.494 639.268 132.574 644.575C133.866 640.946 135.943 637.647 138.658 634.914C140.587 632.968 144.099 631.322 144.486 630.995C144.897 630.651 143.277 630.98 140.967 631.975Z" fill="#71ABDE"/>
<path fill-rule="evenodd" clip-rule="evenodd" d="M133.56 666.183C135.82 665.759 138.126 665.64 140.417 665.831C142.011 665.799 146.162 664.776 146.866 661.611C144.726 662.603 142.195 662.16 140.519 660.5L138.836 661.278C138.836 661.278 137.649 663.723 134.943 660.694C131.237 656.544 131.956 647.556 131.956 647.556C130.105 658.249 134.723 662.522 134.14 662.831C133.557 663.14 123.321 665.77 116.23 661.362C109.139 656.954 110.775 643.783 114.64 642.062C118.56 640.319 123.04 638.9 129.807 635.118C121.251 637.698 111.25 640.565 101.546 640.389C101.49 644.14 100.2 654.223 107.939 662.079C115.678 669.935 130.573 666.886 133.56 666.183Z" fill="#3E65AE"/>
<path fill-rule="evenodd" clip-rule="evenodd" d="M141.693 634.639C144.608 633.556 147.657 632.875 150.756 632.614C149.585 631.228 145.924 631.771 141.693 634.639Z" fill="#295296"/>
<path fill-rule="evenodd" clip-rule="evenodd" d="M152.374 632.416C155.28 631.977 166.421 631.524 172.274 634.872C178.407 638.383 179.182 642.972 178.704 647.988C178.226 653.004 146.869 661.611 146.869 661.611C146.869 661.611 145.86 663.728 142.169 662.978C138.478 662.228 135.819 658.813 134.999 651.848C134.179 644.883 137.457 637.509 141.691 634.641C144.402 632.976 147.592 632.263 150.754 632.616L152.374 632.416Z" fill="#F8C6A3"/>
<path fill-rule="evenodd" clip-rule="evenodd" d="M156.269 646.635C156.269 646.635 152.208 647.554 146.141 652.725C141.17 656.962 138.485 657.747 136.709 652.972C134.933 648.197 136.546 640.701 139.498 636.625C136.031 640.897 134.411 646.376 134.998 651.847C135.818 658.812 138.481 662.226 142.168 662.977C145.855 663.728 146.868 661.61 146.868 661.61C146.868 661.61 150.721 650.343 156.269 646.635Z" fill="#F2A37C"/>
<path fill-rule="evenodd" clip-rule="evenodd" d="M146.865 661.611C145.348 662.223 143.773 662.681 142.165 662.978C145.856 663.728 146.865 661.611 146.865 661.611Z" fill="#295296"/>
<path fill-rule="evenodd" clip-rule="evenodd" d="M178.7 647.985C178.242 654.412 171.462 678.351 169.98 684.528C168.688 689.913 167.88 693.172 167.88 693.172C159.628 699.704 151.438 703.123 143.313 703.256C143.313 703.256 143.713 689.891 143.713 682.371C143.713 674.851 143.977 668.322 146.55 660.803C147.331 658.519 151.085 649.856 156.272 646.632C163.183 642.339 169.999 646.41 178.7 647.985Z" fill="#F8C6A3"/>
<path fill-rule="evenodd" clip-rule="evenodd" d="M156.558 682.827C150.569 683.632 149.017 682.827 147.746 676.396C146.475 669.965 148.027 657.34 149.906 653.828C148.571 656.044 147.446 658.381 146.547 660.807C143.975 668.326 143.71 674.856 143.71 682.375C143.71 686.433 143.595 692.19 143.489 696.634L149.089 695.856L167.595 691.174C167.595 691.174 168.033 690.798 168.609 690.224C168.96 688.783 169.427 686.857 169.984 684.532C170.022 684.372 170.067 684.189 170.112 684.001C167.349 682.537 162.003 682.095 156.558 682.827Z" fill="#F2A37C"/>
<path fill-rule="evenodd" clip-rule="evenodd" d="M173.001 650.876C171.388 650.386 169.934 649.478 168.786 648.244C167.586 646.858 167.072 645.029 166.407 645.397C165.078 646.134 165.742 651.457 168.477 653.249C170.178 654.541 172.456 654.781 174.388 653.871C175.349 653.385 176.53 651.836 173.001 650.876Z" fill="#F2A37C"/>
<path opacity="0.3" fill-rule="evenodd" clip-rule="evenodd" d="M178.7 647.988C179.178 642.969 178.4 638.382 172.27 634.872C168.992 632.996 164.053 632.314 159.833 632.154C164.481 632.554 174.54 635.536 176.7 642.119C177.249 643.788 177.2 646.558 176.769 650.776C175.759 660.705 172.602 674.476 172.599 674.487C175.111 664.99 178.386 652.387 178.7 647.988Z" fill="white"/>
<path fill-rule="evenodd" clip-rule="evenodd" d="M167.886 693.174C168.314 691.39 168.968 689.668 169.834 688.051C170.353 687.36 170.353 686.151 167.155 685.459C163.957 684.767 155.397 685.199 149.09 687.274C142.783 689.349 141.572 691.596 141.918 692.546C142.264 693.496 143.771 699.193 143.318 703.259C151.421 703.156 159.613 699.684 167.886 693.174Z" fill="#EFF8FC"/>
<path fill-rule="evenodd" clip-rule="evenodd" d="M169.268 689.124V689.117C169.268 689.117 162.931 687.681 154.013 689.953C144.852 692.286 142.561 694.985 142.561 694.985C142.761 695.894 142.971 696.971 143.129 698.113C144.252 697.222 147.265 695.313 154.013 693.591C158.586 692.376 163.345 692.025 168.046 692.556C168.38 691.387 168.788 690.241 169.268 689.124V689.124Z" fill="#4477BB"/>
<g style="mix-blend-mode:multiply" opacity="0.2">
<path fill-rule="evenodd" clip-rule="evenodd" d="M154.331 701.091C153.7 700.842 152.996 700.855 152.374 701.126C148.48 702.418 147.611 699.484 147.593 697.5C147.627 695.411 147.335 693.328 146.727 691.329C146.41 690.627 146.395 689.825 146.685 689.112C146.976 688.398 147.547 687.835 148.265 687.555C142.671 689.548 141.582 691.638 141.913 692.546C142.259 693.497 143.766 699.193 143.313 703.259C147.084 703.184 150.813 702.45 154.331 701.091Z" fill="#242357"/>
</g>
<path fill-rule="evenodd" clip-rule="evenodd" d="M150.639 700.046C148.839 701.32 144.7 701.446 143.232 698.923C143.232 698.923 142.573 699.317 141.86 701.377C141.147 703.437 140.293 708.289 141.86 710.905C144.867 709.371 148.057 708.226 151.353 707.497C156.584 706.388 163.797 702.504 166.253 700.84C168.709 699.176 179.014 693.23 186.701 696.956C186.701 696.956 184.086 692.835 177.033 692.914C169.98 692.993 167.882 693.176 167.882 693.176C167.882 693.176 158.556 693.541 154.206 695.53C151.432 696.796 152.541 698.698 150.639 700.046Z" fill="#4477BB"/>
<g style="mix-blend-mode:multiply" opacity="0.2">
<path fill-rule="evenodd" clip-rule="evenodd" d="M166.252 700.838C168.102 699.627 170.063 698.595 172.11 697.758C171.638 695.621 170.916 693.507 169.871 693.071C169.514 693.084 169.21 693.098 168.958 693.11H168.947C165.988 694.561 165.797 698.838 165.797 698.838C164.137 699.1 158.797 702.399 156.844 703.255C153.017 704.93 150.868 704.699 149.966 704.047C148.697 703.131 148.779 700.787 148.779 700.787C146.807 701.187 144.304 700.766 143.229 698.92C143.229 698.92 142.57 699.314 141.857 701.374C141.144 703.434 140.29 708.286 141.857 710.902C144.864 709.368 148.054 708.223 151.35 707.494C156.583 706.386 163.795 702.502 166.252 700.838Z" fill="#242357"/>
</g>
<path fill-rule="evenodd" clip-rule="evenodd" d="M186.692 696.945C179.414 693.43 169.799 698.563 166.715 700.536C166.859 700.436 165.623 696.246 168.946 693.114C172.269 689.982 184.792 690.222 186.692 696.945Z" fill="#EFF8FC"/>
<path fill-rule="evenodd" clip-rule="evenodd" d="M186.692 696.942C183.592 691.273 174.779 693.442 172.454 694.355C170.129 695.268 167.091 695.955 167.487 695.016C166.695 696.74 166.427 698.658 166.715 700.533C169.801 698.563 179.416 693.43 186.692 696.942Z" fill="#A9CBD3"/>
<path fill-rule="evenodd" clip-rule="evenodd" d="M186.694 696.946C185.441 695.535 183.699 694.654 181.821 694.48C177.155 694.015 172.475 695.211 168.604 697.857C164.716 700.399 160.604 702.582 156.32 704.378C152.303 706.124 143.92 706.765 141.376 709.95C141.376 709.95 140.696 711.073 140.89 714.077C140.84 716.641 142.485 718.932 144.931 719.704C147.705 720.813 155.79 721.367 165.855 718.04C175.92 714.713 182.555 714.229 186.699 708.291C190.302 703.126 188.031 698.498 186.694 696.946Z" fill="#DEF1F8"/>
<mask id="mask1_213_2310" style="mask-type:luminance" maskUnits="userSpaceOnUse" x="140" y="694" width="49" height="27">
<path fill-rule="evenodd" clip-rule="evenodd" d="M186.694 696.946C185.441 695.535 183.699 694.654 181.821 694.48C177.155 694.015 172.475 695.211 168.604 697.857C164.716 700.399 160.604 702.582 156.32 704.378C152.303 706.124 143.92 706.765 141.376 709.95C141.376 709.95 140.696 711.073 140.89 714.077C140.84 716.641 142.485 718.932 144.931 719.704C147.705 720.813 155.79 721.367 165.855 718.04C175.92 714.713 182.555 714.229 186.699 708.291C190.302 703.126 188.031 698.498 186.694 696.946Z" fill="white"/>
</mask>
<g mask="url(#mask1_213_2310)">
<path d="M189.602 700.537C187.881 697.155 182.402 694.359 174.783 696.792C167.006 699.275 165.647 702.605 157.364 705.737C149.081 708.869 141.906 707.875 139.736 714.937" stroke="#4477BB"/>
</g>
<path fill-rule="evenodd" clip-rule="evenodd" d="M181.589 697.506C176.19 697.428 170.919 699.149 166.607 702.397C162.835 705.132 158.6 707.165 154.107 708.397C150.198 709.519 148.078 709.386 144.236 711.14C142.202 711.885 140.961 713.946 141.254 716.092C141.831 717.815 143.198 719.159 144.931 719.706C147.705 720.815 155.79 721.369 165.855 718.042C175.92 714.715 182.555 714.231 186.699 708.293C188.316 706.145 188.954 703.414 188.454 700.771C187.638 699.129 186.526 697.622 181.589 697.506Z" fill="#E8914F"/>
<path fill-rule="evenodd" clip-rule="evenodd" d="M151.279 719.124C149.312 719.221 147.343 718.965 145.467 718.367C144.169 717.984 143.127 717.013 142.655 715.745C142.547 714.278 143.441 712.923 144.833 712.445C146.683 711.614 148.632 711.024 150.633 710.688C151.747 710.462 153.009 710.205 154.5 709.777C159.158 708.504 163.547 706.397 167.453 703.558C171.374 700.602 176.142 698.983 181.053 698.939C181.217 698.939 181.382 698.939 181.546 698.945C185.746 699.045 186.532 700.175 187.075 701.234C187.426 703.438 186.863 705.691 185.515 707.47C182.624 711.615 178.359 712.843 171.903 714.703C169.959 715.262 167.755 715.897 165.403 716.677C160.854 718.237 156.085 719.064 151.277 719.128L151.279 719.124Z" fill="#D1783B"/>
<mask id="mask2_213_2310" style="mask-type:luminance" maskUnits="userSpaceOnUse" x="142" y="698" width="46" height="22">
<path fill-rule="evenodd" clip-rule="evenodd" d="M151.279 719.124C149.312 719.221 147.343 718.965 145.467 718.367C144.169 717.984 143.127 717.013 142.655 715.745C142.547 714.278 143.441 712.923 144.833 712.445C146.683 711.614 148.632 711.024 150.632 710.688C151.747 710.462 153.009 710.205 154.5 709.777C159.158 708.504 163.547 706.397 167.453 703.558C171.374 700.602 176.141 698.983 181.052 698.939C181.216 698.939 181.381 698.939 181.546 698.945C185.745 699.045 186.531 700.175 187.075 701.234C187.426 703.438 186.863 705.691 185.515 707.47C182.624 711.615 178.359 712.843 171.902 714.703C169.958 715.262 167.755 715.897 165.402 716.677C160.853 718.237 156.085 719.064 151.276 719.128L151.279 719.124Z" fill="white"/>
</mask>
<g mask="url(#mask2_213_2310)">
<path fill-rule="evenodd" clip-rule="evenodd" d="M183.832 711.132L185.409 699.165L186.359 699.29L184.781 711.257L183.832 711.132Z" fill="#C66D32"/>
<path fill-rule="evenodd" clip-rule="evenodd" d="M179.764 713.49L181.76 698.344L182.71 698.469L180.713 713.615L179.764 713.49Z" fill="#C66D32"/>
<path fill-rule="evenodd" clip-rule="evenodd" d="M175.844 714.853L177.878 699.192L178.828 699.315L176.794 714.977L175.844 714.853Z" fill="#C66D32"/>
<path fill-rule="evenodd" clip-rule="evenodd" d="M171.904 716.035L174.129 699.688L175.077 699.817L172.852 716.164L171.904 716.035Z" fill="#C66D32"/>
<path fill-rule="evenodd" clip-rule="evenodd" d="M168 717.286L169.981 701.813L170.932 701.934L168.951 717.408L168 717.286Z" fill="#C66D32"/>
<path fill-rule="evenodd" clip-rule="evenodd" d="M164.155 717.841L165.949 704.24L166.899 704.365L165.104 717.966L164.155 717.841Z" fill="#C66D32"/>
<path fill-rule="evenodd" clip-rule="evenodd" d="M160.271 718.925L161.848 706.959L162.798 707.084L161.22 719.05L160.271 718.925Z" fill="#C66D32"/>
<path fill-rule="evenodd" clip-rule="evenodd" d="M156.321 720.055L157.898 708.088L158.848 708.213L157.27 720.18L156.321 720.055Z" fill="#C66D32"/>
<path fill-rule="evenodd" clip-rule="evenodd" d="M152.582 720.171L153.982 709.549L154.932 709.674L153.531 720.296L152.582 720.171Z" fill="#C66D32"/>
<path fill-rule="evenodd" clip-rule="evenodd" d="M148.829 719.983L150.075 710.527L151.025 710.652L149.778 720.108L148.829 719.983Z" fill="#C66D32"/>
<path fill-rule="evenodd" clip-rule="evenodd" d="M145.166 719.047L146.168 711.448L147.118 711.573L146.115 719.172L145.166 719.047Z" fill="#C66D32"/>
<path fill-rule="evenodd" clip-rule="evenodd" d="M142.945 713.796L143.318 712.915L158.555 719.372L158.182 720.253L142.945 713.796Z" fill="#C66D32"/>
<path fill-rule="evenodd" clip-rule="evenodd" d="M148.455 711.437L148.824 710.554L165.719 717.619L165.349 718.502L148.455 711.437Z" fill="#C66D32"/>
<path fill-rule="evenodd" clip-rule="evenodd" d="M156.036 709.506L156.418 708.629L172.571 715.661L172.189 716.538L156.036 709.506Z" fill="#C66D32"/>
<path fill-rule="evenodd" clip-rule="evenodd" d="M161.535 707.136L161.909 706.256L178.989 713.515L178.614 714.395L161.535 707.136Z" fill="#C66D32"/>
<path fill-rule="evenodd" clip-rule="evenodd" d="M166.534 704.17L166.918 703.293L183.965 710.757L183.581 711.634L166.534 704.17Z" fill="#C66D32"/>
<path fill-rule="evenodd" clip-rule="evenodd" d="M171.067 701.568L171.439 700.685L187.542 707.484L187.169 708.367L171.067 701.568Z" fill="#C66D32"/>
<path fill-rule="evenodd" clip-rule="evenodd" d="M177.463 699.374L177.835 698.492L188.78 703.114L188.407 703.997L177.463 699.374Z" fill="#C66D32"/>
</g>
<path fill-rule="evenodd" clip-rule="evenodd" d="M187.083 701.23C187.038 701.143 186.99 701.055 186.94 700.968C186.913 702.744 186.33 704.467 185.274 705.896C182.384 710.041 178.119 711.27 171.662 713.129C169.718 713.689 167.514 714.323 165.162 715.103C160.613 716.663 155.845 717.491 151.036 717.554C149.069 717.652 147.1 717.395 145.224 716.797C144.171 716.459 143.276 715.753 142.701 714.809C142.633 715.117 142.62 715.434 142.662 715.746C143.135 717.014 144.176 717.985 145.474 718.368C147.351 718.966 149.319 719.222 151.286 719.125C156.095 719.061 160.863 718.234 165.412 716.674C167.769 715.894 169.972 715.26 171.912 714.7C178.368 712.84 182.633 711.611 185.524 707.467C186.872 705.687 187.435 703.435 187.083 701.23Z" fill="#C66D32"/>
<path d="M185.449 698.935L183.449 710.903" stroke="#E8914F"/>
<path d="M181.382 698.115L179.382 713.262" stroke="#E8914F"/>
<path d="M177.499 698.963L175.45 714.622" stroke="#E8914F"/>
<path d="M173.738 699.46L171.519 715.808" stroke="#E8914F"/>
<path d="M169.616 701.584L167.616 717.056" stroke="#E8914F"/>
<path d="M165.773 704.012L163.773 717.614" stroke="#E8914F"/>
<path d="M161.888 706.729L159.888 718.697" stroke="#E8914F"/>
<path d="M157.938 707.858L155.938 719.826" stroke="#E8914F"/>
<path d="M154.198 709.32L152.198 719.943" stroke="#E8914F"/>
<path d="M150.445 710.298L148.445 719.755" stroke="#E8914F"/>
<path d="M146.782 711.218L144.782 718.818" stroke="#E8914F"/>
<path d="M142.269 713.064L157.507 719.521" stroke="#E8914F"/>
<path d="M147.777 710.705L164.665 717.765" stroke="#E8914F"/>
<path d="M155.364 708.776L171.519 715.808" stroke="#E8914F"/>
<path d="M160.86 706.404L177.944 713.67" stroke="#E8914F"/>
<path d="M165.865 703.44L182.913 710.903" stroke="#E8914F"/>
<path d="M170.391 700.835L186.494 707.634" stroke="#E8914F"/>
<path d="M176.787 698.641L187.736 703.258" stroke="#E8914F"/>
<circle cx="307.153" cy="525.761" r="25.1691" fill="#7A60A6"/>
<path fill-rule="evenodd" clip-rule="evenodd" d="M331.644 519.983C330.255 514.071 326.764 508.866 321.822 505.336C321.998 505.926 325.398 517.859 315.722 529.914C306.022 542.002 288.347 541.523 287.56 541.495C294.915 550.659 307.636 553.507 318.196 548.354C328.757 543.2 334.339 531.419 331.64 519.983H331.644Z" fill="#6D5298"/>
<path fill-rule="evenodd" clip-rule="evenodd" d="M329.766 520.004C332.097 529.903 327.761 540.173 319.041 545.406C310.321 550.638 299.218 549.633 291.58 542.918C300.839 547.6 312.033 546.023 319.638 538.965C327.242 531.907 329.647 520.86 325.666 511.279C327.627 513.869 329.023 516.841 329.766 520.004H329.766Z" fill="#5F4589"/>
<path opacity="0.25" fill-rule="evenodd" clip-rule="evenodd" d="M285.419 523.362C284.42 519.115 287.052 514.862 291.299 513.862C295.546 512.863 299.799 515.495 300.799 519.742C301.799 523.989 299.166 528.242 294.919 529.242C292.88 529.722 290.733 529.372 288.951 528.269C287.17 527.167 285.899 525.401 285.419 523.362Z" fill="#F298BB"/>
<path opacity="0.25" fill-rule="evenodd" clip-rule="evenodd" d="M287.203 520.666C286.781 518.873 287.481 517.002 288.975 515.926C290.47 514.85 292.466 514.78 294.033 515.75C295.599 516.719 296.427 518.536 296.131 520.354C295.835 522.172 294.472 523.633 292.679 524.055C290.231 524.63 287.78 523.114 287.203 520.666Z" fill="#F298BB"/>
<path opacity="0.25" fill-rule="evenodd" clip-rule="evenodd" d="M304.914 513.62C303.915 509.373 306.547 505.12 310.794 504.12C315.041 503.121 319.294 505.753 320.294 510C321.294 514.247 318.661 518.5 314.414 519.5C312.375 519.98 310.228 519.63 308.447 518.527C306.665 517.425 305.394 515.659 304.914 513.62Z" fill="#F298BB"/>
<path opacity="0.25" fill-rule="evenodd" clip-rule="evenodd" d="M307.231 510.477C306.837 508.803 307.49 507.055 308.886 506.05C310.282 505.045 312.146 504.98 313.609 505.886C315.072 506.791 315.845 508.488 315.569 510.186C315.292 511.884 314.02 513.248 312.345 513.642C310.059 514.18 307.769 512.763 307.231 510.477Z" fill="#F298BB"/>
<path opacity="0.25" fill-rule="evenodd" clip-rule="evenodd" d="M295.194 508.942C294.831 507.406 295.429 505.803 296.71 504.88C297.99 503.958 299.701 503.898 301.043 504.729C302.384 505.559 303.093 507.117 302.838 508.675C302.583 510.232 301.415 511.482 299.878 511.842C298.872 512.079 297.814 511.906 296.935 511.362C296.057 510.818 295.431 509.948 295.194 508.942Z" fill="#F298BB"/>
<path opacity="0.25" fill-rule="evenodd" clip-rule="evenodd" d="M296.048 507.975C295.852 507.148 296.174 506.284 296.864 505.787C297.554 505.29 298.475 505.258 299.197 505.706C299.92 506.153 300.302 506.992 300.164 507.831C300.027 508.67 299.397 509.343 298.569 509.536C297.442 509.799 296.315 509.101 296.048 507.975Z" fill="#F298BB"/>
<path opacity="0.15" fill-rule="evenodd" clip-rule="evenodd" d="M315.478 505.342C312.441 503.73 300.992 501.525 292.448 510.342C285.486 517.617 283.985 528.541 288.727 537.424C288.003 534.348 287.757 523.624 294.479 515.483C301.201 507.342 310.957 505.784 315.478 505.342Z" fill="#D6B6D8"/>
<path fill-rule="evenodd" clip-rule="evenodd" d="M315.477 505.342C315.477 505.342 301.572 501.119 292.57 511.602C283.568 522.085 287.708 535.687 288.727 537.419C288.727 537.419 280.25 523.063 291.343 510.528C301.699 498.826 315.477 505.342 315.477 505.342Z" fill="#D7CEE7"/>
<path fill-rule="evenodd" clip-rule="evenodd" d="M350.575 550.552C349.205 553.439 337.991 551.182 322.796 545.46C316.52 543.095 309.56 540.136 302.335 536.708C294.852 533.156 287.935 529.503 281.994 526.022C268.32 518.016 259.757 510.929 261.109 508.082C262.393 505.382 272.291 507.188 286.009 512.118C285.538 512.85 285.104 513.606 284.709 514.382C279.144 512.777 275.456 512.406 274.868 513.646C274.25 514.946 277.168 517.774 282.386 521.302C289.287 525.797 296.501 529.793 303.972 533.259C311.164 536.74 318.584 539.729 326.181 542.205C332.602 544.2 336.929 544.761 337.57 543.411C338.18 542.123 335.325 539.335 330.195 535.852C330.539 535.068 330.844 534.267 331.108 533.452C343.956 541.113 351.878 547.807 350.575 550.552Z" fill="#D5E9F9"/>
<path fill-rule="evenodd" clip-rule="evenodd" d="M350 551.358C348.629 554.245 337.415 551.988 322.221 546.266C315.944 543.901 308.985 540.942 301.759 537.514C294.276 533.962 287.359 530.309 281.418 526.828C267.743 518.822 259.181 511.735 260.532 508.888C261.816 506.188 271.774 508.028 285.489 512.957C285.046 513.691 284.647 514.452 284.295 515.234C278.73 513.628 274.88 513.211 274.295 514.451C273.678 515.751 276.595 518.579 281.814 522.107C288.715 526.602 295.929 530.598 303.401 534.064C310.592 537.545 318.012 540.534 325.609 543.01C332.03 545.005 336.357 545.566 336.999 544.216C337.609 542.928 334.906 540.231 329.775 536.748C330.119 535.964 330.518 535.221 330.782 534.406C343.627 542.066 351.303 548.614 350 551.358Z" fill="#F49639"/>
<path fill-rule="evenodd" clip-rule="evenodd" d="M350.575 550.552C349.205 553.439 337.991 551.182 322.796 545.46C316.52 543.095 309.56 540.136 302.335 536.708C294.852 533.156 287.935 529.503 281.994 526.022C268.32 518.016 259.757 510.929 261.109 508.082C262.393 505.382 272.291 507.188 286.009 512.118C285.538 512.85 285.104 513.606 284.709 514.382C279.144 512.777 275.456 512.406 274.868 513.646C274.25 514.946 277.168 517.774 282.386 521.302C289.287 525.797 296.501 529.793 303.972 533.259C311.164 536.74 318.584 539.729 326.181 542.205C332.602 544.2 336.929 544.761 337.57 543.411C338.18 542.123 335.325 539.335 330.195 535.852C330.539 535.068 330.844 534.267 331.108 533.452C343.956 541.113 351.878 547.807 350.575 550.552Z" fill="#FFE568"/>
<path fill-rule="evenodd" clip-rule="evenodd" d="M344.656 543.359C347.212 545.841 351.363 548.759 349.295 550.5C347.227 552.241 330.995 549.1 300.118 534.738C300.118 534.738 331.469 546.871 339.574 548.297C347.615 549.711 348.744 548.624 344.656 543.359Z" fill="#FCC231"/>
<path fill-rule="evenodd" clip-rule="evenodd" d="M275.904 509.482C272.487 508.791 264.064 506.726 262.449 508.296C260.834 509.866 270.467 518.077 273.944 520.036C273.944 520.036 265.302 513.06 264.928 509.843C264.648 507.441 275.904 509.482 275.904 509.482Z" fill="#FFEDB2"/>
<path fill-rule="evenodd" clip-rule="evenodd" d="M284.637 513.425C282.472 512.753 280.265 512.22 278.031 511.831C274.847 511.325 271.046 510.82 271.437 512.985C271.828 515.15 274.728 517.806 280.602 521.885C286.476 525.964 296.394 531.539 296.394 531.539C296.394 531.539 281.877 524.249 276.317 520.349C270.757 516.449 267.401 512.507 268.177 510.81C269.145 508.693 277.956 510.11 285.043 512.91L284.637 513.425Z" fill="#FFDA60"/>
<path fill-rule="evenodd" clip-rule="evenodd" d="M68.3061 555.774C68.3061 555.774 42.4621 559.563 21.5461 552.153C20.9608 551.943 20.6405 551.313 20.8152 550.716C21.1611 549.529 21.7431 547.439 22.3152 544.961C23.6522 539.18 68.3061 555.774 68.3061 555.774Z" fill="#A9CBD3"/>
<path fill-rule="evenodd" clip-rule="evenodd" d="M22.3153 544.961C21.9613 546.493 21.6042 547.876 21.3013 548.991C42.1863 557.274 68.3013 555.774 68.3013 555.774C68.3013 555.774 23.6512 539.18 22.3153 544.961Z" fill="#8CB8BF"/>
<path fill-rule="evenodd" clip-rule="evenodd" d="M26.5712 520.613C26.5712 520.613 26.7712 531.863 23.6952 537.649C20.6193 543.435 57.7682 556.361 68.3072 555.775C68.3072 555.775 53.8422 543.587 45.9071 533.838C40.7585 527.782 34.0818 523.216 26.5712 520.613Z" fill="#CCE4EA"/>
<path opacity="0.5" fill-rule="evenodd" clip-rule="evenodd" d="M23.6953 537.649C20.6213 543.435 57.7683 556.361 68.3072 555.775C51.4722 550.375 28.4143 531.227 28.4143 531.227C28.2866 527.622 27.6664 524.051 26.5712 520.613C26.5712 520.613 26.7692 531.863 23.6953 537.649Z" fill="#A9CBD3"/>
<path fill-rule="evenodd" clip-rule="evenodd" d="M15.2401 523.714C14.1641 523.908 9.15809 524.74 3.86817 525.202C-4.0808 525.896 -10.9408 524.537 -10.0498 526.668C-9.25475 528.568 3.16321 540.757 20.9852 547.448C38.8073 554.139 61.0742 556.348 68.3063 555.773C58.0527 551.987 48.1763 547.249 38.8063 541.621C24.0581 532.635 18.3272 523.155 15.2401 523.714Z" fill="#F7FCFE"/>
<path fill-rule="evenodd" clip-rule="evenodd" d="M68.3064 555.774C68.3064 555.774 58.5824 545.738 52.9224 534.818C45.5104 520.512 43.7513 509.536 42.9663 508.488C42.1813 507.44 38.8802 509.948 33.6083 513.988C31.0806 515.994 28.7262 518.21 26.5703 520.611C26.5703 520.611 51.6163 550.005 68.3064 555.774Z" fill="#F7FCFE"/>
<path fill-rule="evenodd" clip-rule="evenodd" d="M11.2712 525.958C2.6932 528.103 -7.68778 526.344 -5.29276 529.286C-2.89774 532.228 20.7573 550.505 54.5963 553.524C54.5963 553.524 25.0263 546.169 11.9362 538.202C-3.44376 528.842 2.25619 528.956 4.6893 528.402C7.00448 527.961 9.22933 527.135 11.2712 525.958Z" fill="white"/>
<path fill-rule="evenodd" clip-rule="evenodd" d="M63.4391 552.561C63.4391 552.561 40.42 534.775 29.0891 521.038C29.0891 521.038 33.7891 514.712 39.6492 511.582C39.6492 511.582 34.8062 516.004 33.3312 518.882C32.6482 520.216 33.9991 523.02 36.2802 525.958C41.6852 532.923 63.4391 552.561 63.4391 552.561Z" fill="white"/>
<path fill-rule="evenodd" clip-rule="evenodd" d="M279.023 597.475C279.023 597.475 259.768 605.74 242.023 604.307C241.526 604.264 241.148 603.842 241.16 603.343C241.184 602.351 241.203 600.611 241.137 598.573C240.984 593.814 279.023 597.475 279.023 597.475Z" fill="#A9CBD3"/>
<path fill-rule="evenodd" clip-rule="evenodd" d="M241.141 598.572C241.182 599.833 241.19 600.979 241.185 601.905C259.085 604.021 279.023 597.475 279.023 597.475C279.023 597.475 240.984 593.814 241.141 598.572Z" fill="#8CB8BF"/>
<path fill-rule="evenodd" clip-rule="evenodd" d="M239.421 578.819C239.421 578.819 241.894 587.499 240.703 592.619C239.512 597.739 270.975 600.1 279.024 597.474C279.024 597.474 265.298 591.007 257.139 585.084C251.899 581.451 245.781 579.287 239.421 578.819Z" fill="#CCE4EA"/>
<path opacity="0.5" fill-rule="evenodd" clip-rule="evenodd" d="M240.703 592.619C239.513 597.738 270.975 600.1 279.024 597.474C264.861 596.761 243.037 586.667 243.037 586.667C242.195 583.898 240.978 581.258 239.421 578.819C239.421 578.819 241.894 587.498 240.703 592.619Z" fill="#A9CBD3"/>
<path fill-rule="evenodd" clip-rule="evenodd" d="M231.279 583.559C230.485 583.932 226.779 585.608 222.77 587.059C216.751 589.236 211.153 589.596 212.283 591.065C213.291 592.375 225.431 599.265 240.626 600.777C255.821 602.289 273.54 599.414 279.026 597.477C270.297 596.655 261.664 595.017 253.24 592.586C239.95 588.653 233.554 582.489 231.279 583.559Z" fill="#F7FCFE"/>
<path fill-rule="evenodd" clip-rule="evenodd" d="M279.024 597.475C279.024 597.475 269.417 591.699 262.777 584.397C254.082 574.835 250.457 566.688 249.631 566.037C248.805 565.386 246.765 568.012 243.512 572.237C241.966 574.313 240.597 576.517 239.421 578.823C239.421 578.823 264.897 596.442 279.024 597.475Z" fill="#F7FCFE"/>
<path fill-rule="evenodd" clip-rule="evenodd" d="M228.662 586.117C222.455 589.547 214.044 590.324 216.507 592.111C218.97 593.898 241.076 603.19 267.931 598.556C267.931 598.556 243.492 598.951 231.702 595.472C217.848 591.386 222.292 590.3 224.063 589.365C225.767 588.547 227.322 587.45 228.662 586.117Z" fill="white"/>
<path fill-rule="evenodd" clip-rule="evenodd" d="M274.587 595.986C274.587 595.986 253.076 586.944 241.46 578.629C241.46 578.629 243.803 572.755 247.698 569.121C247.698 569.121 244.855 573.547 244.305 576.082C244.05 577.257 245.675 579.153 248.049 580.96C253.675 585.246 274.587 595.986 274.587 595.986Z" fill="white"/>
<path fill-rule="evenodd" clip-rule="evenodd" d="M2.56006 596.712H-7.47192C-8.29089 589.916 -14.0558 584.802 -20.9009 584.799V578.489C-20.9034 570.79 -27.1433 564.553 -34.8386 564.555L-34.8348 564.555C-42.5304 564.555 -48.7688 570.793 -48.7688 578.489V582.611C-50.7263 578.628 -55.1722 576.521 -59.4946 577.528C-63.817 578.536 -66.8737 582.391 -66.8687 586.829L-66.8688 596.713H-78.6028C-80.9082 596.714 -82.7769 598.583 -82.7769 600.888H-82.7767C-82.7769 603.192 -80.9088 605.061 -78.6039 605.062H2.5592C4.86462 605.062 6.73364 603.193 6.73425 600.888C6.73475 599.782 6.29542 598.719 5.5127 597.936C4.73011 597.153 3.66834 596.712 2.56104 596.712H2.56006Z" fill="white"/>
<circle cx="191.097" cy="485.516" r="7.327" fill="white" fill-opacity="0.2"/>
<path fill-rule="evenodd" clip-rule="evenodd" d="M191.097 494.103C190.413 494.103 189.859 493.549 189.858 492.865V478.165C189.858 477.481 190.413 476.927 191.097 476.927C191.425 476.927 191.74 477.057 191.972 477.29C192.204 477.522 192.335 477.837 192.335 478.165V492.865C192.335 493.194 192.204 493.509 191.972 493.741C191.74 493.973 191.425 494.103 191.096 494.103H191.097Z" fill="white" fill-opacity="0.298039"/>
<path fill-rule="evenodd" clip-rule="evenodd" d="M199.683 485.515C199.683 486.199 199.129 486.753 198.445 486.754H183.745C183.061 486.753 182.507 486.199 182.507 485.515C182.507 485.186 182.638 484.871 182.87 484.639C183.102 484.407 183.417 484.277 183.745 484.277H198.445C198.773 484.277 199.088 484.407 199.32 484.64C199.552 484.872 199.683 485.187 199.683 485.515Z" fill="white" fill-opacity="0.298039"/>
<path fill-rule="evenodd" clip-rule="evenodd" d="M196.294 485.515C196.294 486.199 195.739 486.754 195.055 486.754H187.138C186.454 486.754 185.899 486.199 185.899 485.515C185.9 484.831 186.454 484.278 187.138 484.278H195.055C195.738 484.278 196.293 484.831 196.294 485.515Z" fill="white"/>
<path fill-rule="evenodd" clip-rule="evenodd" d="M191.097 490.713C190.413 490.713 189.858 490.158 189.858 489.474V481.553C189.858 480.869 190.413 480.314 191.097 480.314C191.781 480.315 192.335 480.869 192.335 481.553V489.47C192.336 489.799 192.206 490.115 191.974 490.348C191.741 490.582 191.426 490.713 191.097 490.713Z" fill="white"/>
<path fill-rule="evenodd" clip-rule="evenodd" d="M235.469 535.154C235.469 534.063 236.353 533.179 237.444 533.179C238.535 533.179 239.419 534.063 239.419 535.153C239.42 536.244 238.536 537.128 237.445 537.129C236.921 537.129 236.419 536.921 236.048 536.551C235.677 536.18 235.469 535.678 235.469 535.154Z" fill="#FFEDB2"/>
<path fill-rule="evenodd" clip-rule="evenodd" d="M103.623 476.93C103.623 476.13 104.105 475.411 104.843 475.105C105.581 474.8 106.431 474.969 106.995 475.534C107.56 476.099 107.729 476.949 107.422 477.686C107.117 478.424 106.396 478.905 105.597 478.905C104.507 478.905 103.623 478.021 103.623 476.93Z" fill="#FFEDB2"/>
<path fill-rule="evenodd" clip-rule="evenodd" d="M95.3672 527.633C95.3668 526.834 95.8479 526.113 96.5862 525.807C97.3246 525.5 98.1747 525.669 98.74 526.234C99.3054 526.799 99.4747 527.649 99.1689 528.388C98.8633 529.126 98.1427 529.608 97.3434 529.608C96.8193 529.608 96.3167 529.4 95.946 529.03C95.5754 528.659 95.3672 528.157 95.3672 527.633Z" fill="#FFEDB2"/>
<path fill-rule="evenodd" clip-rule="evenodd" d="M214.091 472.774C214.091 471.975 214.572 471.255 215.31 470.949C216.048 470.643 216.898 470.811 217.464 471.376C218.029 471.941 218.198 472.791 217.893 473.53C217.587 474.268 216.867 474.75 216.068 474.75C215.543 474.75 215.041 474.542 214.67 474.171C214.299 473.801 214.091 473.298 214.091 472.774Z" fill="#FFEDB2"/>
</g>
<defs>
<linearGradient id="paint0_linear_213_2310" x1="584.062" y1="392.272" x2="-49.594" y2="112.208" gradientUnits="userSpaceOnUse">
<stop stop-color="#F1F1F1"/>
<stop offset="1" stop-color="#7292CF"/>
</linearGradient>
<linearGradient id="paint1_linear_213_2310" x1="94.2477" y1="659.886" x2="94.2477" y2="737.141" gradientUnits="userSpaceOnUse">
<stop stop-color="#F59D10" stop-opacity="0.501961"/>
<stop offset="0.144" stop-color="#F59D10" stop-opacity="0.470588"/>
<stop offset="0.361" stop-color="#F59D12" stop-opacity="0.384314"/>
<stop offset="0.624" stop-color="#F69E16" stop-opacity="0.247059"/>
<stop offset="0.921" stop-color="#F69F1B" stop-opacity="0.054902"/>
<stop offset="1" stop-color="#F7A01D" stop-opacity="0.01"/>
</linearGradient>
<linearGradient id="paint2_linear_213_2310" x1="176.336" y1="558.226" x2="176.336" y2="538.479" gradientUnits="userSpaceOnUse">
<stop stop-color="#F2A37C"/>
<stop offset="0.09" stop-color="#F2A47D" stop-opacity="0.968627"/>
<stop offset="0.225" stop-color="#F2A780" stop-opacity="0.882353"/>
<stop offset="0.39" stop-color="#F3AC86" stop-opacity="0.741176"/>
<stop offset="0.577" stop-color="#F4B28D" stop-opacity="0.54902"/>
<stop offset="0.783" stop-color="#F6BB97" stop-opacity="0.298039"/>
<stop offset="1" stop-color="#F8C6A3" stop-opacity="0.01"/>
</linearGradient>
<linearGradient id="paint3_linear_213_2310" x1="195.755" y1="556.563" x2="195.755" y2="538.446" gradientUnits="userSpaceOnUse">
<stop stop-color="#F2A37C"/>
<stop offset="0.09" stop-color="#F2A47D" stop-opacity="0.968627"/>
<stop offset="0.225" stop-color="#F2A780" stop-opacity="0.882353"/>
<stop offset="0.39" stop-color="#F3AC86" stop-opacity="0.741176"/>
<stop offset="0.577" stop-color="#F4B28D" stop-opacity="0.54902"/>
<stop offset="0.783" stop-color="#F6BB97" stop-opacity="0.298039"/>
<stop offset="1" stop-color="#F8C6A3" stop-opacity="0.01"/>
</linearGradient>
</defs>
</svg>
