<svg width="29" height="41" viewBox="0 0 29 41" fill="none" xmlns="http://www.w3.org/2000/svg">
<path fill-rule="evenodd" clip-rule="evenodd" d="M14.9232 0.00507556C17.4469 0.437303 19.5148 2.2486 20.2758 4.69335C20.8795 6.69677 20.4992 8.86768 19.2505 10.5465C18.0017 12.2254 16.0319 13.214 13.9395 13.212C10.885 13.1966 8.22219 11.13 7.44917 8.17481C6.77033 5.08763 8.31005 1.9401 11.1639 0.58109C11.6882 0.338701 12.2561 0.191633 12.8047 0L14.9232 0.00507556Z" fill="#084CD1" fill-opacity="0.66"/>
<path fill-rule="evenodd" clip-rule="evenodd" d="M3.74573 38.9585C3.74573 37.5114 3.70415 36.3015 3.77515 35.0988C3.86453 34.7487 4.09366 34.4507 4.40897 34.2743C6.0033 33.2665 6.97142 31.5132 6.97512 29.627C6.97882 27.7409 6.01759 25.9838 4.42723 24.9698C4.10888 24.7992 3.8738 24.5062 3.77617 24.1585C3.70417 22.9172 3.74575 21.6688 3.74575 20.3819C7.92798 19.7551 11.3892 20.7145 14.1628 23.9404C16.7559 20.2693 20.5295 20.2105 24.5576 20.391C24.5576 21.7144 24.5829 22.9902 24.5352 24.2619C24.4709 24.5448 24.2984 24.7913 24.0545 24.9485C22.4939 25.9784 21.5544 27.7227 21.5532 29.5925C21.552 31.4623 22.4892 33.2079 24.0485 34.2398C24.3119 34.428 24.4879 34.7148 24.5363 35.0349C24.588 36.3208 24.5596 37.6098 24.5596 39.0782C20.714 37.9748 17.0723 37.771 14.0229 40.9999C11.0768 38.2375 7.61968 37.9535 3.74573 38.9585Z" fill="#084CD1" fill-opacity="0.66"/>
<path fill-rule="evenodd" clip-rule="evenodd" d="M27.2918 24.8481C26.1763 24.8896 25.8721 24.3065 25.939 23.2528C26.0191 22.0055 25.9481 20.748 25.939 19.4945C25.9061 19.3715 25.8581 19.2529 25.796 19.1416C21.6564 18.9388 17.4579 18.5808 14.1245 22.0106C13.6803 21.6607 13.2868 21.3433 12.8872 21.037C9.95949 18.7918 6.57841 18.7634 3.14357 19.1102C2.89106 19.1356 2.52292 19.6457 2.49453 19.956C2.3867 21.0086 2.36533 22.0681 2.43065 23.1242C2.51684 24.3147 2.08482 24.9495 0.847588 25.0033C0.847588 23.6027 0.773559 22.1942 0.86382 20.7967C0.901082 18.3641 2.86992 16.4042 5.30264 16.3782C11.3711 16.2676 17.4437 16.291 23.5142 16.3193C25.3174 16.5532 26.7955 17.8633 27.2441 19.6254C27.3745 21.3633 27.3904 23.108 27.2918 24.8481H27.2918Z" fill="#084CD1" fill-opacity="0.66"/>
<path fill-rule="evenodd" clip-rule="evenodd" d="M0 29.3386C0.129334 28.7211 0.311188 28.1158 0.54358 27.5294C0.89432 26.4927 1.8939 25.8176 2.9866 25.8794C4.16736 25.9412 5.15087 26.8063 5.36268 27.9695C5.56487 29.0641 5.55316 30.1874 5.32819 31.2775C5.08043 32.4684 4.05019 33.3353 2.83448 33.3758C1.58647 33.2863 0.552896 32.3724 0.311342 31.1447C0.165296 30.6295 0.123732 30.0829 0 29.3386Z" fill="#084CD1" fill-opacity="0.66"/>
<path fill-rule="evenodd" clip-rule="evenodd" d="M28.4697 29.8821C28.3804 30.5145 28.2209 31.1349 27.9941 31.7318C27.6131 32.7111 26.6728 33.3583 25.6221 33.3646C24.5734 33.3388 23.6507 32.6651 23.3068 31.6741C22.722 30.4204 22.6944 28.978 23.2307 27.7028C23.6171 26.5529 24.7219 25.8009 25.9334 25.8632C27.1312 26.1507 28.0584 27.0991 28.3186 28.3032C28.3936 28.724 28.4038 29.156 28.4697 29.8821Z" fill="#084CD1" fill-opacity="0.66"/>
</svg>
