<svg width="283" height="202" viewBox="0 0 283 202" fill="none" xmlns="http://www.w3.org/2000/svg">
<path fill-rule="evenodd" clip-rule="evenodd" d="M0 30V15C0 10.8579 2.5426 7.32233 7.6278 4.3934C12.713 1.46447 18.8514 0 26.0429 0H256.957C264.149 0 270.287 1.46447 275.372 4.3934C280.457 7.32233 283 10.8579 283 15V187C283 191.142 280.457 194.678 275.372 197.607C270.287 200.536 264.149 202 256.957 202H26.0429C18.8514 202 12.713 200.536 7.6278 197.607C2.5426 194.678 0 191.142 0 187V30Z" fill="white"/>
<path fill-rule="evenodd" clip-rule="evenodd" d="M0.868042 29.5V15C0.868042 10.9959 3.32589 7.57825 8.24158 4.74695C13.1573 1.91565 19.091 0.5 26.0429 0.5H256.957C263.909 0.5 269.843 1.91565 274.758 4.74695C279.674 7.57825 282.132 10.9959 282.132 15V187C282.132 191.004 279.674 194.422 274.758 197.253C269.843 200.084 263.909 201.5 256.957 201.5H26.0429C19.091 201.5 13.1573 200.084 8.24158 197.253C3.32589 194.422 0.868042 191.004 0.868042 187V29.5Z" stroke="#5278C1"/>
</svg>
