<svg width="34" height="39" viewBox="0 0 34 39" fill="none" xmlns="http://www.w3.org/2000/svg">
<path fill-rule="evenodd" clip-rule="evenodd" d="M0 36.8431V2.20609C0.029053 2.15652 0.0541499 2.10472 0.0749198 2.05112C0.349873 0.777734 1.52498 -0.0955877 2.82358 0.00838512H30.3357C30.6104 0.000967322 30.8852 0.00807605 31.1591 0.0296495C32.0446 0.102777 32.825 0.640196 33.209 1.44144C33.3225 1.69006 33.4215 1.94505 33.5057 2.2051V29.3738C33.373 29.4852 33.2363 29.5926 33.1087 29.7091C29.7774 32.7271 26.4443 35.7439 23.1095 38.7593C22.9535 38.897 22.7553 38.978 22.5475 38.9892C15.8962 39.0006 9.24567 39.003 2.59573 38.9962C1.49122 38.9908 0.513188 38.2813 0.16517 37.233C0.11238 37.1044 0.0526664 36.9747 0 36.8431ZM21.7154 34.7163H21.3275C15.8159 34.7163 10.3044 34.7163 4.79281 34.7163C4.03125 34.7163 3.93902 34.6353 3.93902 33.8787C3.93902 24.3019 3.93902 14.7251 3.93902 5.1483C3.93902 4.38161 4.0221 4.29754 4.77563 4.29754H21.1644C21.1513 4.36035 21.1533 4.37753 21.1451 4.38464C21.0823 4.44441 21.0175 4.5011 20.9547 4.56087C18.9881 6.25961 18.0001 8.82852 18.3215 11.4073C18.3696 12.6411 18.9702 13.7879 19.9569 14.5304C20.9436 15.2728 22.2119 15.5321 23.4107 15.2366C26.2678 14.7099 28.0412 12.7917 29.3 10.3134C29.3587 10.198 29.2089 9.97618 29.1562 9.80705C28.9962 9.88506 28.7733 9.92147 28.6853 10.0501C28.3601 10.5261 28.1202 11.0629 27.7738 11.5217C26.8014 12.9636 25.3484 14.0131 23.674 14.483C22.64 14.8486 21.4946 14.7071 20.5807 14.101C19.6669 13.4949 19.0909 12.4948 19.0255 11.4001C18.7033 8.9982 19.6262 6.59749 21.4743 5.0298C21.6371 4.83799 21.7756 4.62671 21.8865 4.40083L21.7853 4.29958H28.7249C29.4834 4.29958 29.5644 4.3826 29.5644 5.14521C29.5644 12.7255 29.5617 20.3058 29.5563 27.8861V28.506H32.2989C32.307 28.3399 32.3201 28.2021 32.3201 28.0583C32.3235 19.6536 32.3262 11.2476 32.3283 2.84013C32.3936 2.37775 32.2371 1.91167 31.9061 1.58226C31.5751 1.25284 31.1082 1.09862 30.6462 1.16606H2.87061C2.76936 1.16606 2.66811 1.16606 2.56673 1.16606C1.82483 1.194 1.22559 1.78099 1.18232 2.52215C1.16613 2.73789 1.17416 2.9556 1.17416 3.17337C1.17416 13.9655 1.17416 24.7573 1.17416 35.5488C1.17416 35.7949 1.17416 36.041 1.17416 36.2861C1.1419 36.7128 1.2999 37.132 1.60576 37.4312C1.91174 37.7305 2.33418 37.8793 2.76021 37.8377C8.92255 37.8377 15.0854 37.8377 21.2485 37.8377C21.4004 37.8377 21.5523 37.8215 21.7133 37.8123L21.7154 34.7163ZM22.922 37.1176L31.3281 29.7243H22.922V37.1176ZM27.6889 16.468H5.92336V17.4808H27.6889V16.468ZM27.6889 20.2852H5.92534V21.298H27.6889V20.2852ZM5.91347 25.1243H27.673V24.1115H5.91347V25.1243ZM5.90655 29.0255H27.6721V28.0127H5.90655V29.0255ZM25.1492 9.08085C25.3452 8.98472 25.5265 8.86128 25.688 8.71422C25.7887 8.57792 25.8236 8.40385 25.7832 8.23924C25.7528 8.15715 25.4925 8.1187 25.3447 8.13792C25.2052 8.17705 25.0777 8.25055 24.974 8.35162C24.7431 8.53193 24.577 8.48736 24.3968 8.26248C23.9643 7.72067 23.4995 7.20315 23.0801 6.65523C22.9717 6.51546 22.9789 6.2886 22.9049 6.11645C22.8219 5.95721 22.7274 5.80422 22.6223 5.65865C22.4779 5.76521 22.3424 5.8834 22.2173 6.0121C22.1604 6.07893 22.1787 6.20657 22.1575 6.30579C21.6683 8.57848 21.173 10.8502 20.7021 13.1258C20.6737 13.3197 20.7403 13.5155 20.8814 13.6515C21.1508 13.7943 21.2945 13.5644 21.3624 13.3203C21.5649 12.5962 21.7564 11.87 21.9589 11.1469C21.9923 11.0284 22.0298 10.8664 22.1179 10.8137C22.9069 10.3417 23.7069 9.88902 24.5102 9.4272C25.0084 9.98118 25.4662 10.4836 25.9148 10.993C26.0871 11.1884 26.2632 11.392 26.5225 11.1773C26.7817 10.9626 26.6187 10.7367 26.4516 10.5463C26.0281 10.0632 25.6069 9.59026 25.147 9.07782L25.1492 9.08085ZM11.5029 12.6319H6.98893C6.7293 12.6063 6.46894 12.6163 6.21006 12.6616C6.10275 12.6914 6.01559 12.963 5.9194 13.1249C6.01064 13.2947 6.10744 13.4543 6.20894 13.6031C6.24752 13.6552 6.32145 13.618 6.37918 13.618H16.6214C16.6934 13.618 16.7886 13.657 16.8331 13.59C16.9325 13.4685 17.0073 13.2899 17.0457 13.0822C17.0559 12.9612 16.9273 12.7398 16.8361 12.671C16.7237 12.6212 16.6073 12.6099 16.4927 12.6375L11.5029 12.6319ZM11.4785 31.8938H6.66279C6.51926 31.865 6.37424 31.8749 6.23231 31.9231C6.11635 32.0322 6.01126 32.1756 5.92138 32.3477C6.02004 32.5324 6.12599 32.7038 6.23837 32.8603C6.28794 32.9209 6.37918 32.8713 6.45101 32.8713H16.517C16.6181 32.9038 16.7218 32.895 16.8208 32.8456C16.9221 32.7482 17.0497 32.5406 17.0477 32.3843C17.0457 32.2282 16.916 32.004 16.8158 31.9304C16.6891 31.8779 16.558 31.8667 16.4291 31.8973L11.4785 31.8938ZM27.9085 6.73837C27.8546 6.51886 27.7736 6.3069 27.6674 6.10736C27.5661 5.96865 27.3635 5.80354 27.2258 5.81875C26.9675 5.85621 26.9463 6.09524 27.0131 6.33527C27.241 7.15562 27.238 7.15661 26.5249 7.58808C26.4875 7.61033 26.4307 7.62449 26.4176 7.65694C26.3497 7.82304 26.293 7.9942 26.2333 8.16333C26.4095 8.19572 26.608 8.29394 26.759 8.24536C27.0165 8.13545 27.2621 7.9997 27.4922 7.84022C27.5843 8.1441 27.6725 8.42054 27.7485 8.69704C27.8154 8.94009 27.9632 9.12239 28.2042 9.00086C28.3444 8.88452 28.4199 8.70761 28.4067 8.52587C28.3373 8.15857 28.245 7.79596 28.1303 7.44022C28.3843 7.31498 28.6273 7.16829 28.8565 7.00164C28.9577 6.91559 29.0439 6.64416 28.9901 6.58037C28.8706 6.46039 28.7028 6.40148 28.5344 6.42033C28.3119 6.49679 28.1006 6.60268 27.9063 6.73528L27.9085 6.73837Z" fill="#084CD1" fill-opacity="0.66"/>
<path fill-rule="evenodd" clip-rule="evenodd" d="M22.2297 9.89707L22.7026 7.37428L24.0192 8.89345L22.2297 9.89707Z" fill="#084CD1" fill-opacity="0.66"/>
</svg>
