<svg width="26" height="28" viewBox="0 0 26 28" fill="none" xmlns="http://www.w3.org/2000/svg">
<path fill-rule="evenodd" clip-rule="evenodd" d="M0.560447 27.6186C0.180099 22.0411 -0.706754 16.9701 1.06795 11.5218C1.57546 10.1274 2.84266 5.30962 4.99784 6.32464C6.51936 6.95826 6.26504 11.0153 6.77255 12.2825C9.05488 9.74701 9.05488 5.31065 11.8436 3.02839C15.6463 -0.267864 14.3791 5.69411 14.5093 7.84718C17.0448 6.70604 20.9747 -1.02657 24.3971 0.114564C27.5663 1.2557 19.7065 8.60794 18.8197 10.1295C20.341 10.3827 21.9887 9.3687 23.6384 9.49584C26.0468 9.62296 26.9346 11.1434 24.6524 12.665C22.244 14.0593 16.0319 13.9322 15.0148 16.9711C16.5363 17.7319 23.2549 16.0832 22.8746 19.3795C22.4942 21.7879 16.4092 22.1682 14.6344 22.6757C9.69055 23.943 5.50947 25.972 0.942922 28" fill="#4094A8"/>
</svg>
