<svg width="49" height="39" viewBox="0 0 49 39" fill="none" xmlns="http://www.w3.org/2000/svg">
<path fill-rule="evenodd" clip-rule="evenodd" d="M24.7238 7.5554C22.0116 -0.667743 10.6262 -1.16097 4.14788 2.50761C3.36119 2.94789 2.626 3.4745 1.95598 4.07772C1.61913 4.38227 1.30484 4.71095 1.01576 5.06115C0.782649 5.33221 0.667995 5.68534 0.697302 6.04158C0.626977 7.80254 0.570693 9.56348 0.517474 11.3244C0.374188 16.0759 0.254629 20.8277 0.15886 25.5798C0.0764562 29.6241 -0.0601471 33.6814 0.0292459 37.7267C0.0315757 37.8369 0.0914776 37.9379 0.187063 37.9927C0.282649 38.0476 0.400061 38.0484 0.496383 37.9949C6.16499 35.2756 13.1354 32.9029 19.3817 34.9813C21.2127 35.6006 22.8854 36.6142 24.2819 37.9507C24.3827 38.0487 24.5362 38.0683 24.6586 37.9989C27.5556 35.728 31.102 34.4416 34.7812 34.3273C37.9321 34.4011 41.0298 35.1549 43.8622 36.5373C45.4524 37.2566 46.9904 38.0833 48.5132 38.9341C48.6095 38.9883 48.7272 38.9878 48.8231 38.9328C48.9189 38.8778 48.9786 38.7764 48.9804 38.6659V4.73868C48.9804 4.36901 49.0808 3.90592 48.8267 3.62062C48.3597 3.19719 47.8356 2.84145 47.2697 2.56385C43.2305 0.246421 38.4906 -0.535124 33.9213 0.362914C29.9233 1.11431 25.3336 3.33433 24.1211 7.5564C24.0756 7.72283 24.1736 7.89464 24.3401 7.94014C24.5065 7.98563 24.6783 7.88758 24.7238 7.72115C25.5977 4.6784 28.4828 2.72961 31.3216 1.70899C34.8865 0.456062 38.7427 0.286887 42.4037 1.2228C44.6178 1.78192 46.6972 2.78008 48.5183 4.15805L48.3646 3.88985V38.6719L48.8317 38.4037C43.1721 35.2384 36.8124 32.4006 30.2478 34.4007C28.1222 35.0798 26.128 36.1167 24.3511 37.4665L24.7278 37.5147C22.272 35.2188 19.092 33.8517 15.7362 33.6493C12.2741 33.4975 8.81649 34.037 5.5653 35.2364C3.72906 35.8688 1.93237 36.6108 0.18504 37.4585L0.653096 37.7267C0.579767 34.4549 0.677192 31.1751 0.737462 27.9043C0.822502 23.2888 0.93035 18.6736 1.06094 14.0588C1.11588 12.0993 1.17615 10.1404 1.24175 8.18223C1.2672 7.44021 1.29467 6.69752 1.32416 5.95416C1.35328 5.25099 2.30858 4.5679 2.83795 4.13796C6.02005 1.78092 9.95034 0.660645 13.8969 0.985722C18.2597 1.24389 22.6776 3.32328 24.1271 7.71612C24.2517 8.09383 24.8514 7.93209 24.7299 7.55137" fill="#003849"/>
</svg>
