<svg width="37" height="40" viewBox="0 0 37 40" fill="none" xmlns="http://www.w3.org/2000/svg">
<path fill-rule="evenodd" clip-rule="evenodd" d="M34.1376 39.8928H2.40133C2.34242 39.8369 2.29371 39.7536 2.22365 39.7293C0.367562 39.0744 0 38.5687 0 36.6466C0 27.1455 0 17.644 0 8.14226C0 5.54392 1.28647 4.27366 3.9193 4.26963C5.63019 4.26963 7.34411 4.22086 9.05299 4.2889C9.84091 4.32039 10.1049 4.10515 10.0044 3.32337C9.82771 1.94651 10.0349 0.705749 11.4432 0.00105354H12.6839C13.7991 0.47335 14.4437 1.64997 14.2415 2.84407C14.2212 3.07857 14.2628 3.31927 14.2303 3.55483C14.1491 4.12753 14.3613 4.29709 14.9462 4.2889C17.186 4.25445 19.428 4.22805 21.6659 4.29808C22.5797 4.32652 22.9219 4.09499 22.7929 3.16391C22.4395 1.85733 23.1259 0.494173 24.386 0H25.4502C26.297 0.304659 26.9061 1.05243 27.0331 1.94347C27.0782 2.4436 27.0782 2.94694 27.0331 3.44719C26.9681 4.08588 27.1468 4.30923 27.8383 4.28791C29.6091 4.23208 31.3819 4.24726 33.1537 4.27366C35.7114 4.31227 36.9928 5.615 36.9928 8.13916C36.9928 17.6782 36.9928 27.2176 36.9928 36.7573C37.101 38.2673 35.976 39.5841 34.4676 39.7131C34.3356 39.7373 34.16 39.6765 34.1376 39.8928ZM18.4426 15.6854C23.4341 15.6854 28.4267 15.6793 33.4182 15.6945C33.9472 15.6945 34.199 15.6316 34.1878 14.9919C34.1462 12.5702 34.1584 10.1476 34.1878 7.72593C34.1929 7.21825 34.0396 7.08426 33.5431 7.09343C31.9185 7.12386 30.2939 7.10558 28.6693 7.1036C27.1463 7.1036 27.1463 7.1036 27.0539 8.6083C27.0132 9.7553 26.0682 10.6621 24.9206 10.6553C24.3553 10.6637 23.8103 10.4451 23.4075 10.0482C23.0048 9.65143 22.7781 9.10966 22.7782 8.54434C22.7621 8.3676 22.7642 8.18961 22.7843 8.01324C22.9031 7.30253 22.6828 7.05885 21.907 7.08215C19.8418 7.14413 17.7725 7.10453 15.7052 7.10347C14.3293 7.10347 14.3324 7.10347 14.2329 8.48844C14.2145 8.69438 14.1778 8.89827 14.1232 9.09764C13.858 10.1413 12.8428 10.8122 11.7787 10.6472C10.7737 10.5233 10.0135 9.67771 9.99679 8.66519C9.97457 8.34095 9.97457 8.01565 9.99673 7.69147C10.0445 7.22531 9.86882 7.08934 9.40582 7.09542C7.42686 7.11872 5.44589 7.12789 3.46896 7.09542C2.90745 7.08525 2.77749 7.25989 2.78459 7.79701C2.81505 10.0115 2.80082 12.227 2.80082 14.4416C2.80082 15.6874 2.80082 15.6874 4.08221 15.6874L18.4426 15.6854ZM15.1381 26.8544C15.1513 26.828 15.1574 26.7894 15.1777 26.7783C15.3087 26.7112 15.4407 26.6452 15.5757 26.5884C17.0214 26.0913 17.9704 24.7054 17.911 23.1778C17.9475 21.6502 16.9991 20.2719 15.5594 19.76C13.6999 19.0583 11.6548 19.0225 9.77187 19.6585C7.82642 20.1936 7.83048 20.2048 8.37776 22.071C8.41089 22.1837 8.43701 22.2983 8.45594 22.4142C8.54936 22.9849 8.76968 23.0295 9.30884 22.7888C10.4839 22.1453 11.8647 21.9889 13.154 22.3533C13.7768 22.5159 14.2213 23.0649 14.2506 23.7078C14.2914 24.3463 13.9287 24.9422 13.3429 25.1993C12.8888 25.4047 12.406 25.5393 11.9112 25.5985C11.2593 25.7172 10.3404 25.2938 10.0125 25.8492C9.69971 26.3762 9.94748 27.224 9.91091 27.9287C9.88553 28.3937 10.047 28.538 10.5151 28.538C11.3675 28.4627 12.2265 28.522 13.0606 28.7136C14.0329 28.8788 14.724 29.7508 14.6628 30.7351C14.6273 31.6358 14.0536 32.2125 12.9671 32.4684C11.5388 32.719 10.0679 32.5237 8.7544 31.909C8.55132 31.8338 8.24672 31.5383 8.15128 31.7982C7.87333 32.6274 7.64481 33.4724 7.46691 34.3286C7.4253 34.5103 7.69029 34.5885 7.84464 34.6504C10.4448 35.8528 13.445 35.8371 16.0325 34.6078C17.663 33.8484 18.6237 32.1299 18.4166 30.3432C18.1761 28.4394 17.2033 27.4047 15.1381 26.8565V26.8544ZM24.9181 22.7929V23.7545C24.9181 26.5305 24.9039 29.3065 24.9262 32.0805C24.9344 33.0127 24.515 34.295 25.1009 34.7814C25.6654 35.2495 26.9011 34.8829 27.8424 34.9327C28.3358 34.9581 28.4872 34.8159 28.4851 34.3042C28.4655 29.4907 28.4655 24.6772 28.4851 19.8636C28.4851 19.291 28.2871 19.2229 27.7743 19.1823C26.243 19.0332 24.7058 19.4013 23.4083 20.2281C22.7412 20.6485 21.6608 20.7358 21.3999 21.3765C21.1491 21.9909 21.6141 22.8854 21.7228 23.6632C21.7877 24.1292 21.9523 24.1952 22.3604 23.9901C23.1676 23.587 23.9931 23.2235 24.9202 22.7919L24.9181 22.7929Z" fill="#084CD1" fill-opacity="0.66"/>
</svg>
