<svg width="2" height="3" viewBox="0 0 2 3" fill="none" xmlns="http://www.w3.org/2000/svg">
<path fill-rule="evenodd" clip-rule="evenodd" d="M0.099945 0.634948C0.10699 0.644579 0.190057 0.755183 0.153953 0.703486L0.241717 0.823702C0.300128 0.903853 0.357512 0.984021 0.413722 1.06417C0.524234 1.22447 0.63005 1.38918 0.731022 1.5583C0.940305 1.90215 1.13021 2.25562 1.31044 2.6151C1.41523 2.79079 1.64153 2.85016 1.81912 2.74854C1.992 2.64177 2.05071 2.41798 1.95252 2.23997C1.58664 1.48554 1.14342 0.771161 0.63005 0.10831C0.484755 -0.0361218 0.249936 -0.0361035 0.104641 0.108329C-0.0349294 0.256136 -0.0349294 0.48714 0.104641 0.634929" fill="#003849"/>
</svg>
