<svg width="38" height="40" viewBox="0 0 38 40" fill="none" xmlns="http://www.w3.org/2000/svg">
<path fill-rule="evenodd" clip-rule="evenodd" d="M8.5662 4.52376C8.40057 3.01562 9.0744 1.53783 10.3217 0.673991C11.5914 -0.156339 13.214 -0.224293 14.5487 0.497037C15.149 0.961178 15.824 1.31959 16.5448 1.55678C18.3064 1.84903 19.9578 -0.424207 21.5858 0.311998C22.2806 0.626466 22.6739 1.41421 23.3737 1.71658C24.2697 2.10388 25.2637 1.57098 26.1788 1.23016C28.1558 0.495001 30.6717 1.32422 31.143 3.53882C31.3796 4.65115 31.1096 5.13961 31.8731 6.168C32.5486 7.07814 33.5275 7.71621 33.8905 8.84576C34.4163 10.4809 33.3677 12.2607 33.6883 13.9485C34.0867 16.0801 36.5672 17.6627 36.2083 19.8015C36.0086 20.4128 35.8399 21.0338 35.7027 21.6621C35.5955 23.3347 37.5744 24.4177 37.9587 26.0489C38.0889 26.7668 37.908 27.5062 37.4611 28.0829C37.0142 28.6596 36.3433 29.0193 35.6157 29.0725L33.0431 29.5922L9.01521 6.59277L8.5662 4.52376Z" fill="#80CF00"/>
<path fill-rule="evenodd" clip-rule="evenodd" d="M35.6065 29.0744L34.8309 29.2311C35.5064 28.6228 35.8134 27.7047 35.6399 26.8123C35.2435 25.1336 33.2078 24.0183 33.314 22.2971C33.4559 21.6506 33.6304 21.0117 33.8368 20.3829C34.2059 18.1814 31.6526 16.5513 31.243 14.3579C30.9184 12.6206 31.9974 10.7893 31.4564 9.10659C31.0833 7.94371 30.0761 7.28638 29.3813 6.34996C28.5966 5.29021 28.8757 4.78459 28.63 3.64288C28.3709 2.45599 27.4753 1.51055 26.3042 1.18763C28.2599 0.532342 30.6828 1.37267 31.1429 3.53975C31.3796 4.65214 31.1105 5.14054 31.873 6.16899C32.5485 7.07906 33.5274 7.7172 33.8904 8.84669C34.4162 10.4829 33.3676 12.2616 33.6882 13.9494C34.0866 16.0821 36.5671 17.6647 36.2082 19.8034C36.107 20.4395 35.741 21.0169 35.7025 21.6641C35.5963 23.3356 37.5743 24.4197 37.9586 26.0498C38.0884 26.7677 37.9074 27.5069 37.4606 28.0835C37.0137 28.6602 36.3431 29.0199 35.6155 29.0734L35.6065 29.0744Z" fill="#6DB000"/>
<path fill-rule="evenodd" clip-rule="evenodd" d="M24.4121 24.1771L32.1561 31.9201L31.4584 19.4748C31.3877 18.2101 30.378 17.2004 29.1133 17.1297L16.6681 16.432L24.4121 24.1771Z" fill="#FFC143"/>
<path fill-rule="evenodd" clip-rule="evenodd" d="M32.1531 31.9211L30.3126 30.0807L29.6857 18.9045C29.6474 18.2043 29.3145 17.553 28.7695 17.1116L29.1113 17.1308C30.3755 17.2018 31.3848 18.2107 31.4564 19.4748L32.1531 31.9211Z" fill="#EEB900"/>
<path fill-rule="evenodd" clip-rule="evenodd" d="M24.658 13.9869C24.6565 18.4409 21.0468 22.048 16.5957 22.0465C12.1445 22.0449 8.5374 18.4353 8.53895 13.9841C8.54049 9.53296 12.1501 5.92587 16.6013 5.92742C21.0513 5.92896 24.658 9.53685 24.658 13.9869Z" fill="#F72C2C"/>
<path fill-rule="evenodd" clip-rule="evenodd" d="M24.6569 13.9869C24.657 17.0435 22.9287 19.8364 20.1941 21.2002C17.4594 22.5638 14.1887 22.2637 11.7479 20.4249C15.4896 21.5773 19.5182 19.8749 21.2996 16.3886C23.081 12.9023 22.1 8.64011 18.9738 6.2833C22.3522 7.32749 24.6563 10.4507 24.6569 13.9869Z" fill="#E32929"/>
<path fill-rule="evenodd" clip-rule="evenodd" d="M36.5924 33.3914C37.0617 32.8992 37.2015 32.1789 36.9504 31.5469C36.4448 30.3263 37.2072 29.0451 35.9482 27.8609C34.398 26.4027 32.8893 28.0076 31.3401 26.5464C29.7909 25.0851 31.3006 23.4873 29.7504 22.0312C28.2002 20.575 26.6924 22.1778 25.1422 20.7166C23.592 19.2553 25.1008 17.6545 23.5505 16.1974C22.0003 14.7402 20.4916 16.344 18.9413 14.8828C17.3911 13.4216 18.8999 11.8208 17.3487 10.3636C15.7974 8.90637 14.2907 10.5102 12.7394 9.04894C11.1882 7.58777 12.697 5.98698 11.1468 4.52876C9.88677 3.34459 8.65507 4.1809 7.4052 3.75515C6.75793 3.54351 6.04666 3.72886 5.58499 4.22942L4.8033 5.06067C3.59517 6.34607 3.65763 8.36749 4.94285 9.57586L31.2946 34.351C32.58 35.5592 34.6014 35.4967 35.8097 34.2115L36.5924 33.3914Z" fill="#D1F29C"/>
<path fill-rule="evenodd" clip-rule="evenodd" d="M36.5934 33.3924L35.8107 34.2237C35.2302 34.8411 34.4283 35.2025 33.5813 35.2285C32.7343 35.2544 31.9117 34.9428 31.2945 34.3622L30.3945 33.5158C31.5608 33.8775 32.8313 33.5428 33.6679 32.6533L34.4506 31.821C34.9214 31.3298 35.0628 30.6092 34.8126 29.9765C34.4364 29.0664 34.7671 28.1148 34.4283 27.1996C35.0006 27.2246 35.5435 27.4606 35.9522 27.862C37.2112 29.0462 36.4528 30.3274 36.9544 31.548C37.2049 32.1805 37.0639 32.901 36.5934 33.3924H36.5934Z" fill="#BDDB82"/>
<path fill-rule="evenodd" clip-rule="evenodd" d="M0 5.98087V37.4424C0 38.5711 0.91501 39.4861 2.0437 39.4861H34.6853C35.5187 39.4854 36.2682 38.9788 36.5795 38.2057C36.8907 37.4326 36.7014 36.548 36.101 35.97L3.46247 4.5095C2.8723 3.94032 1.99904 3.77892 1.24441 4.09962C0.489785 4.42026 -0.000123442 5.16091 0 5.98087Z" fill="#F78E3C"/>
<path fill-rule="evenodd" clip-rule="evenodd" d="M34.6853 39.4861H33.9471C34.0776 38.8232 33.8579 38.1398 33.3656 37.677L1.3682 6.83644C1.00321 6.47692 0.512313 6.2741 0 6.27114V5.98093C0 5.1606 0.490063 4.42007 1.24475 4.09949C1.99944 3.77898 2.87264 3.9405 3.46272 4.50981L36.101 35.9711C36.7014 36.549 36.8907 37.4337 36.5795 38.2067C36.2682 38.9798 35.5187 39.4864 34.6853 39.4871V39.4861Z" fill="#E8782D"/>
<path fill-rule="evenodd" clip-rule="evenodd" d="M2.09937 12.6672C1.86097 12.6648 1.64696 12.5205 1.55539 12.3003C1.4638 12.0802 1.51231 11.8267 1.67871 11.656L3.87915 9.4555C4.02679 9.29287 4.25198 9.22466 4.46504 9.27811C4.6781 9.33156 4.84446 9.4979 4.89788 9.71096C4.9513 9.92402 4.88313 10.1492 4.7205 10.2969L2.52308 12.4922C2.41155 12.6038 2.26018 12.6664 2.10243 12.6662L2.09937 12.6672Z" fill="#CE631B"/>
<path fill-rule="evenodd" clip-rule="evenodd" d="M3.19865 21.3961C2.95979 21.3948 2.74494 21.2505 2.65322 21.0299C2.56144 20.8094 2.6106 20.5554 2.77796 20.3849L9.25494 13.908C9.49022 13.6944 9.85172 13.7031 10.0764 13.9278C10.3011 14.1525 10.3099 14.514 10.0963 14.7493L3.61934 21.2263C3.50772 21.3377 3.35641 21.4003 3.19865 21.4002V21.3961Z" fill="#CE631B"/>
<path fill-rule="evenodd" clip-rule="evenodd" d="M4.20973 30.2181C3.97133 30.2157 3.75731 30.0714 3.66575 29.8513C3.57419 29.6312 3.6227 29.3777 3.78907 29.2069L13.96 19.0369C14.1077 18.8743 14.3329 18.8061 14.5459 18.8595C14.759 18.9129 14.9253 19.0793 14.9788 19.2924C15.0322 19.5054 14.964 19.7306 14.8014 19.8782L4.63042 30.0431C4.51904 30.1551 4.36764 30.2181 4.20973 30.2181Z" fill="#CE631B"/>
<path fill-rule="evenodd" clip-rule="evenodd" d="M8.6472 35.6111C8.40881 35.6088 8.19479 35.4644 8.10323 35.2444C8.01167 35.0242 8.06018 34.7707 8.22655 34.5999L18.8344 23.992C19.0667 23.7597 19.4434 23.7597 19.6757 23.992C19.908 24.2244 19.908 24.6011 19.6757 24.8334L9.06789 35.4412C8.95636 35.5528 8.80496 35.6154 8.6472 35.6152V35.6111Z" fill="#CE631B"/>
<path fill-rule="evenodd" clip-rule="evenodd" d="M17.3741 36.7153C17.1356 36.7129 16.9216 36.5686 16.8301 36.3485C16.7385 36.1283 16.787 35.8748 16.9534 35.704L24.0624 28.595C24.2976 28.3815 24.6591 28.3902 24.8839 28.6149C25.1085 28.8396 25.1173 29.2011 24.9037 29.4364L17.7947 36.5454C17.6825 36.6555 17.5313 36.7166 17.3741 36.7153Z" fill="#CE631B"/>
<path fill-rule="evenodd" clip-rule="evenodd" d="M27.004 36.9175C26.7656 36.9152 26.5515 36.7709 26.46 36.5508C26.3684 36.3306 26.4169 36.0772 26.5833 35.9063L29.1943 33.2953C29.4295 33.0818 29.7911 33.0905 30.0158 33.3152C30.2405 33.5399 30.2492 33.9014 30.0356 34.1367L27.4246 36.7477C27.3124 36.8578 27.1611 36.9189 27.004 36.9175Z" fill="#CE631B"/>
</svg>
