<svg width="16" height="16" viewBox="0 0 16 16" fill="none" xmlns="http://www.w3.org/2000/svg">
<path d="M4.99927 7.33334C5.55155 7.33334 5.99927 6.88563 5.99927 6.33334C5.99927 5.78106 5.55155 5.33334 4.99927 5.33334C4.44698 5.33334 3.99927 5.78106 3.99927 6.33334C3.99927 6.88563 4.44698 7.33334 4.99927 7.33334Z" fill="#4F5E7B"/>
<path d="M6.99927 9.33332L5.99927 7.99999L3.99927 10.6667H11.9993L8.99927 6.66666L6.99927 9.33332Z" fill="#4F5E7B"/>
<path d="M13.3328 2.66666H2.6661C1.93076 2.66666 1.33276 3.26466 1.33276 3.99999V12C1.33276 12.7353 1.93076 13.3333 2.6661 13.3333H13.3328C14.0681 13.3333 14.6661 12.7353 14.6661 12V3.99999C14.6661 3.26466 14.0681 2.66666 13.3328 2.66666ZM2.6661 12V3.99999H13.3328L13.3341 12H2.6661Z" fill="#4F5E7B"/>
</svg>
