<svg width="14" height="14" viewBox="0 0 14 14" fill="none" xmlns="http://www.w3.org/2000/svg">
<path fill-rule="evenodd" clip-rule="evenodd" d="M12.359 11.813C12.3584 11.5111 12.1138 11.2665 11.812 11.266C11.5101 11.2665 11.2655 11.5111 11.265 11.813C11.2656 12.1149 11.5101 12.3594 11.812 12.36C12.1139 12.3594 12.3584 12.1149 12.359 11.813ZM10.059 11.266C9.75713 11.2665 9.51254 11.5111 9.51199 11.813C9.51256 12.1149 9.75714 12.3594 10.059 12.36C10.3609 12.3594 10.6055 12.1149 10.606 11.813C10.6054 11.5126 10.3633 11.2687 10.063 11.266H10.059ZM14 9.95001C14 9.28723 13.4627 8.75 12.8 8.75H10.079L11.621 7.20801C11.9282 6.89307 12.0182 6.42529 11.8498 6.01886C11.6814 5.61237 11.2869 5.3454 10.847 5.34003H9.40601V1.09399C9.40627 0.803955 9.29123 0.525696 9.08623 0.320496C8.88121 0.115296 8.60306 3.8735e-07 8.313 3.8735e-07H5.688C5.39777 -0.000243753 5.11935 0.11493 4.91414 0.32013C4.70891 0.52533 4.59374 0.803772 4.59399 1.09399V5.34003H3.153C2.71025 5.33966 2.31094 5.6062 2.14148 6.01526C1.972 6.42426 2.06577 6.89508 2.379 7.20801L3.92101 8.75H1.2C0.537262 8.75 0 9.28723 0 9.95001V12.797C0 13.4597 0.537262 13.997 1.2 13.997H12.8C13.4627 13.997 14 13.4597 14 12.797V9.95001ZM6.84399 10.434L3 6.59003C2.93742 6.52698 2.91888 6.4325 2.953 6.35053C2.98711 6.26849 3.06718 6.21503 3.15601 6.21503H5.46899V1.09399C5.46899 0.973023 5.56705 0.875 5.688 0.875H8.313C8.43394 0.875 8.532 0.973023 8.532 1.09399V6.21503H10.845C10.9336 6.21545 11.0133 6.26904 11.0472 6.35095C11.0811 6.43286 11.0625 6.5271 11 6.59003L7.153 10.437C7.06734 10.5215 6.92967 10.5215 6.84399 10.437V10.434ZM13.125 9.95001V12.797C13.1245 12.9767 12.9798 13.1228 12.8 13.125H1.2C1.02025 13.1228 0.875534 12.9767 0.875 12.797V9.95001C0.877151 9.77142 1.02141 9.62714 1.2 9.625H4.8L6.23 11.055C6.65869 11.4795 7.3493 11.4795 7.778 11.055L9.2 9.625H12.8C12.9786 9.62714 13.1228 9.77142 13.125 9.95001Z" fill="white"/>
</svg>
