<svg width="42" height="41" viewBox="0 0 42 41" fill="none" xmlns="http://www.w3.org/2000/svg">
<path fill-rule="evenodd" clip-rule="evenodd" d="M7.60674 34.0607L0 7.61073L26.4439 0L34.0587 26.4479L7.60674 34.0607ZM24.7002 3.15859L3.15933 9.35714L7.50777 24.477C8.71906 22.9186 9.65898 21.1671 10.2879 19.2961C10.6081 18.1396 10.8919 16.9699 11.2663 15.8335C11.3831 15.4832 11.7556 14.9799 12.0364 14.9628C13.358 14.9845 14.5068 14.06 14.7682 12.7644C14.9535 12.1192 15.4477 12.0024 15.9962 12.3618C16.4047 12.6271 16.7872 12.9304 17.1387 13.2677C18.2339 14.3337 19.2938 15.4349 20.389 16.5008C21.92 17.9926 21.9784 18.2251 21.0342 20.1719C20.8087 20.6379 20.4876 21.0566 20.2541 21.5197C19.894 22.2138 19.2286 22.6985 18.4573 22.8282C16.4764 23.3315 14.5196 23.9354 12.5568 24.5021C11.0137 24.9501 9.47362 25.4081 7.90231 25.8751L8.43479 27.5984L29.9353 21.409L29.4461 19.6665L21.3733 21.9606C21.8585 20.5081 22.3437 19.1099 22.7826 17.6987C22.8953 17.19 23.3062 16.801 23.8204 16.7162C24.2465 16.5272 24.6168 16.2316 24.8954 15.8576C25.1123 15.5584 25.2966 15.2368 25.445 14.8984L29.0516 18.2875L24.7002 3.15859Z" fill="#084CD1" fill-opacity="0.66"/>
<path fill-rule="evenodd" clip-rule="evenodd" d="M35.8076 27.7564C35.6194 30.1198 35.4432 32.3384 35.259 34.6505L17.1597 33.3107L17.1325 33.1326L35.8076 27.7564Z" fill="#084CD1" fill-opacity="0.66"/>
<path fill-rule="evenodd" clip-rule="evenodd" d="M35.8654 26.0715C34.4038 22.2465 33.4737 18.491 34.1874 14.4686C34.3957 12.8444 34.5196 11.2106 34.5588 9.57364C33.5523 9.48603 32.6463 9.35517 31.7495 9.34712C31.4764 9.37975 31.2025 9.29466 30.996 9.11311C30.7896 8.93163 30.67 8.67077 30.6674 8.3959C30.5668 7.85839 30.3815 7.33796 30.2004 6.68973C31.7324 6.79645 33.1809 6.8961 34.6294 6.99876C35.0179 7.02598 35.4054 7.07623 35.7949 7.09135C37.489 7.15782 37.332 6.96049 37.2172 8.66966C36.8539 14.0519 36.428 19.429 36.0214 24.8082C35.9922 25.1948 35.9288 25.5743 35.8654 26.0715Z" fill="#084CD1" fill-opacity="0.66"/>
<path fill-rule="evenodd" clip-rule="evenodd" d="M18.5451 35.1699L31.4877 36.1151L28.8505 41L18.5038 35.4044L18.5451 35.1699Z" fill="#084CD1" fill-opacity="0.66"/>
<path fill-rule="evenodd" clip-rule="evenodd" d="M38.5062 14.9375L41.9456 16.7936L38.0079 24.0834L37.8136 24.0481C38.0401 21.0636 38.2706 18.078 38.5062 14.9375Z" fill="#084CD1" fill-opacity="0.66"/>
<path fill-rule="evenodd" clip-rule="evenodd" d="M10.1521 12.1163C10.1425 12.6902 9.89877 13.2353 9.47737 13.6252C9.05597 14.015 8.49358 14.2157 7.92062 14.1808C7.34582 14.1696 6.79965 13.9278 6.40491 13.5098C6.01024 13.0919 5.80007 12.5327 5.82182 11.9583C5.89357 10.769 6.88418 9.84433 8.07557 9.85453C9.27229 9.90841 10.2005 10.9194 10.1521 12.1163Z" fill="#084CD1" fill-opacity="0.66"/>
</svg>
