<svg width="13" height="13" viewBox="0 0 13 13" fill="none" xmlns="http://www.w3.org/2000/svg">
<path fill-rule="evenodd" clip-rule="evenodd" d="M6.49994 0C2.91011 0 0 2.91012 0 6.49995C0 10.0898 2.91011 12.9999 6.49994 12.9999C10.0898 12.9999 12.9999 10.0898 12.9999 6.49995C12.9999 2.91012 10.0898 0 6.49994 0ZM6.49994 11.7329C3.6074 11.7335 1.2619 9.38939 1.26077 6.49685C1.26011 5.10878 1.81159 3.77585 2.79389 2.79298C3.77623 1.81009 5.10882 1.25781 6.49843 1.25768C7.88829 1.25701 9.22144 1.80872 10.2043 2.79136C11.1873 3.77399 11.7394 5.10699 11.7391 6.49685C11.7377 9.38988 9.39197 11.7338 6.49943 11.7329H6.49994ZM8.11873 9.00088C8.18662 9.05118 8.27176 9.07228 8.35526 9.05949C8.43876 9.04669 8.5137 9.00109 8.56341 8.93278L9.05554 8.2539C9.10639 8.18641 9.12746 8.10107 9.11382 8.01768C9.10019 7.93427 9.05302 7.86009 8.98334 7.81231L7.22938 6.53915V2.82489C7.22607 2.65534 7.08942 2.51867 6.91987 2.51538H6.08105C5.91149 2.51867 5.77481 2.65534 5.77154 2.82489V7.12621C5.77169 7.22626 5.81911 7.32037 5.89946 7.38001L8.11873 9.00088Z" fill="#A5A5A5"/>
</svg>
