<svg width="13" height="13" viewBox="0 0 13 13" fill="none" xmlns="http://www.w3.org/2000/svg">
<path fill-rule="evenodd" clip-rule="evenodd" d="M6.31531 4.71404C6.62849 4.42176 6.96882 4.13253 7.27997 3.8152C8.4012 2.67409 9.51102 1.5184 10.6291 0.378372C10.9108 0.0752539 11.3301 -0.0590052 11.7354 0.0242138C12.1408 0.107369 12.4733 0.395959 12.6127 0.785482C12.792 1.21757 12.687 1.71542 12.3486 2.03829C11.0958 3.33494 9.83918 4.62776 8.57872 5.91677L8.01499 6.4972L8.72075 7.22801C9.92271 8.46412 11.1251 9.70017 12.3278 10.9363C12.6605 11.2455 12.7828 11.72 12.641 12.1515C12.5268 12.573 12.1794 12.8907 11.7494 12.9669C11.3516 13.0653 10.9317 12.9407 10.6521 12.6411C9.49642 11.4593 8.34805 10.2692 7.19127 9.09151C6.9125 8.80757 6.61186 8.54447 6.33206 8.28245C6.18589 8.4213 6.00218 8.58309 5.83199 8.75749C4.62512 9.99494 3.41997 11.2338 2.21661 12.4741C2.04202 12.6862 1.81441 12.8483 1.55679 12.9439C1.03434 13.1072 0.467613 12.8958 0.179787 12.4303C-0.105999 11.9735 -0.0462929 11.3811 0.324879 10.9906C0.918881 10.3642 1.52129 9.75554 2.12052 9.13854C2.94322 8.2922 3.76623 7.44689 4.58956 6.60265C4.66475 6.52644 4.66679 6.48675 4.58956 6.40639C3.45368 5.24477 2.3206 4.08072 1.19033 2.91419C0.915759 2.63127 0.641187 2.34734 0.364513 2.06652C0.133463 1.84197 0.00309044 1.53356 0.00309044 1.21145C0.00309044 0.889347 0.133463 0.58094 0.364513 0.356452C0.591613 0.131009 0.899956 0.00669065 1.21983 0.0115971C1.53977 0.0165036 1.84417 0.150253 2.06419 0.382514C3.24487 1.5925 4.41937 2.80982 5.60017 4.01981C5.83511 4.26621 6.09713 4.50421 6.31531 4.71404Z" fill="white"/>
</svg>
