<svg width="39" height="39" viewBox="0 0 39 39" fill="none" xmlns="http://www.w3.org/2000/svg">
<path fill-rule="evenodd" clip-rule="evenodd" d="M6.85603 9.14051C5.00757 9.14051 3.34112 8.02698 2.63373 6.31922C1.92636 4.61145 2.31736 2.64575 3.62442 1.33872C4.93149 0.0316287 6.8972 -0.359349 8.60496 0.347978C10.3127 1.05537 11.4262 2.72181 11.4262 4.57032C11.4239 7.09353 9.37903 9.13827 6.85592 9.14051H6.85603Z" fill="#084CD1" fill-opacity="0.66"/>
<path fill-rule="evenodd" clip-rule="evenodd" d="M32.144 32.1442C29.6199 32.1442 27.5738 30.098 27.5738 27.574C27.5738 25.0499 29.6199 23.0038 32.144 23.0038C34.668 23.0038 36.7141 25.0499 36.7142 27.574C36.7118 30.0972 34.667 32.142 32.1438 32.1442H32.144Z" fill="#084CD1" fill-opacity="0.66"/>
<path fill-rule="evenodd" clip-rule="evenodd" d="M24.319 27.6196C22.1246 26.8883 20.2639 25.3967 19.0728 23.414C17.2313 20.3145 13.8879 18.4202 10.2827 18.4335C4.6037 18.4335 0 23.0371 0 28.7161C0 34.3951 4.6037 38.9988 10.2827 38.9988C13.8821 39.0122 17.221 37.124 19.0646 34.0326C20.2697 32.0368 22.1467 30.5359 24.3587 29.7993C24.8222 29.6392 25.1302 29.1993 25.1222 28.709C25.1147 28.2126 24.7941 27.7752 24.323 27.6186L24.319 27.6196ZM10.2822 34.4295C9.65131 34.4295 9.13989 33.9181 9.13989 33.2873C9.13989 32.6564 9.6513 32.145 10.2822 32.145C10.913 32.1449 11.4245 32.6564 11.4245 33.2873C11.4245 33.9181 10.913 34.4295 10.2822 34.4295H10.2822ZM11.4396 29.66C11.4434 30.3121 10.9407 30.8553 10.2902 30.902C9.99727 30.9251 9.7078 30.8263 9.49006 30.629C9.27232 30.4316 9.14559 30.1533 9.13977 29.8595C9.0835 28.8272 9.70085 27.8769 10.6669 27.5087C11.2142 27.3137 11.5282 26.7391 11.3968 26.1732C11.2653 25.6071 10.7303 25.2298 10.153 25.2959C9.57575 25.362 9.13987 25.8505 9.13977 26.4316C9.13977 27.0627 8.62812 27.5744 7.99697 27.5744C7.36582 27.5744 6.85417 27.0627 6.85417 26.4316C6.85417 24.6902 8.1603 23.2254 9.89064 23.0265C11.621 22.8276 13.2254 23.9579 13.6206 25.6542C14.0157 27.3505 13.076 29.0735 11.4359 29.6598L11.4396 29.66Z" fill="#084CD1" fill-opacity="0.66"/>
<path fill-rule="evenodd" clip-rule="evenodd" d="M12.5682 15.9962H1.14229C0.839159 15.9962 0.548458 15.8757 0.33421 15.6612C0.119959 15.4468 -0.000271858 15.156 0 14.8529C0.00407398 11.6993 2.55946 9.14418 5.71274 9.14039H7.99807C11.1513 9.1443 13.7066 11.6996 13.7105 14.8528C13.7108 15.156 13.5906 15.4468 13.3763 15.6612C13.1621 15.8757 12.8714 15.9962 12.5683 15.9962H12.5682Z" fill="#084CD1" fill-opacity="0.66"/>
<path fill-rule="evenodd" clip-rule="evenodd" d="M37.8563 39H26.4304C26.1272 39 25.8365 38.8795 25.6223 38.6651C25.408 38.4506 25.2878 38.1598 25.2881 37.8566C25.292 34.7034 27.8472 32.1481 31.0005 32.1442H33.2861C36.4394 32.1481 38.9947 34.7033 38.9986 37.8566C38.9989 38.1598 38.8786 38.4506 38.6644 38.6651C38.4501 38.8795 38.1594 39 37.8563 39Z" fill="#084CD1" fill-opacity="0.66"/>
<path fill-rule="evenodd" clip-rule="evenodd" d="M28.7159 0C23.8891 0 21.7736 1.90586 19.9257 4.97944C18.8468 6.87617 17.1038 8.30623 15.0328 8.99374C14.5294 9.08701 14.1076 9.42933 13.9129 9.90289C13.7134 10.51 14.0412 11.1643 14.6469 11.3679C16.8547 12.1058 18.7275 13.6058 19.9298 15.5991C21.7734 18.6905 25.1124 20.5787 28.7118 20.5653C34.3907 20.5653 38.9944 15.9616 38.9944 10.2826C38.9944 4.60369 34.3907 0 28.7118 0H28.7159ZM33.0932 8.66701L28.3846 13.3757C28.1704 13.59 27.8797 13.7103 27.5767 13.7103C27.2737 13.7103 26.9831 13.59 26.7689 13.3757L24.3458 10.9526C23.8999 10.5064 23.9 9.78321 24.3461 9.33718C24.7921 8.89115 25.5153 8.89102 25.9615 9.33687L27.5772 10.9526L31.4775 7.05233C31.9237 6.60642 32.6469 6.60655 33.0929 7.05258C33.539 7.49861 33.5391 8.22179 33.0932 8.66801L33.0932 8.66701Z" fill="#084CD1" fill-opacity="0.66"/>
</svg>
