<svg width="57" height="33" viewBox="0 0 57 33" fill="none" xmlns="http://www.w3.org/2000/svg">
<path fill-rule="evenodd" clip-rule="evenodd" d="M40.6973 0.00288144C40.9896 0.325909 41.2505 0.676035 41.4766 1.04848C41.7517 1.75057 42.46 2.18431 43.2104 2.11026C44.0221 2.04901 44.8276 1.89127 45.6332 1.76068C48.8859 1.32387 51.939 3.42597 52.6916 6.62026C52.7642 7.07387 52.7267 7.53821 52.5823 7.97429C52.3211 8.80396 51.9626 9.60353 51.643 10.4151C51.3417 11.1765 51.0905 11.2599 50.3102 10.835L50.4608 10.2675L50.0358 10.0224L49.6864 10.6442L45.4103 8.96268L45.6222 8.32785L45.1349 8.13301L44.8617 8.68748C43.9828 8.48155 43.8573 8.25054 44.1707 7.44196C44.5113 6.56306 44.8607 5.6882 45.2546 4.68675C44.7619 4.6111 44.2636 4.5775 43.7651 4.58633C41.6556 4.81838 39.7894 2.37651 39.6298 0.961236C39.5957 0.659911 39.8858 0.321372 40.0315 0L40.6973 0.00288144ZM52.1482 6.88547C52.1278 6.70639 52.0974 6.52866 52.0567 6.35308C51.1596 3.49457 48.2436 1.77981 45.3095 2.38552C44.5865 2.5521 43.8486 2.64565 43.1068 2.66472C42.1813 2.73314 41.3208 2.18523 40.9915 1.31774C40.911 1.11052 40.8012 0.915991 40.6651 0.740162C40.5888 0.650776 40.412 0.647772 40.2793 0.605593C40.2337 0.71662 40.2065 0.834391 40.1989 0.954185C40.5834 2.64633 42.031 3.88688 43.7618 4.00765C44.5237 3.9892 45.2803 4.13762 45.9787 4.44256C47.9788 5.27132 50.0098 6.04072 52.1442 6.88143L52.1482 6.88547Z" fill="#084CD1" fill-opacity="0.66"/>
<path fill-rule="evenodd" clip-rule="evenodd" d="M29.5439 15.154L31.4243 14.0492C31.9729 14.4298 32.5572 14.7561 33.1691 15.0235C33.9639 15.2637 34.8217 15.1737 35.5493 14.7737C36.2766 14.3738 36.8125 13.6977 37.0354 12.8981C37.1327 12.6081 37.3061 12.3496 37.5376 12.1496C38.2277 11.5551 38.9437 10.9935 39.6721 10.4421C39.9043 10.3099 39.9882 10.0162 39.8609 9.7812C39.5144 8.86006 39.1929 7.92892 38.8736 6.99877C38.6666 6.39612 38.8295 5.96721 39.3086 5.79341C39.7878 5.6196 40.1966 5.84766 40.4136 6.4413C40.8364 7.61147 41.2374 8.78974 41.6682 9.9569C41.886 10.431 41.7131 10.9929 41.2665 11.2627C40.4087 11.9186 39.586 12.6177 38.7272 13.2716C38.4388 13.4435 38.3086 13.7926 38.4138 14.1113C38.8476 16.1644 39.2878 18.2196 39.6272 20.2897C39.6954 20.9864 39.6468 21.6894 39.4835 22.37C39.3275 23.0106 39.1318 23.6409 38.8979 24.2574L41.8963 23.6115C42.1504 23.5562 42.3985 23.4889 42.6597 23.4438C43.0486 23.3255 43.4692 23.3767 43.8184 23.5848C44.1676 23.7928 44.4128 24.1384 44.4938 24.5366C44.5583 24.928 44.4594 25.3287 44.2206 25.6453C43.9815 25.9619 43.6232 26.1668 43.2291 26.212C41.6672 26.5596 40.1032 26.8931 38.5403 27.2326C38.1043 27.328 37.6695 27.4335 37.2345 27.5219C36.7112 27.6825 36.142 27.5292 35.7697 27.1274C35.3977 26.7256 35.2886 26.1462 35.489 25.6365C35.6273 25.1594 35.7901 24.6883 35.9348 24.2142L35.7862 24.0977C35.2025 24.7074 34.613 25.311 34.0446 25.9338C33.9538 26.0734 33.8967 26.2323 33.8778 26.3978C33.4609 28.1124 33.0531 29.8291 32.6342 31.5427C32.5813 31.9352 32.3696 32.2888 32.0489 32.5211C31.7281 32.7534 31.3262 32.8441 30.9368 32.7721C30.5196 32.6816 30.1636 32.4123 29.9627 32.0356C29.7619 31.659 29.7369 31.2132 29.8941 30.8164C30.2617 29.2625 30.7499 27.7267 30.9829 26.1527C31.2551 24.8338 32.0143 23.6659 33.1095 22.8822C33.5705 22.555 33.7584 21.9616 33.5695 21.4288C33.1223 19.5896 32.802 17.7193 32.4292 15.861C32.4052 15.7375 32.364 15.6179 32.3086 15.4211C31.5543 15.8711 30.8441 16.298 30.13 16.7188C29.4811 17.1015 29.2511 17.0845 28.6875 16.5822C27.5492 15.5664 26.4143 14.5459 25.2825 13.5207C24.7803 13.0697 24.7219 12.6026 25.0917 12.2149C25.4444 11.8453 25.8954 11.8694 26.3723 12.2983C27.4204 13.2466 28.4712 14.1918 29.5439 15.154Z" fill="#084CD1" fill-opacity="0.66"/>
<path fill-rule="evenodd" clip-rule="evenodd" d="M19.6737 16.5563C20.0595 19.8589 22.1177 22.0647 24.0511 24.3971C22.3955 25.7026 20.4563 26.6006 18.39 27.0186C16.7526 27.3141 15.0691 27.2312 13.4682 26.7766C12.9599 26.6086 12.4768 26.372 12.0322 26.0735C11.7526 25.9047 11.7406 25.6596 11.9936 25.3814C12.8586 24.4321 13.7012 23.4648 14.543 22.4936C14.6806 22.3513 14.7689 22.1685 14.7951 21.9723C14.8153 20.566 14.8062 19.1598 14.8062 17.7395C14.2468 18.0288 13.5707 18.3562 12.9167 18.7249C12.5327 18.9664 12.0454 18.9718 11.6562 18.7389C10.6356 18.2025 9.57888 17.7345 8.57761 17.1639C8.30369 16.9726 8.13596 16.6633 8.12492 16.3292C8.14576 16.0942 8.50846 15.8341 8.77747 15.6994C8.92314 15.6261 9.20344 15.7617 9.39815 15.8551C10.2018 16.2408 11.0054 16.6276 11.7928 17.0535C12.0949 17.2337 12.4733 17.2263 12.7681 17.0344C13.9584 16.4227 15.1436 15.7909 16.3771 15.2756C18.4238 14.5049 20.7209 14.8103 22.4951 16.0893C23.1695 16.6461 23.7563 17.3009 24.236 18.0319C24.491 18.3282 24.7463 18.6245 24.9812 18.9359C25.1266 19.0874 25.199 19.2946 25.1798 19.5037C25.1605 19.7128 25.0513 19.9033 24.8807 20.0257C24.7301 20.1734 24.5221 20.2474 24.3122 20.2281C24.1021 20.2088 23.911 20.098 23.7899 19.9253C23.1771 19.2222 22.5593 18.5261 21.996 17.7879C21.4328 17.0496 20.5867 16.9068 19.6737 16.5563Z" fill="#084CD1" fill-opacity="0.66"/>
<path fill-rule="evenodd" clip-rule="evenodd" d="M4.81309 20.9819C5.24273 21.1302 5.65766 21.3185 6.05247 21.5443C7.31908 22.4263 8.54964 23.3625 9.80619 24.2564C10.1299 24.4359 10.2611 24.8339 10.1078 25.1705C9.57788 26.6498 8.63473 27.946 7.3902 28.9051C7.09053 29.1827 6.62582 29.1765 6.33375 28.8911C5.15052 27.987 3.93198 27.1312 2.73477 26.2473C2.20532 25.9309 1.84337 25.3962 1.7465 24.7871C1.64939 24.1781 1.82743 23.5574 2.23254 23.0923C2.52388 22.6824 2.81815 22.2757 3.12861 21.8809C3.54575 21.3661 4.15342 21.0419 4.81309 20.9819ZM7.93274 23.5654C7.57692 23.7162 7.24537 23.9193 6.94937 24.168C6.40619 24.8241 5.89906 25.5096 5.43067 26.2212C5.1646 26.6003 5.13542 27.0972 5.35539 27.5049C5.70092 25.9047 6.90033 24.8661 7.93593 23.5654H7.93274ZM6.32532 27.6556C7.05856 26.6512 7.76359 25.6889 8.45587 24.7186C8.48603 24.6754 8.3975 24.5488 8.35533 24.4423C7.5007 25.272 6.17598 27.2789 6.33047 27.6546L6.32532 27.6556Z" fill="#084CD1" fill-opacity="0.66"/>
<path fill-rule="evenodd" clip-rule="evenodd" d="M36.8128 12.0352C36.816 13.5608 35.5979 14.8087 34.0726 14.8426C32.5267 14.8478 31.2625 13.6121 31.2323 12.0664C31.2412 10.542 32.4602 9.30088 33.9843 9.2649C34.7276 9.25447 35.4444 9.54115 35.9753 10.0613C36.5065 10.5814 36.8079 11.292 36.8128 12.0352ZM33.8916 13.7429C34.1005 13.7221 34.3043 13.6661 34.4944 13.5772C34.6582 13.4265 34.7943 13.2479 34.8961 13.0498C34.7192 12.9845 34.5454 12.9052 34.3637 12.858C33.7609 12.7023 33.1643 12.5506 32.5617 12.414C32.3641 12.3819 32.1645 12.3631 31.9641 12.3577C32.0134 12.5777 31.9962 12.8509 32.1237 13.0096C32.5821 13.4934 33.2248 13.7587 33.8909 13.7389L33.8916 13.7429Z" fill="#084CD1" fill-opacity="0.66"/>
<path fill-rule="evenodd" clip-rule="evenodd" d="M15.7236 9.46081C16.4465 9.46241 17.1393 9.75116 17.6491 10.2636C18.1592 10.776 18.4446 11.47 18.4427 12.1929C18.4177 13.676 17.2141 14.8685 15.7307 14.8798C14.2262 14.8872 12.9981 13.6783 12.9814 12.1738C12.9942 10.6694 14.2191 9.4575 15.7236 9.46081ZM14.1164 12.9433L13.9898 13.103C14.1566 13.3039 14.2981 13.6314 14.492 13.6665C15.0087 13.773 15.5401 13.7852 16.061 13.7027C16.4195 13.571 16.7401 13.3529 16.9941 13.0678C17.0824 12.9895 17.0402 12.7665 17.0574 12.6068C16.9088 12.5796 16.757 12.5741 16.6066 12.5907C16.2437 12.7259 15.8727 12.8386 15.4958 12.9283C15.035 12.9638 14.5725 12.9688 14.1112 12.9434L14.1164 12.9433Z" fill="#084CD1" fill-opacity="0.66"/>
<path fill-rule="evenodd" clip-rule="evenodd" d="M18.351 27.5791C19.4709 27.1773 20.4965 26.8017 21.5291 26.4471C21.6831 26.4038 21.8472 26.4123 21.996 26.4712C23.1346 26.9205 24.27 27.3799 25.4025 27.8493C25.7449 27.9572 26.0271 28.202 26.1823 28.5255C26.3376 28.849 26.352 29.2224 26.2221 29.5569C26.0855 29.8876 25.8187 30.1474 25.4844 30.2751C25.1504 30.4029 24.7784 30.3872 24.4559 30.2319C22.6287 29.5026 20.8067 28.7614 18.99 28.008C18.7632 27.8867 18.5491 27.743 18.351 27.5791Z" fill="#084CD1" fill-opacity="0.66"/>
<path fill-rule="evenodd" clip-rule="evenodd" d="M12.2256 26.8591L14.7228 27.523C14.2547 28.9784 13.7816 30.4741 13.2904 31.9637C13.1335 32.5649 12.5704 32.9688 11.9505 32.925C11.374 32.8782 10.8997 32.4511 10.7935 31.8823C10.7567 31.72 10.7589 31.5513 10.8004 31.3901C11.2705 29.8674 11.7546 28.3497 12.2256 26.8591Z" fill="#084CD1" fill-opacity="0.66"/>
<path fill-rule="evenodd" clip-rule="evenodd" d="M49.3822 10.8722C49.545 11.1494 49.6041 11.3814 49.7427 11.4467C49.8491 11.4969 50.0551 11.3393 50.2991 11.2458L51.0142 11.4819L50.6125 12.5084L43.4908 9.714L43.8925 8.69348L44.5956 8.99984C44.6961 9.22784 44.7283 9.47595 44.8357 9.5131C44.9774 9.56331 45.1783 9.44879 45.348 9.28712L49.3822 10.8722Z" fill="#084CD1" fill-opacity="0.66"/>
<path fill-rule="evenodd" clip-rule="evenodd" d="M22.8203 12.2652C22.7884 12.6804 22.5662 13.0573 22.218 13.2858C21.87 13.5143 21.4357 13.5684 21.0423 13.4324C20.2738 13.1171 19.5496 12.7031 18.8878 12.2009C18.6769 12.0472 18.707 11.5651 18.6217 11.2146C19.1757 11.1012 19.7517 11.2363 20.1975 11.5842C20.5384 11.8072 20.8587 12.0613 21.2022 12.2873C21.7263 12.6279 22.2658 12.8177 22.8203 12.2652Z" fill="#084CD1" fill-opacity="0.66"/>
<path fill-rule="evenodd" clip-rule="evenodd" d="M9.817 23.9501C9.74269 23.7282 9.66128 23.5092 9.59507 23.2852C9.53523 22.8334 9.39937 22.395 9.19338 21.9884C8.63034 21.3012 8.02045 20.6535 7.36839 20.0499C7.05401 19.7405 6.73668 19.7937 6.50347 20.1955C6.42524 20.322 6.33843 20.4432 6.24402 20.5581C5.87764 21.0333 5.87666 21.0322 5.32931 20.741C5.59955 20.4014 5.87078 20.0549 6.14789 19.7144C6.28154 19.4826 6.51082 19.3218 6.7742 19.2753C7.03758 19.2288 7.30806 19.3013 7.51283 19.4734C8.49767 20.1157 9.31207 20.9874 9.88615 22.0137C10.2062 22.5901 10.2569 23.2779 10.025 23.895L9.817 23.9501Z" fill="#084CD1" fill-opacity="0.66"/>
<path fill-rule="evenodd" clip-rule="evenodd" d="M31.5619 8.07974L27.5068 2.50299L28.231 2.13337C28.9733 2.92484 31.7005 7.68498 31.5619 8.07974Z" fill="#084CD1" fill-opacity="0.66"/>
<path fill-rule="evenodd" clip-rule="evenodd" d="M9.08916 3.54153L9.89277 3.15585L13.361 8.92547L13.119 9.08315L9.08916 3.54153Z" fill="#084CD1" fill-opacity="0.66"/>
<path fill-rule="evenodd" clip-rule="evenodd" d="M32.6144 0.679897C32.7773 2.94894 32.9359 5.14974 33.0936 7.34951L32.922 7.39469C32.856 7.31358 32.805 7.22144 32.7714 7.12249C32.5242 5.15575 32.2974 3.18601 32.0362 1.22032C31.9717 0.740162 32.2932 0.787368 32.6144 0.679897Z" fill="#084CD1" fill-opacity="0.66"/>
<path fill-rule="evenodd" clip-rule="evenodd" d="M30.6535 9.01191C30.5218 8.96268 30.3862 8.9205 30.2587 8.86226C28.5391 8.0657 26.8255 7.25516 25.0978 6.47766C24.6829 6.29085 24.6248 6.07585 24.8668 5.66L30.781 8.7909L30.6535 9.01191Z" fill="#084CD1" fill-opacity="0.66"/>
<path fill-rule="evenodd" clip-rule="evenodd" d="M12.3093 10.1278L6.25235 7.31536L6.39287 6.74882C7.60234 7.15467 12.1526 9.67985 12.3093 10.1278Z" fill="#084CD1" fill-opacity="0.66"/>
<path fill-rule="evenodd" clip-rule="evenodd" d="M14.415 8.44439C14.3637 8.08783 14.3076 7.73323 14.2622 7.37562C14.0533 5.71825 13.8605 4.06093 13.6354 2.40355C13.577 1.97464 13.6987 1.76473 14.2019 1.76172C14.3605 3.97154 14.5197 6.18565 14.6791 8.40417L14.415 8.44439Z" fill="#084CD1" fill-opacity="0.66"/>
<path fill-rule="evenodd" clip-rule="evenodd" d="M57 18.3982H44.817C45.2067 17.1339 56.5331 16.9857 57 18.3982Z" fill="#084CD1" fill-opacity="0.66"/>
<path fill-rule="evenodd" clip-rule="evenodd" d="M49.9587 17.5063H41.4702C41.8387 16.2682 49.4685 16.0694 49.9587 17.5063Z" fill="#084CD1" fill-opacity="0.66"/>
<path fill-rule="evenodd" clip-rule="evenodd" d="M43.3035 18.3503H51.7619C51.4819 19.4849 44.0487 19.8799 43.3035 18.3503Z" fill="#084CD1" fill-opacity="0.66"/>
<path fill-rule="evenodd" clip-rule="evenodd" d="M3.26772 21.3013C3.06786 21.4392 2.85402 21.5561 2.62988 21.6498C2.26106 21.74 1.9994 22.067 1.99204 22.4465C1.93098 22.773 1.79782 23.0818 1.60262 23.3504C1.40741 22.6644 1.26592 21.9824 1.84441 21.4419C2.21275 21.0373 2.82729 20.9766 3.26772 21.3013Z" fill="#084CD1" fill-opacity="0.66"/>
<path fill-rule="evenodd" clip-rule="evenodd" d="M53.8983 8.3379C54.6696 7.74114 54.741 6.80608 54.0658 6.14617C54.6112 6.33898 54.9425 6.76605 54.899 7.2199C54.9249 7.7179 54.5197 8.17084 53.8983 8.3379Z" fill="#084CD1" fill-opacity="0.66"/>
<path fill-rule="evenodd" clip-rule="evenodd" d="M0.563446 24.2144C0.303363 25.0113 0.466521 25.8732 1.00446 26.5447C0.533292 26.4383 0.168475 26.099 0.061588 25.6679C-0.111262 25.1355 0.0871656 24.5609 0.563446 24.2144Z" fill="#084CD1" fill-opacity="0.66"/>
<path fill-rule="evenodd" clip-rule="evenodd" d="M1.19208 24.579C0.878931 25.075 1.10342 25.6741 1.71072 25.9631L1.459 26.0947C1.21266 25.9281 0.9945 25.7377 0.810539 25.5282C0.5775 25.1844 0.748163 24.7595 1.19176 24.5789L1.19208 24.579Z" fill="#084CD1" fill-opacity="0.66"/>
<path fill-rule="evenodd" clip-rule="evenodd" d="M53.4335 7.909C53.7287 7.71232 53.8817 7.44882 53.8573 7.17987C53.8325 6.91092 53.632 6.65998 53.3029 6.48569C54.0468 6.59218 54.2902 6.76194 54.3063 7.13659C54.3208 7.49217 54.1986 7.81661 53.4335 7.909Z" fill="#084CD1" fill-opacity="0.66"/>
</svg>
