<svg width="19" height="19" viewBox="0 0 19 19" fill="none" xmlns="http://www.w3.org/2000/svg">
<path fill-rule="evenodd" clip-rule="evenodd" d="M2.1119 4.16467C-0.364471 6.78011 -0.551227 11.101 0.96957 14.2419C3.14104 18.1539 7.80288 19.9488 12.0371 18.503C15.723 17.0425 18.3181 13.6866 18.8039 9.75166C19.0108 5.81824 16.6863 2.1909 13.0262 0.735564C11.2316 -0.0547814 9.222 -0.213572 7.32559 0.285115C5.1717 0.955526 3.31356 2.34557 2.06224 4.22248C1.82681 4.55018 2.36652 4.86468 2.60406 4.53902C4.71732 1.5969 8.11385 -0.0902548 11.7184 0.930355C15.1935 1.86939 17.7533 4.8196 18.1932 8.39218C18.2844 11.9339 16.4698 15.2527 13.4391 17.0877C11.5812 18.3196 9.28888 18.708 7.1288 18.157C5.14953 17.6928 3.38526 16.5734 2.12206 14.9805C0.0565965 12.0475 0.0199388 7.28737 2.55229 4.61207C2.83019 4.31887 2.38683 3.87451 2.10893 4.16771" fill="#003849"/>
</svg>
