<svg width="12" height="21" viewBox="0 0 12 21" fill="none" xmlns="http://www.w3.org/2000/svg">
<path fill-rule="evenodd" clip-rule="evenodd" d="M9.53711 20.0833L0.292203 10.9464C0.105304 10.763 0 10.5122 0 10.2504C0 9.98856 0.105304 9.73774 0.292203 9.55439L9.53711 0.417492C10.1036 -0.139159 11.0116 -0.139159 11.5781 0.417492C11.848 0.683434 12 1.04653 12 1.42548C12 1.80441 11.848 2.16752 11.5781 2.43346L3.66917 10.2504L11.5781 18.0653C11.8478 18.3316 11.9997 18.6948 11.9997 19.0738C11.9997 19.4528 11.8478 19.816 11.5781 20.0823C11.0116 20.6389 10.1036 20.6389 9.53711 20.0823" fill="white"/>
</svg>
