<svg width="18" height="13" viewBox="0 0 18 13" fill="none" xmlns="http://www.w3.org/2000/svg">
<path fill-rule="evenodd" clip-rule="evenodd" d="M12.121 0.189211C11.8731 -0.0612604 11.469 -0.0633201 11.2185 0.184624C10.9681 0.432567 10.966 0.836611 11.2139 1.08708L15.8157 5.68882H0.635057C0.466552 5.68801 0.30471 5.75451 0.185466 5.87354C0.066238 5.99259 -0.000530528 6.15434 1.56038e-05 6.32283C-0.00134192 6.49251 0.0648336 6.65578 0.183953 6.77662C0.303087 6.89749 0.465382 6.96599 0.635057 6.96708H15.8136L11.2119 11.5586C10.9668 11.8113 10.9668 12.2129 11.2119 12.4656C11.3315 12.5872 11.4949 12.6557 11.6654 12.6557C11.836 12.6557 11.9994 12.5872 12.1189 12.4656L17.8098 6.77481C17.9313 6.65713 18 6.49513 18 6.32589C18 6.15668 17.9313 5.99468 17.8098 5.87697L12.121 0.189211Z" fill="white"/>
</svg>
