<svg width="16" height="16" viewBox="0 0 16 16" fill="none" xmlns="http://www.w3.org/2000/svg">
<path d="M5.64343 7.52865C6.39876 6.77331 7.7161 6.77331 8.47143 7.52865L8.94276 7.99998L9.88543 7.05731L9.4141 6.58598C8.78543 5.95665 7.9481 5.60931 7.05743 5.60931C6.16676 5.60931 5.32943 5.95665 4.70076 6.58598L3.2861 7.99998C2.66229 8.62579 2.31201 9.47337 2.31201 10.357C2.31201 11.2406 2.66229 12.0882 3.2861 12.714C3.59535 13.0237 3.96274 13.2692 4.36718 13.4365C4.77161 13.6037 5.20511 13.6894 5.64276 13.6886C6.08054 13.6896 6.51417 13.6039 6.91873 13.4367C7.32329 13.2694 7.69079 13.0238 8.0001 12.714L8.47143 12.2426L7.52876 11.3L7.05743 11.7713C6.68174 12.1453 6.17321 12.3553 5.6431 12.3553C5.11298 12.3553 4.60445 12.1453 4.22876 11.7713C3.85443 11.3958 3.64423 10.8872 3.64423 10.357C3.64423 9.82676 3.85443 9.31816 4.22876 8.94265L5.64343 7.52865Z" fill="#4F5E7B"/>
<path d="M8.00008 3.28601L7.52875 3.75734L8.47141 4.70001L8.94275 4.22867C9.31843 3.85467 9.82696 3.64469 10.3571 3.64469C10.8872 3.64469 11.3957 3.85467 11.7714 4.22867C12.1457 4.60419 12.3559 5.11278 12.3559 5.64301C12.3559 6.17323 12.1457 6.68183 11.7714 7.05734L10.3567 8.47134C9.60141 9.22667 8.28408 9.22667 7.52875 8.47134L7.05741 8.00001L6.11475 8.94267L6.58608 9.41401C7.21475 10.0433 8.05208 10.3907 8.94275 10.3907C9.83341 10.3907 10.6707 10.0433 11.2994 9.41401L12.7141 8.00001C13.3379 7.3742 13.6882 6.52662 13.6882 5.64301C13.6882 4.75939 13.3379 3.91182 12.7141 3.28601C12.0884 2.66188 11.2408 2.31137 10.3571 2.31137C9.47336 2.31137 8.62572 2.66188 8.00008 3.28601Z" fill="#4F5E7B"/>
</svg>
