<svg width="24" height="24" viewBox="0 0 24 24" fill="none" xmlns="http://www.w3.org/2000/svg">
<path d="M9.5 12C11.706 12 13.5 10.206 13.5 8C13.5 5.794 11.706 4 9.5 4C7.294 4 5.5 5.794 5.5 8C5.5 10.206 7.294 12 9.5 12ZM11 13H8C4.691 13 2 15.691 2 19V20H17V19C17 15.691 14.309 13 11 13Z" fill="#2F80ED"/>
<path d="M16.6041 11.048C17.2131 10.0101 17.4761 8.80534 17.3551 7.60803C17.1761 5.82403 16.1801 4.24703 14.5521 3.16803L13.4471 4.83403C14.5661 5.57603 15.2471 6.63303 15.3651 7.80803C15.4195 8.35413 15.3515 8.90549 15.1661 9.42201C14.9806 9.93854 14.6824 10.4072 14.2931 10.794L13.1011 11.986L14.7191 12.461C18.9511 13.701 19.0001 17.957 19.0001 18H21.0001C21.0001 16.211 20.0441 12.715 16.6041 11.048Z" fill="#2F80ED"/>
</svg>
