<svg width="20" height="20" viewBox="0 0 20 20" fill="none" xmlns="http://www.w3.org/2000/svg">
<path fill-rule="evenodd" clip-rule="evenodd" d="M9.99498 0.506762C14.5242 0.504582 18.424 3.70237 19.3092 8.1442C20.1944 12.586 17.8182 17.0345 13.6342 18.7687C9.45021 20.5028 4.62385 19.0396 2.10721 15.274C-0.409401 11.5084 0.0847718 6.48934 3.28751 3.28685C5.06634 1.50753 7.47902 0.507536 9.99498 0.506762ZM14.8336 9.48353C15.1199 9.48353 15.352 9.71564 15.352 10.0019C15.352 10.2883 15.1199 10.5204 14.8336 10.5204H9.99498C9.81051 10.5184 9.64102 10.4184 9.55005 10.2579L9.54297 10.2508L9.53486 10.2366V10.2285L9.52775 10.2133L9.51965 10.1991V10.191L9.51256 10.1758L9.50545 10.1687V10.1545L9.49837 10.1352L9.49128 10.12V10.1028V10.0886L9.48417 10.0815V10.0663V10.0511V10.0339V10.0166V10.0014V3.81896C9.48417 3.53907 9.71107 3.3122 9.99093 3.3122C10.2736 3.30994 10.505 3.53635 10.5089 3.81896V9.48353H14.8336ZM15.9788 4.01761C13.1241 1.16685 8.65323 0.729522 5.3002 2.97308C1.94718 5.21664 0.645816 9.51625 2.19196 13.2426C3.73807 16.969 7.7011 19.0843 11.6575 18.2951C15.614 17.5058 18.462 14.0318 18.4599 9.99739C18.461 7.75213 17.5678 5.60025 15.9779 4.0167L15.9788 4.01761Z" fill="white"/>
<path d="M19.3092 8.1442L19.8062 8.04516L19.8062 8.04516L19.3092 8.1442ZM13.6342 18.7687L13.4402 18.3005L13.6342 18.7687ZM2.10721 15.274L1.68588 15.5556L1.68588 15.5556L2.10721 15.274ZM3.28751 3.28685L3.64583 3.6452L3.64589 3.64514L3.28751 3.28685ZM9.99498 10.5204L9.98946 11.0271H9.99498V10.5204ZM9.55005 10.2579L9.99092 10.008L9.95715 9.94841L9.90877 9.89992L9.55005 10.2579ZM9.54297 10.2508L9.10297 10.5022L9.13651 10.5609L9.18424 10.6087L9.54297 10.2508ZM9.53486 10.2366H9.0281V10.3712L9.09487 10.488L9.53486 10.2366ZM9.51965 10.1991H9.01288V10.3337L9.07965 10.4505L9.51965 10.1991ZM9.50545 10.1687H8.99869V10.3792L9.14788 10.5278L9.50545 10.1687ZM9.49128 10.12H8.98452V10.2323L9.03194 10.3341L9.49128 10.12ZM9.49128 10.0886H9.99804V9.87806L9.84885 9.7295L9.49128 10.0886ZM9.48417 10.0815H8.97741V10.2921L9.1266 10.4406L9.48417 10.0815ZM9.99093 3.3122V3.81898L9.99498 3.81894L9.99093 3.3122ZM10.5089 3.81896H11.0157L11.0156 3.81197L10.5089 3.81896ZM10.5089 9.48353H10.0021V9.99029H10.5089V9.48353ZM15.9788 4.01761L15.6233 4.37871L16.3369 3.65903L15.9788 4.01761ZM5.3002 2.97308L5.01839 2.5519L5.3002 2.97308ZM2.19196 13.2426L2.66003 13.0484L2.66003 13.0484L2.19196 13.2426ZM11.6575 18.2951L11.7567 18.792H11.7567L11.6575 18.2951ZM18.4599 9.99739L17.9532 9.99714V9.99764L18.4599 9.99739ZM15.9779 4.0167L16.3335 3.6556L15.6203 4.37574L15.9779 4.0167ZM9.99523 1.01352C14.2826 1.01146 17.9743 4.03853 18.8122 8.24324L19.8062 8.04516C18.8737 3.3662 14.7657 -0.00229585 9.99474 1.17801e-06L9.99523 1.01352ZM18.8122 8.24324C19.6501 12.4479 17.4008 16.6589 13.4402 18.3005L13.8283 19.2368C18.2356 17.4101 20.7386 12.7241 19.8062 8.04516L18.8122 8.24324ZM13.4402 18.3005C9.47954 19.9421 4.91083 18.557 2.52854 14.9924L1.68588 15.5556C4.33687 19.5222 9.42088 21.0636 13.8283 19.2368L13.4402 18.3005ZM2.52854 14.9924C0.146277 11.4278 0.61407 6.67672 3.64583 3.6452L2.92919 2.9285C-0.444526 6.30196 -0.965079 11.5889 1.68588 15.5556L2.52854 14.9924ZM3.64589 3.64514C5.32972 1.96084 7.61355 1.01426 9.99514 1.01352L9.99483 1.1478e-06C7.34449 0.000815695 4.80295 1.05421 2.92912 2.92857L3.64589 3.64514ZM14.8336 9.99029C14.8361 9.99029 14.8372 9.99071 14.8379 9.991C14.839 9.99143 14.8404 9.99228 14.8418 9.9937C14.8432 9.99513 14.8441 9.99654 14.8445 9.99757C14.8448 9.99826 14.8452 9.99941 14.8452 10.0019H15.8587C15.8587 9.43578 15.3998 8.97677 14.8336 8.97677V9.99029ZM14.8452 10.0019C14.8452 10.0045 14.8448 10.0056 14.8445 10.0063C14.8441 10.0074 14.8432 10.0088 14.8418 10.0102C14.8404 10.0116 14.839 10.0125 14.8379 10.0129C14.8372 10.0132 14.8361 10.0136 14.8336 10.0136V11.0271C15.3998 11.0271 15.8587 10.5681 15.8587 10.0019H14.8452ZM14.8336 10.0136H9.99498V11.0271H14.8336V10.0136ZM10.0005 10.0136C9.99653 10.0136 9.99287 10.0114 9.99092 10.008L9.10918 10.5077C9.28916 10.8253 9.62449 11.0231 9.98946 11.0271L10.0005 10.0136ZM9.90877 9.89992L9.90169 9.89283L9.18424 10.6087L9.19132 10.6158L9.90877 9.89992ZM9.98296 9.99934L9.97485 9.98516L9.09487 10.488L9.10297 10.5022L9.98296 9.99934ZM10.0416 10.2366V10.2285H9.0281V10.2366H10.0416ZM9.99385 10.0137L9.98674 9.99848L9.06876 10.4281L9.07587 10.4433L9.99385 10.0137ZM9.96774 9.96185L9.95964 9.94767L9.07965 10.4505L9.08775 10.4647L9.96774 9.96185ZM10.0264 10.1991V10.191H9.01288V10.1991H10.0264ZM9.97908 9.97714L9.972 9.96192L9.05313 10.3896L9.06021 10.4048L9.97908 9.97714ZM9.87013 9.81666L9.86301 9.80958L9.14788 10.5278L9.155 10.5349L9.87013 9.81666ZM10.0122 10.1687V10.1545H8.99869V10.1687H10.0122ZM9.98105 9.97952L9.97397 9.96027L9.02276 10.3102L9.02985 10.3294L9.98105 9.97952ZM9.95771 9.9212L9.95063 9.906L9.03194 10.3341L9.03902 10.3493L9.95771 9.9212ZM9.99804 10.12V10.1028H8.98452V10.12H9.99804ZM9.99804 10.1028V10.0886H8.98452V10.1028H9.99804ZM9.84885 9.7295L9.84173 9.72242L9.1266 10.4406L9.13372 10.4477L9.84885 9.7295ZM9.99093 10.0815V10.0663H8.97741V10.0815H9.99093ZM9.99093 10.0663V10.0511H8.97741V10.0663H9.99093ZM9.99093 10.0511V10.0339H8.97741V10.0511H9.99093ZM9.99093 10.0339V10.0166H8.97741V10.0339H9.99093ZM9.99093 10.0166V10.0014H8.97741V10.0166H9.99093ZM9.99093 10.0014V3.81896H8.97741V10.0014H9.99093ZM9.99093 3.81896V2.80544C9.43122 2.80544 8.97741 3.25918 8.97741 3.81896H9.99093ZM9.99498 3.81894C9.99688 3.81893 9.99744 3.81921 9.99759 3.81928C9.99808 3.81948 9.999 3.81998 10 3.82097C10.001 3.82196 10.0015 3.82286 10.0018 3.82335C10.0018 3.8235 10.0021 3.82405 10.0021 3.82595L11.0156 3.81197C11.0078 3.25066 10.5482 2.80097 9.98688 2.80545L9.99498 3.81894ZM10.0021 3.81896V9.48353H11.0156V3.81896H10.0021ZM10.5089 9.99029H14.8336V8.97677H10.5089V9.99029ZM16.3369 3.65903C13.3111 0.637436 8.57234 0.173906 5.01839 2.5519L5.58201 3.39425C8.73412 1.28514 12.9371 1.69625 15.6208 4.37619L16.3369 3.65903ZM5.01839 2.5519C1.46444 4.9299 0.0850952 9.48716 1.72389 13.4368L2.66003 13.0484C1.20654 9.54534 2.42991 5.50337 5.58201 3.39425L5.01839 2.5519ZM1.72389 13.4368C3.36265 17.3865 7.56316 19.6286 11.7567 18.792L11.5584 17.7981C7.83904 18.5401 4.11349 16.5515 2.66003 13.0484L1.72389 13.4368ZM11.7567 18.792C15.9502 17.9555 18.9688 14.2733 18.9667 9.99714L17.9532 9.99764C17.9551 13.7903 15.2777 17.0561 11.5584 17.7981L11.7567 18.792ZM18.9667 9.99763C18.9679 7.61758 18.021 5.33638 16.3355 3.65765L15.6203 4.37574C17.1146 5.86411 17.9542 7.88668 17.9532 9.99714L18.9667 9.99763ZM15.6224 4.3778L15.6233 4.37871L16.3344 3.65651L16.3335 3.6556L15.6224 4.3778Z" fill="white"/>
</svg>
