<svg width="16" height="10" viewBox="0 0 16 10" fill="none" xmlns="http://www.w3.org/2000/svg">
<path fill-rule="evenodd" clip-rule="evenodd" d="M15.5006 0.0119802C12.186 0.64173 8.88471 1.35442 5.59877 2.12036C4.24705 2.43574 2.8842 2.74089 1.56016 3.15663C1.25654 3.22345 0.965982 3.33968 0.699987 3.50068C0.405992 3.8316 0.244183 4.25918 0.24537 4.70182C0.0459991 6.35513 -0.0319994 8.02083 0.0118748 9.68556C0.0136872 9.79816 0.0746236 9.90151 0.172247 9.95758C0.269932 10.0137 0.38993 10.0142 0.488053 9.95893C1.23848 9.42107 1.91109 8.78222 2.48689 8.06047C2.80382 7.61792 3.17232 7.2147 3.58456 6.85934C4.38579 6.3223 5.22965 5.85175 6.10764 5.45239C8.47922 4.2656 10.906 3.19963 13.2755 2.00567C14.1699 1.60922 15.0192 1.11797 15.8088 0.540357C16.1253 0.283335 15.6757 -0.162099 15.3614 0.0918498C14.6782 0.585364 13.9456 1.00644 13.1752 1.34828C12.0488 1.91863 10.907 2.45725 9.76532 2.99586C7.59842 3.91018 5.49615 4.97071 3.47306 6.17015C2.16946 7.02113 1.47516 8.52536 0.167559 9.41008L0.643738 9.68451C0.643738 8.29804 0.65805 6.90644 0.781923 5.5251C0.815735 5.15032 0.823922 4.27072 1.05329 4.02087C1.29829 3.88493 1.56285 3.78786 1.83765 3.73313C4.78672 2.83203 7.85048 2.24017 10.863 1.60018C12.4615 1.26021 14.063 0.926397 15.6696 0.620227C16.0689 0.544451 15.9 -0.0658386 15.5006 0.00583973" fill="#003849"/>
</svg>
