<svg width="375" height="813" viewBox="0 0 375 813" fill="none" xmlns="http://www.w3.org/2000/svg">
<rect width="375" height="813" fill="url(#paint0_linear_213_4492)"/>
<mask id="mask0_213_4492" style="mask-type:luminance" maskUnits="userSpaceOnUse" x="0" y="39" width="375" height="280">
<rect y="39" width="375" height="280" fill="white"/>
</mask>
<g mask="url(#mask0_213_4492)">
<mask id="mask1_213_4492" style="mask-type:luminance" maskUnits="userSpaceOnUse" x="-39" y="38" width="453" height="261">
<rect x="-38.0659" y="38.75" width="451.186" height="259.256" fill="white"/>
</mask>
<g mask="url(#mask1_213_4492)">
<g opacity="0.2">
<mask id="mask2_213_4492" style="mask-type:luminance" maskUnits="userSpaceOnUse" x="1" y="46" width="380" height="255">
<rect x="1.02197" y="46.5081" width="379.055" height="253.904" fill="white"/>
</mask>
<g mask="url(#mask2_213_4492)">
<path fill-rule="evenodd" clip-rule="evenodd" d="M3.26507 300.412H371.833C375.276 292.293 385.138 262.234 365.533 233.005C365.533 233.005 356.733 215.305 354.592 202.205C352.847 191.524 352.473 178.713 353.481 164.128C354.242 153.12 355.289 142.462 356.225 133.966C370.351 128.595 380.079 117.324 380.079 104.287C380.079 86.046 361.037 71.259 337.547 71.259C334.287 71.2565 331.033 71.547 327.824 72.127C311.012 61.055 287.51 52.018 257.862 48.35C246.091 46.8101 234.212 46.2482 222.348 46.67C208.691 47.27 196.713 49.535 186.748 53.4C181.197 55.4962 176.032 58.4989 171.464 62.286C157.136 55.85 139.779 50.852 119.564 48.351C107.792 46.811 95.9135 46.2491 84.0491 46.671C70.3921 47.271 58.4141 49.536 48.4491 53.401C27.5331 61.511 19.9631 77.161 17.2951 88.861C15.3466 97.8088 15.2761 107.064 17.0881 116.04C18.5371 123.375 23.5881 130.048 26.6421 133.426C39.3361 156.164 71.9301 155.999 48.2161 185.75C16.4331 225.618 -6.40693 276.291 3.26507 300.412ZM350.946 142.435C350.287 149.02 349.639 156.31 349.122 163.76C348.086 178.695 348.473 191.86 350.271 202.882C351.186 208.887 352.783 214.769 355.031 220.412C354.931 220.312 354.831 220.212 354.731 220.112C329.161 195.133 341.441 166.681 350.951 142.437M92.0281 55.838C92.0281 55.838 27.2931 58.418 22.2561 108.463C22.1127 109.885 22.0221 111.258 21.9841 112.583C20.1117 105.133 19.9636 97.3539 21.5511 89.838C23.9821 79.175 30.8951 64.907 50.0201 57.491C71.6451 49.106 99.4401 50.254 118.948 52.691C125.097 53.4717 131.196 54.6127 137.211 56.1081C124.334 55.342 109.388 55.218 92.0271 55.835" fill="#93E3F1"/>
</g>
</g>
</g>
<g opacity="0.5">
<mask id="mask3_213_4492" style="mask-type:luminance" maskUnits="userSpaceOnUse" x="98" y="237" width="46" height="16">
<rect x="98.7" y="237.884" width="45.007" height="14.636" fill="white"/>
</mask>
<g mask="url(#mask3_213_4492)">
<path fill-rule="evenodd" clip-rule="evenodd" d="M98.7 252.52C99.1575 249.864 101.415 247.893 104.109 247.798C104.583 247.799 105.054 247.867 105.509 247.998C106.711 244.943 109.627 242.906 112.909 242.829C113.736 242.827 114.558 242.962 115.341 243.229C117.019 240 120.329 237.949 123.967 237.884C128.364 238.007 132.184 240.943 133.435 245.16C134.445 244.537 135.607 244.206 136.794 244.204C140.61 244.204 143.704 247.598 143.704 251.785C143.704 252.033 143.693 252.278 143.671 252.521L98.7 252.52Z" fill="white"/>
</g>
</g>
<g opacity="0.5">
<mask id="mask4_213_4492" style="mask-type:luminance" maskUnits="userSpaceOnUse" x="299" y="131" width="46" height="16">
<rect x="299.804" y="131.961" width="45.008" height="14.637" fill="white"/>
</mask>
<g mask="url(#mask4_213_4492)">
<path fill-rule="evenodd" clip-rule="evenodd" d="M299.801 146.598C300.258 143.942 302.516 141.97 305.21 141.876C305.683 141.877 306.155 141.944 306.61 142.076C307.812 139.021 310.728 136.984 314.01 136.907C314.837 136.905 315.658 137.04 316.441 137.307C318.119 134.078 321.429 132.027 325.067 131.962C329.464 132.085 333.284 135.021 334.535 139.238C335.545 138.614 336.707 138.283 337.894 138.282C341.71 138.282 344.804 141.676 344.804 145.863C344.804 146.111 344.792 146.356 344.771 146.599L299.801 146.598Z" fill="white"/>
</g>
</g>
<g opacity="0.5">
<mask id="mask5_213_4492" style="mask-type:luminance" maskUnits="userSpaceOnUse" x="221" y="214" width="46" height="15">
<rect x="221.405" y="214.004" width="45.006" height="14.636" fill="white"/>
</mask>
<g mask="url(#mask5_213_4492)">
<path fill-rule="evenodd" clip-rule="evenodd" d="M221.404 228.64C221.861 225.984 224.119 224.013 226.813 223.918C227.287 223.92 227.758 223.987 228.213 224.118C229.415 221.063 232.331 219.026 235.613 218.949C236.44 218.947 237.261 219.083 238.044 219.349C239.722 216.12 243.032 214.069 246.67 214.004C251.068 214.127 254.887 217.063 256.138 221.28C257.148 220.656 258.311 220.325 259.497 220.324C263.313 220.324 266.407 223.718 266.407 227.905C266.407 228.153 266.396 228.398 266.374 228.64H221.404Z" fill="white"/>
</g>
</g>
<g opacity="0.5">
<mask id="mask6_213_4492" style="mask-type:luminance" maskUnits="userSpaceOnUse" x="34" y="100" width="23" height="8">
<rect x="34.0471" y="100.144" width="22.485" height="7.311" fill="white"/>
</mask>
<g mask="url(#mask6_213_4492)">
<path fill-rule="evenodd" clip-rule="evenodd" d="M34.0471 107.456C34.2754 106.13 35.4023 105.145 36.7471 105.097C36.984 105.098 37.2196 105.131 37.4471 105.197C38.048 103.67 39.5064 102.652 41.1472 102.615C41.5604 102.614 41.9709 102.682 42.3621 102.815C43.2005 101.202 44.8546 100.177 46.6721 100.145C48.869 100.207 50.7773 101.673 51.4022 103.78C51.9064 103.468 52.4873 103.303 53.0802 103.302C55.076 103.398 56.6191 105.089 56.5331 107.085C56.5331 107.209 56.5271 107.331 56.5161 107.452L34.0471 107.456Z" fill="white"/>
</g>
</g>
<g opacity="0.5">
<mask id="mask7_213_4492" style="mask-type:luminance" maskUnits="userSpaceOnUse" x="35" y="71" width="56" height="19">
<rect x="35.7009" y="71.204" width="54.916" height="17.858" fill="white"/>
</mask>
<g mask="url(#mask7_213_4492)">
<path fill-rule="evenodd" clip-rule="evenodd" d="M90.617 89.062C90.0588 85.8211 87.3036 83.4162 84.017 83.301C83.4387 83.3007 82.8631 83.3811 82.307 83.54C80.8405 79.8116 77.2814 77.326 73.276 77.233C72.2666 77.2326 71.264 77.3992 70.309 77.726C68.2617 73.7863 64.2222 71.2833 59.783 71.204C54.47 71.204 49.945 74.904 48.231 80.082C46.9987 79.3208 45.5793 78.9168 44.131 78.915C39.474 78.915 35.699 83.056 35.699 88.165C35.699 88.465 35.713 88.765 35.739 89.065L90.617 89.062Z" fill="white"/>
</g>
</g>
<g opacity="0.5">
<mask id="mask8_213_4492" style="mask-type:luminance" maskUnits="userSpaceOnUse" x="203" y="78" width="82" height="27">
<rect x="203.531" y="78.277" width="80.757" height="26.263" fill="white"/>
</mask>
<g mask="url(#mask8_213_4492)">
<path fill-rule="evenodd" clip-rule="evenodd" d="M284.288 104.539C283.272 99.6871 279.314 96.0661 274.582 96.0661C273.732 96.0658 272.885 96.1843 272.068 96.4181C269.911 90.9352 264.677 87.2799 258.787 87.1431C257.303 87.1424 255.828 87.3874 254.424 87.868C251.414 82.0741 245.473 78.3932 238.945 78.2771C231.132 78.2771 224.478 83.7171 221.957 91.3321C220.145 90.213 218.058 89.619 215.929 89.6161C209.081 89.6161 203.529 95.7061 203.529 103.216C203.529 103.661 203.55 104.101 203.588 104.536L284.288 104.539Z" fill="white"/>
</g>
</g>
<g opacity="0.4">
<mask id="mask9_213_4492" style="mask-type:luminance" maskUnits="userSpaceOnUse" x="20" y="128" width="58" height="48">
<rect x="20.781" y="128.324" width="56.641" height="47.035" fill="white"/>
</mask>
<g mask="url(#mask9_213_4492)">
<path fill-rule="evenodd" clip-rule="evenodd" d="M47.063 135.484C47.748 136.747 48.115 138.199 48.863 139.422C49.7814 140.754 50.9394 141.903 52.278 142.812C57.92 147.159 63.758 151.601 70.489 153.237C72.178 153.647 73.968 153.903 75.389 154.99C78.32 157.237 78.038 162.939 74.903 164.826C71.316 166.985 65.91 164.456 63.269 167.886C62.195 169.28 61.989 171.286 60.936 172.701C59.529 174.589 57.055 174.916 54.836 175.075C53.3174 175.184 51.798 175.279 50.278 175.36C57.06 158.681 41.107 154.324 29.932 141.446C30.252 141.397 30.571 141.346 30.889 141.286C31.5095 141.225 32.098 140.981 32.58 140.586C33.0796 140.127 33.1862 139.379 32.835 138.799C30.6651 137.689 28.3833 136.812 26.028 136.184C25.4773 135.301 24.9557 134.38 24.463 133.421C23.13 131.802 21.9028 130.098 20.7891 128.321C25.743 128.58 30.684 128.998 35.612 129.653C39.949 130.229 44.837 131.362 47.07 135.481" fill="white"/>
</g>
</g>
<path fill-rule="evenodd" clip-rule="evenodd" d="M348.053 296.848C348.053 296.848 316.842 284.055 323.153 274.94C323.153 274.94 323.254 271.676 334.993 276.589C334.993 276.589 339.723 275.607 337.23 271.151C334.737 266.695 324.098 263.736 325.887 257.667C327.675 251.598 334.056 257.159 337.786 256.811C341.516 256.463 329.286 239.972 332.181 235.857C335.075 231.742 340.449 237.938 343.215 237.467C345.982 236.996 340.053 213.137 353.241 210.824C366.429 208.511 358.774 222.956 356.499 230.524C354.224 238.092 363.328 229.493 368.19 234.824C373.052 240.155 350.878 246.055 356.253 250.882C361.628 255.709 365.045 249.34 368.786 253.098C374.834 259.173 351.627 263.044 355.08 267.624C357.834 271.276 363.131 264.905 365.73 267.466C368.329 270.027 363.094 287.328 348.054 296.847" fill="#D9EDF6"/>
<g style="mix-blend-mode:color-dodge" opacity="0.1">
<mask id="mask10_213_4492" style="mask-type:luminance" maskUnits="userSpaceOnUse" x="322" y="210" width="48" height="87">
<rect x="322.758" y="210.58" width="46.647" height="86.269" fill="white"/>
</mask>
<g mask="url(#mask10_213_4492)">
<path fill-rule="evenodd" clip-rule="evenodd" d="M322.758 275.612C322.804 275.517 322.858 275.422 322.909 275.328C323.809 276.066 324.845 276.846 325.994 277.615C330.216 280.443 336.917 283.7 344.92 283.243C344.463 278.833 344.296 274.398 344.42 269.966C337.298 262.127 330.976 259.056 326.927 257.861C326.576 257.761 326.237 257.667 325.908 257.586C325.939 257.486 325.971 257.386 326.008 257.286C326.328 257.366 326.658 257.454 326.999 257.554C331.051 258.745 337.346 261.786 344.433 269.502C344.433 269.482 344.433 269.462 344.433 269.442C344.569 264.542 344.994 259.291 345.703 253.731C344.319 250.688 342.724 247.746 340.929 244.925C338.712 241.285 335.941 238.012 332.717 235.225C332.798 235.15 332.879 235.082 332.962 235.019C336.199 237.821 338.981 241.109 341.211 244.765C342.913 247.448 344.44 250.239 345.784 253.119C346.337 248.882 347.053 244.476 347.932 239.901C349.857 230.008 352.3 220.222 355.249 210.585C355.365 210.58 355.479 210.576 355.593 210.575C352.633 220.234 350.183 230.041 348.253 239.957C347.839 242.11 347.435 244.371 347.053 246.71C349.541 244.734 352.146 242.911 354.854 241.251C359.048 238.634 363.506 236.466 368.154 234.783L368.188 234.821C368.253 234.892 368.313 234.964 368.368 235.036C363.71 236.715 359.242 238.884 355.041 241.506C352.235 243.221 349.544 245.116 346.984 247.18C346.157 252.368 345.462 257.931 345.073 263.56C351.25 259.053 363.23 255.291 369.22 253.595C369.286 253.685 369.348 253.774 369.405 253.864C363.392 255.564 351.138 259.397 345.045 263.973C344.418 271.811 344.684 279.695 345.839 287.473C351.958 285.213 357.114 279.179 360.377 274.487C362.045 272.074 363.566 269.563 364.933 266.967C365.036 267.002 365.136 267.045 365.233 267.097C363.861 269.704 362.333 272.227 360.657 274.651C357.357 279.4 352.125 285.514 345.895 287.785C346.399 290.837 347.169 293.839 348.195 296.757L348.055 296.848L347.855 296.764C346.385 292.485 345.412 288.051 344.955 283.55C344.433 283.58 343.91 283.595 343.387 283.596C340.278 283.586 337.19 283.071 334.246 282.071C331.255 281.049 328.414 279.633 325.798 277.86C324.669 277.104 323.652 276.338 322.759 275.611" fill="#DAEEF7"/>
</g>
</g>
<path fill-rule="evenodd" clip-rule="evenodd" d="M48.0731 284.573C48.0731 284.573 52.5801 262.489 33.5841 240.6L31.0701 248.5L31.2001 238.537C31.2001 238.537 19.6101 226.253 9.15112 219.695C9.15112 219.695 13.9251 246.31 16.8661 251.803L24.0311 256.844L16.1961 256.91C16.1961 256.91 18.5011 271.781 28.4201 281.741C38.3391 291.701 48.0731 284.57 48.0731 284.57" fill="#FEB546"/>
<path fill-rule="evenodd" clip-rule="evenodd" d="M26.3863 191.634C34.9183 191.72 30.5863 203.864 29.2863 207.088C31.4808 208.908 33.5242 210.902 35.3963 213.052C35.3273 208.829 32.5323 205.808 33.3113 203.152C34.1852 200.173 37.0813 197.632 39.6852 202.691C41.7492 206.699 37.7853 211.856 36.0503 213.826C38.4077 216.633 40.422 219.711 42.0503 222.995C42.6872 218.115 39.8602 214.26 41.0772 211.333C42.4092 208.133 45.8902 205.689 48.0863 211.673C49.9022 216.619 44.4063 222.08 42.4443 223.826C43.0513 225.1 43.5559 226.42 43.9533 227.774C44.7664 230.676 45.425 233.619 45.9263 236.59C46.5873 232.305 44.8583 228.53 46.3083 226.014C48.0493 222.995 51.7863 221.048 53.1083 227.365C54.1583 232.365 48.5963 236.865 46.2263 238.534C47.0303 244.091 47.2678 249.716 46.9353 255.321C48.8863 251.721 49.1953 245.343 52.0673 242.621C53.9513 240.834 55.6623 241.146 56.7723 241.731C57.7251 242.244 58.3678 243.19 58.4943 244.265C59.3683 250.527 49.8063 255.056 46.8733 256.291C46.4789 261.871 45.5228 267.397 44.0193 272.785C45.0433 270.933 46.5773 268.13 47.3123 266.643C48.4713 264.298 51.1863 261.657 53.5633 261.343C53.6633 261.33 53.7633 261.321 53.8533 261.314C55.639 261.229 57.178 262.559 57.3533 264.338C58.3533 271.394 46.1533 274.03 43.5093 274.516L43.4803 274.616C41.5912 281.171 38.7481 287.412 35.0422 293.139L34.0883 292.473C37.5195 287.133 40.1965 281.345 42.0432 275.273C33.3513 268.601 34.3563 261.245 36.9693 259.833C39.6693 258.374 43.8243 259.716 42.8913 264.904C42.4554 267.689 42.3701 270.518 42.6373 273.324C44.2248 267.841 45.2344 262.207 45.6493 256.514C31.4872 252.338 35.6023 243.329 39.3122 242.853C43.0673 242.372 44.3512 244.786 44.3823 249.143C44.4085 251.38 44.858 253.592 45.7072 255.662C46.0516 250.16 45.8389 244.638 45.0723 239.179C42.4613 240.115 35.6503 242.041 32.8212 237.901C29.2853 232.726 33.0313 230.801 36.2423 231.255C39.1943 231.674 40.7303 236.364 44.9473 238.322C44.4323 234.911 43.7073 231.534 42.7763 228.212C41.9704 225.666 40.8604 223.226 39.4703 220.945C36.9383 222.211 30.3902 224.945 27.0562 221.268C22.8682 216.655 26.3883 214.278 29.6673 214.307C32.5923 214.333 34.6773 218.476 38.8873 219.974C36.1056 215.529 32.6337 211.555 28.6022 208.202C25.9673 209.502 19.6083 212.05 16.3403 208.449C12.1523 203.835 15.6723 201.459 18.9513 201.488C21.9182 201.514 24.0183 205.776 28.3512 207.219L28.4352 207.113C27.4892 205.713 25.4722 202.735 24.4352 201.37C23.0452 199.549 22.2512 196.27 23.2842 194.09C23.8617 192.822 25.0164 191.91 26.3843 191.643" fill="#DAEEF7"/>
<path fill-rule="evenodd" clip-rule="evenodd" d="M344.262 294.974C344.262 294.974 341.778 275.149 360.043 257.257L361.729 264.418L362.289 255.618C362.289 255.618 373.362 245.646 383.047 240.642C383.047 240.642 377.026 263.77 374.055 268.397L367.383 272.31L374.3 272.954C374.3 272.954 371.256 285.904 361.818 293.954C352.38 302.004 344.263 294.979 344.263 294.979" fill="#FF5B7E"/>
<path fill-rule="evenodd" clip-rule="evenodd" d="M-6.26291 245.019C-6.29682 251.878 -4.52628 258.625 -1.12895 264.583C2.33809 264.242 6.4711 263.913 6.4711 263.913L1.20109 268.129C15.2171 287.038 44.0591 289.874 44.0591 289.874C44.1851 272.781 39.1591 262.022 32.2481 255.296C29.9891 256.275 26.6481 257.768 26.6481 257.768L29.9211 253.232C26.4081 250.444 22.4205 248.313 18.1501 246.942C16.4641 249.309 14.4851 251.954 14.4851 251.954L14.2051 245.837C7.48772 244.324 0.550766 244.047 -6.26587 245.02" fill="#07085B"/>
<path fill-rule="evenodd" clip-rule="evenodd" d="M32.2491 255.296C29.9901 256.275 26.6491 257.768 26.6491 257.768L29.9221 253.232C26.4092 250.444 22.4215 248.313 18.1511 246.942C16.4651 249.309 14.4861 251.954 14.4861 251.954L14.2061 245.837C7.48871 244.324 0.551763 244.047 -6.26489 245.02C8.08112 268.53 44.0611 289.876 44.0611 289.876C44.1871 272.783 39.1611 262.024 32.2501 255.298" fill="#55769F"/>
<path fill-rule="evenodd" clip-rule="evenodd" d="M-9.19384 273.344C-4.81043 271.839 -0.166996 271.238 4.45517 271.58C5.42016 273.28 6.61916 275.293 6.61916 275.293L7.40416 271.92C23.6582 274.465 35.1392 287.399 35.1392 287.399C24.7742 291.099 16.5242 291.042 10.0902 289.231C9.92216 287.962 9.70116 286.075 9.70116 286.075L8.04616 288.575C5.25167 287.571 2.61992 286.161 0.235172 284.391C1.10616 283.091 2.04716 281.602 2.04716 281.602L-1.77184 282.776C-4.83415 280.143 -7.35498 276.94 -9.19385 273.344" fill="#FF5B7E"/>
<path fill-rule="evenodd" clip-rule="evenodd" d="M10.0892 289.23C9.92115 287.961 9.70015 286.074 9.70015 286.074L8.04515 288.574C5.25103 287.571 2.61929 286.163 0.234147 284.396C1.10515 283.096 2.04615 281.607 2.04615 281.607L-1.77285 282.781C-4.83523 280.146 -7.35573 276.941 -9.19385 273.344C9.97315 275.063 35.1382 287.396 35.1382 287.396C24.7732 291.101 16.5232 291.039 10.0892 289.228" fill="#E03268"/>
<path fill-rule="evenodd" clip-rule="evenodd" d="M377.559 288.38C377.559 288.38 375.447 278.106 354.852 277.118C334.257 276.13 332.146 283.277 301.518 280.251C270.89 277.225 255.434 265.198 207.208 266.991C158.982 268.784 166.019 276.615 117.745 277.561C69.4712 278.507 62.6682 269.344 37.0452 272.069C11.4222 274.794 1.02022 288.964 1.02022 288.964L-18.4668 318.541L376.502 312.75L377.559 288.38Z" fill="#02CCC0"/>
<path fill-rule="evenodd" clip-rule="evenodd" d="M258.243 208.17C257.872 208.495 257.537 208.826 257.243 209.17C257.542 208.826 257.872 208.495 258.243 208.17Z" fill="#06BFAD"/>
<path fill-rule="evenodd" clip-rule="evenodd" d="M258.22 208.826C257.854 209.151 257.492 209.486 257.22 209.826C257.492 209.486 257.859 209.151 258.22 208.826Z" fill="#06BFAD"/>
<path fill-rule="evenodd" clip-rule="evenodd" d="M258.199 209.61C257.811 209.936 257.478 210.269 257.199 210.61C257.478 210.269 257.866 209.936 258.199 209.61Z" fill="#06BFAD"/>
<path fill-rule="evenodd" clip-rule="evenodd" d="M258.276 207.437C257.922 207.76 257.567 208.104 257.276 208.437C257.599 208.095 257.922 207.757 258.276 207.437Z" fill="#06BFAD"/>
<path fill-rule="evenodd" clip-rule="evenodd" d="M308.727 294.073C307.252 294.633 305.733 294.968 304.201 295.073C305.733 294.968 307.252 294.633 308.727 294.073Z" fill="#06BFAD"/>
<path fill-rule="evenodd" clip-rule="evenodd" d="M301.463 294.63C301.792 295.035 302.125 295.368 302.463 295.63C302.125 295.373 301.792 295.04 301.463 294.63Z" fill="#06BFAD"/>
<path fill-rule="evenodd" clip-rule="evenodd" d="M304.201 295.539C303.625 296.035 303.049 295.784 302.475 294.786C303.049 295.784 303.625 296.035 304.201 295.539Z" fill="#06BFAD"/>
</g>
<path fill-rule="evenodd" clip-rule="evenodd" d="M29 281H346C362.016 281 375 293.984 375 310V812H0V310C1.90735e-06 293.984 12.9837 281 29 281Z" fill="white"/>
<defs>
<linearGradient id="paint0_linear_213_4492" x1="584.062" y1="392.272" x2="-49.594" y2="112.208" gradientUnits="userSpaceOnUse">
<stop stop-color="#2855AE"/>
<stop offset="1" stop-color="#7292CF"/>
</linearGradient>
</defs>
</svg>
