<svg width="23" height="22" viewBox="0 0 23 22" fill="none" xmlns="http://www.w3.org/2000/svg">
<path fill-rule="evenodd" clip-rule="evenodd" d="M11.3662 0.000122544L15.0349 7.14418L22.9991 8.17131L17.339 13.8684L18.8234 21.7614L11.656 18.1389L4.60935 21.9884L5.83946 14.0528L0 8.53907L7.92782 7.2572L11.3662 0.000122544Z" fill="white"/>
<path fill-rule="evenodd" clip-rule="evenodd" d="M11.3672 0L11.5417 10.9372L15.0388 7.1438L11.3672 0Z" fill="#686868" fill-opacity="0.431373"/>
<path fill-rule="evenodd" clip-rule="evenodd" d="M23.0001 8.17122L11.5417 10.9372L17.3389 13.8684L23.0001 8.17122Z" fill="#686868" fill-opacity="0.431373"/>
<path fill-rule="evenodd" clip-rule="evenodd" d="M11.5418 10.9372L7.92782 7.25717L0 8.53904L11.5418 10.9372Z" fill="#686868" fill-opacity="0.431373"/>
<path fill-rule="evenodd" clip-rule="evenodd" d="M4.60936 21.9884L11.5418 10.9372L5.84065 14.0546L4.60936 21.9884Z" fill="#686868" fill-opacity="0.431373"/>
<path fill-rule="evenodd" clip-rule="evenodd" d="M18.8242 21.7603L11.5417 10.9372L11.6568 18.1377L18.8242 21.7603Z" fill="#686868" fill-opacity="0.431373"/>
</svg>
