<svg width="37" height="32" viewBox="0 0 37 32" fill="none" xmlns="http://www.w3.org/2000/svg">
<path d="M31.245 6.61759C26.3033 3.4048 19.7352 2.6735 14.279 3.64246C8.17467 -2.15105 1.33418 0.513736 0 1.2798C0 1.2798 4.69436 5.20493 3.93188 8.64273C-1.62581 14.2175 1.01621 20.4244 3.93188 23.3553C4.69436 26.7931 0 30.7182 0 30.7182C1.32133 31.4868 8.14319 34.1434 14.279 28.3796C19.723 29.3422 26.2911 28.6173 31.245 25.3988C38.9058 20.5862 38.9308 11.4548 31.245 6.61696V6.61759ZM18.8969 25.3678C16.9865 25.3732 15.0836 25.1316 13.2371 24.6492L11.9672 25.8558C11.2618 26.5289 10.4719 27.1107 9.61677 27.587C8.57926 28.101 7.45217 28.4169 6.29512 28.518C6.35936 28.4055 6.41589 28.293 6.47306 28.1868C7.74365 25.8692 8.08624 23.79 7.50083 21.949C5.41124 20.3302 4.16056 18.2615 4.16056 15.9993C4.16056 10.8164 10.7602 6.61759 18.8969 6.61759C27.0337 6.61759 33.6333 10.8164 33.6333 15.9993C33.6333 21.1823 27.0337 25.3678 18.8969 25.3678ZM11.8271 18.2305C11.2437 18.2386 10.6809 18.0189 10.2618 17.6194C9.84284 17.2199 9.60186 16.6732 9.59171 16.0992C9.54675 13.2303 13.9488 13.1677 13.9932 16.0303V16.0625C13.9959 16.345 13.942 16.6252 13.8346 16.8871C13.7271 17.149 13.5683 17.3875 13.3671 17.589C13.166 17.7904 12.9264 17.9509 12.6622 18.0612C12.3979 18.1715 12.1142 18.2295 11.8271 18.2318V18.2305ZM16.5658 16.0992C16.5151 13.2303 20.9172 13.1614 20.9679 16.024V16.0625C20.993 18.9119 16.6166 18.9429 16.5658 16.0992ZM25.776 18.2305C25.1925 18.2386 24.6296 18.0189 24.2105 17.6194C23.7913 17.2199 23.5502 16.6733 23.5399 16.0992C23.4956 13.2303 27.8977 13.1677 27.942 16.0303V16.0625C27.9457 16.3452 27.8924 16.6258 27.7853 16.8881C27.6782 17.1505 27.5194 17.3893 27.3181 17.591C27.1167 17.7927 26.8768 17.9531 26.6121 18.0631C26.3474 18.1731 26.0633 18.2304 25.776 18.2318V18.2305Z" fill="#084CD1" fill-opacity="0.66"/>
</svg>
