<svg width="334" height="63" viewBox="0 0 334 63" fill="none" xmlns="http://www.w3.org/2000/svg">
<g opacity="0.35">
<circle cx="296.935" cy="11.2917" r="5.61979" fill="white" fill-opacity="0.2"/>
<path fill-rule="evenodd" clip-rule="evenodd" d="M296.937 17.8771C296.684 17.8774 296.443 17.7775 296.264 17.5993C296.086 17.4212 295.986 17.1795 295.986 16.9275V5.65585C295.986 5.40382 296.086 5.16212 296.264 4.984C296.443 4.80588 296.684 4.70594 296.937 4.7062C297.461 4.7062 297.886 5.13138 297.886 5.65585V16.9275C297.886 17.452 297.461 17.8771 296.937 17.8771Z" fill="white" fill-opacity="0.298039"/>
<path fill-rule="evenodd" clip-rule="evenodd" d="M303.521 11.2917C303.521 11.5437 303.421 11.7855 303.243 11.9638C303.065 12.1421 302.823 12.2423 302.571 12.2423L291.3 12.2423C291.048 12.2423 290.806 12.1421 290.628 11.9638C290.45 11.7855 290.35 11.5437 290.35 11.2917V11.2917C290.35 10.7672 290.775 10.342 291.3 10.342H302.571C303.096 10.342 303.521 10.7672 303.521 11.2917Z" fill="white" fill-opacity="0.298039"/>
<path fill-rule="evenodd" clip-rule="evenodd" d="M300.922 11.2917C300.922 11.8167 300.497 12.2423 299.972 12.2423L293.899 12.2423C293.374 12.2423 292.948 11.8167 292.948 11.2917V11.2917C292.949 10.7671 293.374 10.3421 293.899 10.342H299.972C300.224 10.3417 300.465 10.4417 300.644 10.6198C300.822 10.7979 300.922 11.0396 300.922 11.2917V11.2917Z" fill="white"/>
<path fill-rule="evenodd" clip-rule="evenodd" d="M296.937 15.2786C296.684 15.2789 296.442 15.1788 296.264 15.0005C296.086 14.8221 295.986 14.5802 295.986 14.328V8.25538C295.986 7.73036 296.411 7.30474 296.937 7.30472C297.461 7.30528 297.886 7.73074 297.886 8.25538V14.328C297.886 14.58 297.787 14.8218 297.608 15.0001C297.43 15.1784 297.189 15.2786 296.937 15.2786Z" fill="white"/>
<circle cx="41.5714" cy="51.5739" r="5.61979" fill="white" fill-opacity="0.2"/>
<path fill-rule="evenodd" clip-rule="evenodd" d="M41.5744 58.1594C41.0499 58.1594 40.6247 57.7342 40.6247 57.2097V45.9381C40.6247 45.4136 41.0499 44.9884 41.5744 44.9884C41.8264 44.9882 42.0682 45.0881 42.2465 45.2662C42.4248 45.4444 42.525 45.6861 42.525 45.9381V57.2097C42.525 57.4618 42.4248 57.7035 42.2465 57.8816C42.0682 58.0597 41.8264 58.1596 41.5744 58.1594Z" fill="white" fill-opacity="0.298039"/>
<path fill-rule="evenodd" clip-rule="evenodd" d="M48.1569 51.5739C48.1572 51.8261 48.0571 52.0681 47.8788 52.2464C47.7004 52.4247 47.4585 52.5248 47.2063 52.5245L35.9356 52.5245C35.6836 52.5245 35.4419 52.4243 35.2637 52.246C35.0856 52.0677 34.9857 51.8259 34.986 51.5739V51.5739C34.986 51.0494 35.4111 50.6242 35.9356 50.6242H47.2062C47.4583 50.624 47.7001 50.7239 47.8784 50.902C48.0567 51.0801 48.1569 51.3218 48.1569 51.5739Z" fill="white" fill-opacity="0.298039"/>
<path fill-rule="evenodd" clip-rule="evenodd" d="M45.5584 51.5739C45.5586 51.8259 45.4587 52.0677 45.2806 52.246C45.1025 52.4243 44.8608 52.5245 44.6087 52.5245L38.5361 52.5245C38.0111 52.5245 37.5855 52.0989 37.5855 51.5739V51.5739C37.586 51.0493 38.0114 50.6243 38.536 50.6242H44.6087C45.1332 50.6242 45.5584 51.0494 45.5584 51.5739Z" fill="white"/>
<path fill-rule="evenodd" clip-rule="evenodd" d="M41.5744 55.5608C41.0497 55.5603 40.6247 55.1348 40.6247 54.6102V48.5376C40.6245 48.2856 40.7244 48.0438 40.9026 47.8654C41.0807 47.6871 41.3224 47.5869 41.5744 47.587C41.8266 47.5867 42.0685 47.6868 42.2469 47.8651C42.4252 48.0434 42.5253 48.2854 42.525 48.5376V54.6102C42.525 55.1352 42.0994 55.5608 41.5744 55.5608Z" fill="white"/>
<path fill-rule="evenodd" clip-rule="evenodd" d="M15.5731 3.03438C15.5728 2.1984 16.2507 1.52003 17.0871 1.51974C17.9237 1.51945 18.6021 2.19733 18.6024 3.03384C18.6026 3.87035 17.9247 4.54871 17.0882 4.54902C16.6864 4.54916 16.3011 4.38964 16.0169 4.10557C15.7327 3.82151 15.573 3.43618 15.573 3.03438H15.5731Z" fill="#FFEDB2"/>
<path fill-rule="evenodd" clip-rule="evenodd" d="M77.1975 61.0454C77.198 60.2089 77.8764 59.5313 78.7128 59.5317C79.5493 59.5321 80.227 60.2104 80.2267 61.0468C80.2265 61.8832 79.5484 62.561 78.712 62.561C78.3102 62.561 77.9249 62.4012 77.6408 62.117C77.3567 61.8327 77.1974 61.4472 77.1976 61.0454H77.1975Z" fill="#FFEDB2"/>
<path fill-rule="evenodd" clip-rule="evenodd" d="M330.971 49.365C330.971 48.7519 331.34 48.1997 331.906 47.9655C332.472 47.7312 333.124 47.8611 333.557 48.2944C333.99 48.7278 334.119 49.3793 333.884 49.9452C333.65 50.5111 333.097 50.8799 332.485 50.8797C331.648 50.8793 330.971 50.2013 330.971 49.365H330.971Z" fill="#FFEDB2"/>
<path fill-rule="evenodd" clip-rule="evenodd" d="M229.842 4.70628C229.841 4.09419 230.21 3.54176 230.776 3.30713C231.342 3.0725 231.994 3.20188 232.427 3.63491C232.86 4.06796 232.99 4.71939 232.756 5.28546C232.521 5.85151 231.969 6.22072 231.357 6.22092C230.955 6.22104 230.57 6.06152 230.285 5.77746C230.001 5.49339 229.842 5.10807 229.842 4.70628Z" fill="#FFEDB2"/>
<path fill-rule="evenodd" clip-rule="evenodd" d="M223.509 43.596C223.509 42.9831 223.878 42.43 224.444 42.1951C225.01 41.9601 225.663 42.0895 226.096 42.5228C226.53 42.9562 226.66 43.6082 226.425 44.1747C226.191 44.7412 225.638 45.1106 225.025 45.1106C224.188 45.1107 223.51 44.4327 223.509 43.596H223.509Z" fill="#FFEDB2"/>
<path fill-rule="evenodd" clip-rule="evenodd" d="M314.574 1.51568C314.574 0.902658 314.943 0.349998 315.51 0.115405C316.076 -0.11918 316.728 0.0105011 317.161 0.44398C317.595 0.877467 317.725 1.52938 317.49 2.09573C317.255 2.66209 316.703 3.03135 316.09 3.03132C315.253 3.03129 314.574 2.35273 314.574 1.51568Z" fill="#FFEDB2"/>
<path fill-rule="evenodd" clip-rule="evenodd" d="M144.612 14.8179C144.612 14.2049 144.981 13.6522 145.548 13.4176C146.114 13.1831 146.766 13.3127 147.199 13.7462C147.633 14.1797 147.762 14.8316 147.528 15.398C147.293 15.9643 146.741 16.3336 146.128 16.3336C145.726 16.3338 145.34 16.1742 145.056 15.8899C144.771 15.6056 144.612 15.22 144.612 14.8179Z" fill="#FFEDB2"/>
<path fill-rule="evenodd" clip-rule="evenodd" d="M0 33.0466C0.000244567 32.2096 0.678612 31.5317 1.51509 31.532C2.35163 31.5323 3.02951 32.2106 3.02927 33.0471C3.02896 33.8836 2.35059 34.5616 1.51411 34.5613C0.677817 34.561 0 33.8829 0 33.0466Z" fill="#FFEDB2"/>
</g>
</svg>
