<svg width="24" height="24" viewBox="0 0 24 24" fill="none" xmlns="http://www.w3.org/2000/svg">
<path d="M19 8.00006H17V11.0001H14V13.0001H17V16.0001H19V13.0001H22V11.0001H19V8.00006ZM4 8.00006C4 10.2801 5.72 12.0001 8 12.0001C10.28 12.0001 12 10.2801 12 8.00006C12 5.72006 10.28 4.00006 8 4.00006C5.72 4.00006 4 5.72006 4 8.00006ZM10 8.00006C10 9.17806 9.178 10.0001 8 10.0001C6.822 10.0001 6 9.17806 6 8.00006C6 6.82206 6.822 6.00006 8 6.00006C9.178 6.00006 10 6.82206 10 8.00006ZM4 18.0001C4 16.3461 5.346 15.0001 7 15.0001H9C10.654 15.0001 12 16.3461 12 18.0001V19.0001H14V18.0001C14 15.2431 11.757 13.0001 9 13.0001H7C4.243 13.0001 2 15.2431 2 18.0001V19.0001H4V18.0001Z" fill="#2F80ED"/>
</svg>
