<svg width="32" height="41" viewBox="0 0 32 41" fill="none" xmlns="http://www.w3.org/2000/svg">
<path fill-rule="evenodd" clip-rule="evenodd" d="M31.8357 19.2938V38.91C31.5504 39.923 30.7587 40.7148 29.7456 41H2.09016C1.04137 40.6768 0.244627 39.8187 0 38.7487V19.455C0.702453 17.5807 1.26097 17.2056 3.34503 17.2046H5.58318V16.2589C5.58318 14.2792 5.56796 12.2995 5.58318 10.3209C5.56546 6.05295 8.20337 2.22417 12.1975 0.720518C13.0494 0.435924 13.9155 0.195504 14.7922 0H17.0435C17.1308 0.0565476 17.2257 0.100598 17.3254 0.130666C21.7488 0.628953 25.3103 3.99125 26.062 8.37882C26.3046 10.4195 26.3947 12.4755 26.3316 14.5296C26.358 15.4014 26.3316 16.2731 26.3316 17.2067C27.1527 17.2067 27.8734 17.2502 28.586 17.1975C30.0527 16.9291 31.4754 17.8469 31.8357 19.2938ZM9.58846 17.1479H22.3524C22.3524 14.8945 22.3605 12.7 22.3524 10.5054C22.3269 7.41875 20.1166 4.78329 17.0814 4.22078C14.0356 3.6876 11.0419 5.39863 9.9554 8.29357C9.76351 8.73222 9.64634 9.19994 9.60875 9.67719C9.57021 12.1587 9.58846 14.6401 9.58846 17.1479ZM14.4764 31.6979C14.4764 34.1518 14.4764 34.1518 16.6933 34.0292C16.7196 34.0292 16.747 34.0292 16.7734 34.0292C17.2113 34.0475 17.3907 33.8538 17.3755 33.4017C17.3491 32.6262 17.3866 31.8488 17.3633 31.0704C17.2334 30.2624 17.5473 29.447 18.1854 28.9346C18.8213 28.3618 19.1825 27.5448 19.1782 26.6889C19.1739 25.8331 18.8046 25.0197 18.1631 24.4532C17.5545 23.8562 16.7311 23.5294 15.8787 23.5467C15.0263 23.5642 14.2168 23.9241 13.6331 24.5455C13.024 25.1268 12.686 25.9366 12.7008 26.7785C12.7156 27.6202 13.082 28.4176 13.7111 28.9771C14.3076 29.4205 14.6042 30.1615 14.4785 30.8939C14.4602 31.1616 14.4744 31.4302 14.4744 31.6979H14.4764Z" fill="#084CD1" fill-opacity="0.66"/>
</svg>
