<svg width="13" height="16" viewBox="0 0 13 16" fill="none" xmlns="http://www.w3.org/2000/svg">
<path opacity="0.28" fill-rule="evenodd" clip-rule="evenodd" d="M1.47973 7.16137C1.47973 6.39324 1.46575 5.64212 1.47973 4.892C1.53827 2.45798 3.33921 0.418931 5.74737 0.0602313C8.15706 -0.316202 10.4859 1.10407 11.2543 3.41877C11.414 4.00596 11.5007 4.61061 11.5123 5.21904C11.5543 5.86014 11.5223 6.50724 11.5223 7.12935C11.5814 7.16137 11.6024 7.18335 11.6224 7.18136C12.5735 7.11635 13.0056 7.70143 12.9896 8.6306C12.9566 10.5719 12.9626 12.5142 12.9896 14.4565C13.039 14.8339 12.9103 15.2128 12.6415 15.4821C12.3725 15.7514 11.9938 15.8806 11.6164 15.8318C8.20382 15.7984 4.79098 15.7984 1.37772 15.8318C0.999729 15.8792 0.621251 15.7481 0.353508 15.4771C0.0858261 15.206 -0.0405979 14.8259 0.0115344 14.4485C0.0425452 12.4832 0.0205691 10.5179 0.0205691 8.54761C0.0205691 7.58945 0.358636 7.2374 1.3207 7.18838C1.3497 7.19037 1.3837 7.17938 1.47973 7.16137ZM3.5801 7.17138H9.36398C9.37198 7.07136 9.38596 6.99035 9.384 6.91035C9.36996 6.14622 9.405 5.37712 9.32497 4.61998C9.1524 3.23283 7.98327 2.18536 6.58552 2.16561C5.21403 2.09538 3.99539 3.03391 3.71305 4.37794C3.61416 5.3057 3.56941 6.23843 3.57906 7.17138H3.5801Z" fill="black"/>
</svg>
