<svg width="14" height="19" viewBox="0 0 14 19" fill="none" xmlns="http://www.w3.org/2000/svg">
<path fill-rule="evenodd" clip-rule="evenodd" d="M13.4856 3.57779L10.4222 0.518519C10.0953 0.188495 9.65061 0.00196217 9.18608 0H1.75053C0.781689 0.00284831 -0.00172197 0.789994 2.84263e-06 1.7588V16.9255C0.000477561 17.8917 0.783952 18.6748 1.75034 18.675H12.2505C13.2165 18.6744 13.9994 17.8914 14 16.9255V4.81706C13.9986 4.35228 13.8137 3.90686 13.4856 3.57773L13.4856 3.57779ZM12.6612 4.40741C12.7361 4.48146 12.7893 4.57476 12.8147 4.67705H9.33334V1.19572C9.43562 1.2211 9.52889 1.27421 9.60298 1.34921L12.6612 4.40741ZM12.2464 17.5104H1.75053C1.42791 17.5098 1.16667 17.2481 1.16667 16.9255V1.7588C1.16781 1.437 1.4287 1.17654 1.75053 1.17597H8.16667V4.96738C8.1661 5.19968 8.25816 5.42267 8.42242 5.58692C8.58667 5.75118 8.80963 5.84321 9.04192 5.84264H12.8333V16.9255C12.8322 17.2469 12.5719 17.5072 12.2505 17.5083L12.2464 17.5104ZM11.4479 11.2664C10.9553 10.781 9.44224 10.9314 8.76089 11.0216C7.98526 10.5513 7.40253 9.82001 7.1172 8.95894C7.37177 8.198 7.45117 7.3894 7.34949 6.59345C7.30503 6.21222 7.01124 5.90771 6.63184 5.8496C6.25242 5.79149 5.881 5.9941 5.72445 6.34457C5.60125 7.30262 5.70606 8.27623 6.03038 9.18604C5.57384 10.2864 5.06159 11.3629 4.49558 12.4112C3.73749 12.8012 2.52519 13.4794 2.35201 14.3215C2.22445 14.9344 3.18682 15.7578 4.28815 14.5548C4.72462 14.0425 5.10691 13.4865 5.42889 12.8956C6.40268 12.5308 7.40196 12.2383 8.41868 12.0203C9.13956 12.4353 9.94433 12.6834 10.7738 12.7462C11.128 12.7552 11.4533 12.5517 11.6002 12.2292C11.7471 11.9067 11.6871 11.5277 11.4479 11.2664ZM3.09141 14.5112C3.42174 13.9356 3.86139 13.4301 4.38564 13.0231C3.57778 14.3111 3.09141 14.5372 3.09141 14.5112ZM6.73489 6.40679C7.80139 6.40679 7.68982 7.7736 6.99282 8.14179C6.42431 7.57878 6.33571 6.98253 6.73489 6.40679ZM5.52534 12.2142C5.93312 11.4675 6.28463 10.6913 6.5769 9.8923C6.89231 10.481 7.32838 10.9966 7.85658 11.4053C7.05687 11.6024 6.27713 11.8732 5.52741 12.2142H5.52534ZM11.1181 12.5431C11.1181 12.5431 10.9107 13.1909 9.53243 11.7007C11.0289 11.4218 11.2726 12.2931 11.1201 12.5431H11.1181Z" fill="white"/>
</svg>
