<svg width="20" height="18" viewBox="0 0 20 18" fill="none" xmlns="http://www.w3.org/2000/svg">
<path fill-rule="evenodd" clip-rule="evenodd" d="M8.68032 9.34087C9.53844 9.3743 10.7835 9.2497 11.0165 8.22649C11.0804 7.37695 10.7031 6.55422 10.0176 6.0484C9.2942 5.35159 8.29919 5.01136 7.30059 5.11941C6.10635 5.43579 5.18307 6.3833 4.89752 7.58524C4.35513 8.87538 4.53345 10.3559 5.36659 11.4805C6.24399 12.4137 7.44862 12.9711 8.72794 13.0355C11.8026 13.3526 14.9583 11.7297 15.5591 8.49597C16.3078 4.46092 12.684 1.10058 9.0653 0.243528C5.75861 -0.536538 2.30005 0.536306 0.811864 3.76799C-0.717878 7.08985 0.0723443 11.4055 1.86747 14.4741C2.76565 16.1087 4.30096 17.2982 6.10821 17.7595C8.15759 18.1534 10.2708 18.0625 12.2787 17.494C14.2496 17.0497 16.0427 16.0266 17.4282 14.5562C18.4723 13.3267 19.1486 11.8277 19.3794 10.2314C19.8859 7.0706 19.0531 3.35872 16.5175 1.22723C15.9155 0.724139 15.2329 0.326477 14.4984 0.0510584C14.1215 -0.0927955 13.9584 0.513011 14.3312 0.658905C20.0601 2.84106 20.3388 12.0387 15.6168 15.3484C14.0378 16.3907 12.2308 17.0374 10.3488 17.2337C8.52834 17.5868 6.64405 17.3926 4.934 16.6755C3.50023 15.8483 2.39911 14.5477 1.81986 12.9971C1.1052 11.3701 0.705017 9.62249 0.640587 7.84663C0.581846 4.9918 1.81887 1.94348 4.703 0.950663C8.0803 -0.0281184 11.7103 1.19357 13.8085 4.01519C14.8859 5.39577 15.2603 7.19875 14.8216 8.89413C14.4105 10.2864 13.3888 11.4162 12.0448 11.9647C10.1199 12.7488 6.92873 12.7975 5.65225 10.823C4.58044 9.16462 5.629 5.39398 8.02391 5.7374C8.82489 5.87949 9.54128 6.32283 10.0257 6.9764C10.355 7.41606 10.6781 8.13838 10.0854 8.50308C9.64714 8.70611 9.16027 8.78059 8.68131 8.71786C8.27619 8.70164 8.27619 9.3257 8.68131 9.34393" fill="#003849"/>
</svg>
