<svg width="24" height="23" viewBox="0 0 24 23" fill="none" xmlns="http://www.w3.org/2000/svg">
<path fill-rule="evenodd" clip-rule="evenodd" d="M11.7428 0.040343C7.17651 -0.355692 2.86312 2.19366 1.00807 6.38493C-0.772322 10.3653 -0.162623 15.0087 2.58498 18.3946C6.13451 22.2542 11.5166 23.8532 16.5977 22.5578C19.0172 21.8936 21.0741 20.296 22.3164 18.1161C23.5323 15.8236 24.0476 13.2243 23.798 10.6413C23.6349 8.34401 22.7559 6.15562 21.2844 4.38381C19.4224 2.34709 16.9537 0.964623 14.2442 0.441373C13.4197 0.259013 12.5857 0.123764 11.7458 0.0362905C11.3458 -0.00725501 11.3487 0.619608 11.7458 0.662145C14.6521 0.854186 17.4336 1.91552 19.729 3.70836C21.4013 5.15826 22.5441 7.12297 22.9778 9.29342C23.9306 13.8962 22.3023 19.4032 17.7896 21.46C13.4562 23.4358 7.54206 22.1456 4.06138 19.0174C1.02698 16.2069 -0.128751 11.9065 1.08805 7.95361C2.36938 3.2366 6.88501 0.147175 11.7458 0.662141C12.1509 0.689485 12.1509 0.0636339 11.7458 0.0362944" fill="#003849"/>
</svg>
