<svg width="18" height="17" viewBox="0 0 18 17" fill="none" xmlns="http://www.w3.org/2000/svg">
<path fill-rule="evenodd" clip-rule="evenodd" d="M8.68165 0.0294018C5.29678 -0.261929 2.10195 1.63371 0.735498 4.7442C-0.572825 7.68984 -0.111791 11.1211 1.92755 13.617C4.55681 16.4661 8.54079 17.6367 12.2933 16.6624C16.1258 15.556 17.9004 11.6666 17.5875 7.89186C17.4607 5.9574 16.6414 4.13332 15.2796 2.75353C13.4486 1.13157 11.1264 0.170874 8.68468 0.0252719C8.27661 -0.0201805 8.27976 0.619266 8.68468 0.66369C12.4264 1.0769 15.9967 2.96737 16.8107 6.91048C17.4987 10.242 16.3168 14.2296 13.0432 15.7089C9.6355 17.0024 5.79124 16.295 3.06715 13.8732C0.906116 11.8271 0.100315 8.72838 0.990731 5.8888C1.98455 2.53757 5.20322 0.351714 8.6848 0.663686C9.09804 0.690546 9.09804 0.052128 8.6848 0.0252719" fill="#003849"/>
</svg>
