<svg width="41" height="38" viewBox="0 0 41 38" fill="none" xmlns="http://www.w3.org/2000/svg">
<path fill-rule="evenodd" clip-rule="evenodd" d="M31.9906 20.3704C27.1223 20.3698 23.1753 24.3159 23.1748 29.1841C23.1742 34.0524 27.1203 37.9994 31.9886 38C36.8569 38.0005 40.8038 34.0545 40.8044 29.1862C40.8044 24.3206 36.8602 20.3737 31.9926 20.3704H31.9906ZM32.5565 35.7015V34.9401C32.5565 34.627 32.3026 34.373 31.9894 34.373C31.6763 34.373 31.4224 34.627 31.4224 34.9401V35.7015C28.2595 35.4229 25.7521 32.9155 25.4735 29.7526H26.237C26.5501 29.7526 26.804 29.4987 26.804 29.1856C26.804 28.8725 26.5501 28.6185 26.237 28.6185H25.4735C25.7521 25.4557 28.2595 22.9482 31.4224 22.6696V23.4321C31.4224 23.7453 31.6763 23.9991 31.9894 23.9991C32.3026 23.9991 32.5565 23.7453 32.5565 23.4321V22.6736C35.7197 22.9514 38.2276 25.4592 38.5053 28.6226H37.7419C37.4288 28.6226 37.1749 28.8764 37.1749 29.1895C37.1749 29.5027 37.4288 29.7566 37.7419 29.7566H38.5053C38.2253 32.9176 35.7186 35.4225 32.5574 35.7005L32.5565 35.7015Z" fill="#084CD1" fill-opacity="0.66"/>
<path fill-rule="evenodd" clip-rule="evenodd" d="M35.2753 28.3338H33.2304C32.9499 27.9254 32.4868 27.6808 31.9914 27.6793H31.9661L30.103 25.0538C29.83 24.6709 29.2983 24.5819 28.9154 24.8548C28.5326 25.1279 28.4435 25.6595 28.7165 26.0424L30.5807 28.668C30.52 28.833 30.4882 29.0072 30.4868 29.183C30.4868 29.8419 30.9158 30.4239 31.5452 30.6191C32.1746 30.8142 32.8577 30.5768 33.2304 30.0334L35.2754 30.0333C35.7458 30.0333 36.1272 29.6519 36.1272 29.1815C36.1272 28.7111 35.7458 28.3297 35.2754 28.3297L35.2753 28.3338Z" fill="#084CD1" fill-opacity="0.66"/>
<path fill-rule="evenodd" clip-rule="evenodd" d="M8.48324 11.6393C9.22341 11.6395 9.93336 11.3458 10.4568 10.8225C10.9803 10.2992 11.2744 9.58931 11.2744 8.84919V2.79022C11.2744 1.24922 10.0252 0 8.48425 0C6.94329 0 5.6941 1.24922 5.6941 2.79022V8.84919C5.69383 9.58906 5.98759 10.2987 6.51069 10.822C7.0338 11.3453 7.74339 11.6393 8.48328 11.6393H8.48324Z" fill="#084CD1" fill-opacity="0.66"/>
<path fill-rule="evenodd" clip-rule="evenodd" d="M25.5754 11.6393C26.3156 11.6395 27.0255 11.3458 27.549 10.8225C28.0725 10.2992 28.3666 9.58931 28.3666 8.84919L28.3666 2.79022C28.3666 1.24922 27.1174 0 25.5764 0C24.0354 0 22.7862 1.24922 22.7862 2.79022V8.84919C22.7858 9.58844 23.0794 10.2981 23.6024 10.8215C24.1253 11.3449 24.8348 11.6392 25.5747 11.6393H25.5754Z" fill="#084CD1" fill-opacity="0.66"/>
<path fill-rule="evenodd" clip-rule="evenodd" d="M12.2651 19.3887C12.2653 19.0059 12.1133 18.6388 11.8426 18.3684C11.5719 18.0978 11.2047 17.946 10.822 17.9467H8.14799C7.35101 17.946 6.70448 18.5917 6.70392 19.3887L6.70393 22.0617C6.70393 22.8595 7.35029 23.5063 8.14799 23.5069L10.822 23.5068C11.2051 23.5068 11.5724 23.3545 11.8431 23.0834C12.1138 22.8124 12.2656 22.4448 12.2651 22.0617V19.3887Z" fill="#084CD1" fill-opacity="0.66"/>
<path fill-rule="evenodd" clip-rule="evenodd" d="M19.8112 19.3899C19.8112 18.5941 19.166 17.9489 18.3701 17.9489H15.6911C14.8952 17.9489 14.25 18.5941 14.25 19.3899V22.0629C14.2496 22.8595 14.8948 23.5055 15.6912 23.506H18.3661C19.1623 23.5048 19.8071 22.8591 19.8071 22.0629L19.8112 19.3899Z" fill="#084CD1" fill-opacity="0.66"/>
<path fill-rule="evenodd" clip-rule="evenodd" d="M23.2392 17.9467C22.8564 17.9462 22.4891 18.0978 22.2182 18.3682C21.9474 18.6388 21.7952 19.0059 21.7952 19.3887V22.0617C21.8009 22.768 22.3235 23.3631 23.0231 23.4603C24.086 21.8059 25.5837 20.4758 27.3522 19.616V19.3877C27.3525 19.0052 27.2006 18.6381 26.93 18.3675C26.6593 18.0969 26.2921 17.9452 25.9094 17.9457L23.2392 17.9467Z" fill="#084CD1" fill-opacity="0.66"/>
<path fill-rule="evenodd" clip-rule="evenodd" d="M8.14798 25.1912C7.3514 25.1906 6.70504 25.8357 6.70392 26.6323V29.3062C6.705 30.1028 7.35132 30.7479 8.1479 30.7473H10.823C11.2053 30.7476 11.572 30.5959 11.8423 30.3256C12.1126 30.0552 12.2643 29.6886 12.264 29.3062V26.6323C12.2643 26.25 12.1126 25.8833 11.8423 25.613C11.572 25.3427 11.2053 25.191 10.823 25.1912H8.14798Z" fill="#084CD1" fill-opacity="0.66"/>
<path fill-rule="evenodd" clip-rule="evenodd" d="M18.3669 25.1922H15.698C14.9019 25.1927 14.2569 25.8382 14.2569 26.6342V29.3062C14.2567 29.6886 14.4084 30.0552 14.6787 30.3256C14.949 30.5959 15.3157 30.7475 15.698 30.7473H18.371C19.1668 30.7473 19.812 30.1021 19.812 29.3062V26.6352C19.8123 26.2521 19.66 25.8845 19.3889 25.6138C19.1178 25.3431 18.7501 25.1914 18.3669 25.1922Z" fill="#084CD1" fill-opacity="0.66"/>
<path fill-rule="evenodd" clip-rule="evenodd" d="M22.2647 33.5091H8.69968C6.3628 33.5058 4.4689 31.6129 4.46445 29.2759L4.46446 15.104H29.5971V18.8121C31.0616 18.4646 32.5842 18.4391 34.0595 18.7373L34.0595 5.40959H30.0394V8.84303C30.0394 11.3087 28.0406 13.3075 25.5749 13.3075C23.1093 13.3075 21.1105 11.3087 21.1105 8.84303V5.40959H12.949V8.84303C12.949 11.3087 10.9502 13.3075 8.48458 13.3075C6.01893 13.3075 4.02013 11.3087 4.02013 8.84303V5.40959H0V29.2719C0 34.0766 3.89498 37.9715 8.69968 37.9715H25.3619C25.5638 37.9715 25.7547 37.9554 25.9496 37.9423C24.3393 36.8291 23.0648 35.2958 22.2647 33.5091H22.2647Z" fill="#084CD1" fill-opacity="0.66"/>
</svg>
