<svg width="18" height="12" viewBox="0 0 18 12" fill="none" xmlns="http://www.w3.org/2000/svg">
<path fill-rule="evenodd" clip-rule="evenodd" d="M2.57102 5.14301C3.51715 5.14189 4.28391 4.37515 4.285 3.429C4.28397 2.48297 3.51727 1.71617 2.57114 1.715C1.62491 1.71603 0.858094 2.48279 0.856995 3.429C0.858033 4.37503 1.62473 5.14183 2.57086 5.14301H2.57102ZM14.571 5.14301C15.5172 5.14189 16.2839 4.37515 16.285 3.429C16.284 2.48297 15.5173 1.71617 14.5711 1.715C13.6249 1.71603 12.8581 2.48279 12.857 3.429C12.858 4.37503 13.6247 5.14183 14.5709 5.14301H14.571ZM15.428 6H13.714C13.261 5.99997 12.8265 6.17981 12.506 6.5C13.6066 7.09879 14.3544 8.18781 14.518 9.42999H16.286C16.5134 9.43027 16.7315 9.34006 16.8923 9.17929C17.0531 9.01851 17.1433 8.80037 17.143 8.573V7.716C17.143 6.76906 16.3759 6.0011 15.429 6H15.428ZM8.57102 6C10.2278 6 11.571 4.65686 11.571 3C11.571 1.34314 10.2278 0 8.57102 0C6.91415 0 5.57101 1.34314 5.57101 3C5.57101 4.65686 6.91415 6 8.57102 6ZM10.628 6.85699H10.406C9.8345 7.13652 9.20718 7.28319 8.57102 7.286C7.93485 7.28287 7.30762 7.13623 6.73599 6.85699H6.51401C4.81027 6.85811 3.42957 8.23927 3.42899 9.94299V10.714C3.42899 11.4238 4.00415 11.9995 4.71399 12H12.428C13.1382 12 13.714 11.4242 13.714 10.714V9.94299C13.714 8.24026 12.3337 6.85866 10.63 6.85699H10.628ZM4.63699 6.5C4.31653 6.17981 3.88202 5.99997 3.42899 6H1.71399C0.767853 6.0011 0.00109926 6.76784 6.25556e-07 7.714V8.571C-0.000274033 8.79831 0.0899054 9.01645 0.250672 9.17725C0.411439 9.33803 0.629578 9.42825 0.856934 9.42801L2.62201 9.42799C2.78842 8.18655 3.53693 7.09891 4.63699 6.5Z" fill="white"/>
</svg>
