<svg width="18" height="18" viewBox="0 0 18 18" fill="none" xmlns="http://www.w3.org/2000/svg">
<path fill-rule="evenodd" clip-rule="evenodd" d="M6.35743 9.92932C6.35743 9.70499 6.17556 9.52313 5.95124 9.52313L4.52941 9.5231C4.30509 9.52313 4.12316 9.70499 4.12316 9.92935V11.3511C4.12316 11.5755 4.30502 11.7573 4.52941 11.7573H5.95124C6.17556 11.7573 6.35743 11.5755 6.35743 11.3511V9.92932Z" fill="#B8B8B8"/>
<path fill-rule="evenodd" clip-rule="evenodd" d="M9.92111 9.92932C9.92111 9.70499 9.73924 9.52313 9.51491 9.52313L8.09309 9.5231C7.86876 9.52313 7.6869 9.70499 7.6869 9.92935V11.3511C7.6869 11.5755 7.86876 11.7573 8.09309 11.7573H9.51491C9.73924 11.7573 9.92111 11.5755 9.92111 11.3511V9.92932Z" fill="#B8B8B8"/>
<path fill-rule="evenodd" clip-rule="evenodd" d="M13.4837 9.92932C13.4837 9.70499 13.3019 9.52313 13.0775 9.52313L11.6558 9.5231C11.4314 9.52313 11.2495 9.70499 11.2495 9.92935V11.3511C11.2495 11.5755 11.4314 11.7573 11.6558 11.7573H13.0775C13.3019 11.7573 13.4837 11.5755 13.4837 11.3511V9.92932Z" fill="#B8B8B8"/>
<path fill-rule="evenodd" clip-rule="evenodd" d="M6.35743 13.4919C6.35743 13.2676 6.17556 13.0857 5.95124 13.0857L4.52941 13.0857C4.30509 13.0857 4.12316 13.2676 4.12316 13.4919V14.9137C4.12316 15.138 4.30502 15.3199 4.52941 15.3199H5.95124C6.17556 15.3199 6.35743 15.138 6.35743 14.9137V13.4919Z" fill="#B8B8B8"/>
<path fill-rule="evenodd" clip-rule="evenodd" d="M9.92111 13.4919C9.92111 13.2676 9.73924 13.0857 9.51491 13.0857L8.09309 13.0857C7.86876 13.0857 7.6869 13.2676 7.6869 13.4919V14.9137C7.6869 15.138 7.86876 15.3199 8.09309 15.3199H9.51491C9.73924 15.3199 9.92111 15.138 9.92111 14.9137V13.4919Z" fill="#B8B8B8"/>
<path fill-rule="evenodd" clip-rule="evenodd" d="M13.4837 13.4919C13.4837 13.2676 13.3019 13.0857 13.0775 13.0857L11.6558 13.0857C11.4314 13.0857 11.2495 13.2676 11.2495 13.4919V14.9137C11.2495 15.138 11.4314 15.3199 11.6558 15.3199H13.0775C13.3019 15.3199 13.4837 15.138 13.4837 14.9137V13.4919Z" fill="#B8B8B8"/>
<path fill-rule="evenodd" clip-rule="evenodd" d="M16.0349 2.00468V4.18208C16.0346 4.65428 15.8466 5.10693 15.5122 5.44032C15.1779 5.7737 14.7246 5.96041 14.2525 5.95933H13.1263C12.1411 5.96213 11.3394 5.16724 11.3338 4.18208V1.99656H6.26606V4.18105C6.26048 5.16622 5.45876 5.96111 4.47356 5.9583H3.34834C2.87619 5.95939 2.42296 5.77264 2.08867 5.43927C1.75432 5.10588 1.56625 4.6532 1.566 4.18105V2.00468C0.69678 2.0362 0.00650849 2.74661 0 3.6164V16.375C0 17.2681 0.720707 17.9938 1.6138 17.9999H15.9861C16.8787 17.9932 17.5989 17.2677 17.5988 16.375V3.6164C17.5924 2.74737 16.9033 2.03725 16.0349 2.00468ZM15.5128 15.5809C15.51 15.9638 15.1991 16.2729 14.8162 16.2735H2.75526C2.3699 16.2735 2.05755 15.9611 2.05755 15.5758V8.9908C2.05755 8.60548 2.3699 8.2931 2.75526 8.2931H14.8162C15.2015 8.2931 15.5139 8.60548 15.5139 8.9908V15.5809H15.5128Z" fill="#B8B8B8"/>
<path fill-rule="evenodd" clip-rule="evenodd" d="M3.34524 4.79147H4.46241C4.79893 4.79147 5.07172 4.51866 5.07172 4.18212V0.60935C5.07172 0.272814 4.79893 0 4.46241 0H3.34524C3.00872 0 2.73592 0.272814 2.73592 0.60935V4.18009C2.73536 4.34206 2.79933 4.49757 2.9137 4.61229C3.028 4.72699 3.18333 4.79147 3.34524 4.79147Z" fill="#B8B8B8"/>
<path fill-rule="evenodd" clip-rule="evenodd" d="M13.1121 4.79147H14.2292C14.5657 4.79147 14.8386 4.51866 14.8386 4.18212L14.8385 0.60935C14.8386 0.272814 14.5657 0 14.2292 0H13.1121C12.7755 0 12.5027 0.272814 12.5027 0.60935V4.18009C12.5022 4.34206 12.5662 4.49757 12.6805 4.61229C12.7948 4.72699 12.9502 4.79147 13.1121 4.79147Z" fill="#B8B8B8"/>
</svg>
