<svg width="34" height="36" viewBox="0 0 34 36" fill="none" xmlns="http://www.w3.org/2000/svg">
<path fill-rule="evenodd" clip-rule="evenodd" d="M1.20041 3.0143H6.64803C6.64803 3.1968 6.64803 3.3602 6.64803 3.52366C6.64803 5.17207 6.64002 6.82048 6.64803 8.46791C6.63218 10.0376 7.84332 11.3472 9.40945 11.454C10.9019 11.5513 12.2382 10.5348 12.5429 9.07054C12.8143 7.8266 12.2147 6.55567 11.0819 5.97421C11.0819 6.80745 11.091 7.61565 11.0819 8.42379C11.1051 9.12997 10.616 9.74998 9.92383 9.89178C9.5027 9.9908 9.0594 9.893 8.71904 9.62593C8.37868 9.35892 8.17818 8.95163 8.17414 8.51907C8.14874 6.14735 8.14874 3.77428 8.17414 1.39992C8.20726 0.620053 8.85974 0.0108735 9.64008 0.0312529C10.4148 0.0440436 11.0442 0.66069 11.0729 1.43499C11.093 1.92434 11.0729 2.41565 11.0729 2.95812H21.4007C21.4107 3.16865 21.4257 3.33009 21.4257 3.49251C21.4257 5.14098 21.4257 6.78939 21.4257 8.43682C21.4066 9.96797 22.5525 11.2638 24.0745 11.4319C25.5966 11.6002 26.9978 10.5859 27.3135 9.08756C27.5927 7.85004 27.0205 6.57697 25.9098 5.96418C25.8881 6.07985 25.8733 6.19668 25.8656 6.31412C25.8656 7.02299 25.8757 7.73193 25.8596 8.43982C25.889 8.9774 25.6193 9.48731 25.1584 9.76559C24.6975 10.0439 24.1206 10.045 23.6586 9.76871C23.1965 9.49233 22.9247 8.98352 22.9518 8.44582C22.9405 6.13499 22.9405 3.82446 22.9518 1.51424C22.9301 0.982049 23.2009 0.480519 23.6579 0.206834C24.1148 -0.0669111 24.6847 -0.0690531 25.1437 0.201143C25.6027 0.4714 25.8773 0.970849 25.8596 1.50316C25.8717 1.97648 25.8596 2.44974 25.8596 2.97611H32.8113C32.8374 3.31504 32.8685 3.60279 32.8795 3.8916C33.1068 9.58554 33.333 15.2792 33.5583 20.9724C33.692 24.3268 33.833 27.6811 33.9814 31.0355C34.0935 32.2052 33.693 33.3661 32.8835 34.2179C32.074 35.0697 30.935 35.5288 29.7611 35.4764C21.289 35.4838 12.8166 35.4838 4.34384 35.4764C3.12984 35.5574 1.94323 35.0913 1.10881 34.2059C0.274381 33.3204 -0.120508 32.1082 0.0322608 30.9011C0.174641 27.9322 0.276921 24.9612 0.397239 21.9912C0.613824 16.6208 0.831067 11.2507 1.04898 5.88095C1.10114 4.93743 1.15327 3.98688 1.20041 3.0143ZM2.81433 14.0669C2.7983 14.2264 2.78125 14.3317 2.77822 14.4369C2.59074 20.0089 2.42629 25.5809 2.20269 31.1508C2.15669 31.7279 2.36142 32.2968 2.76454 32.7122C3.16768 33.1276 3.73018 33.3493 4.30833 33.3207C12.7801 33.2916 21.2538 33.3056 29.7226 33.3037C30.3093 33.3808 30.8979 33.1754 31.3094 32.7501C31.7209 32.3248 31.9067 31.7297 31.8102 31.1458C31.5923 25.8068 31.3687 20.4679 31.1394 15.1289C31.1243 14.7799 31.0903 14.433 31.0642 14.067L2.81433 14.0669Z" fill="#084CD1" fill-opacity="0.66"/>
<path fill-rule="evenodd" clip-rule="evenodd" d="M12.3707 21.0257C13.0155 21.0257 13.6612 21.0447 14.3049 21.0116C14.4814 20.9792 14.6322 20.8655 14.712 20.7048C15.1001 19.654 15.455 18.5922 15.82 17.5333C15.8651 17.402 15.9042 17.2696 15.9524 17.1392C16.0757 16.6421 16.5251 16.2952 17.0373 16.302C17.5339 16.3065 17.9637 16.6483 18.0801 17.1312C18.4872 18.2903 18.8983 19.4485 19.2733 20.6186C19.3246 20.8958 19.5889 21.0805 19.8669 21.0337C21.0701 21.0337 22.2663 21.0728 23.4665 21.0958C23.9912 21.041 24.4846 21.3546 24.6577 21.8529C24.8196 22.3582 24.6005 22.9073 24.1353 23.1624C23.1788 23.8874 22.2302 24.6173 21.2546 25.3222C21.0049 25.4554 20.9042 25.7616 21.026 26.0171C21.394 27.1581 21.7389 28.3062 22.0878 29.4533C22.3216 29.9403 22.1716 30.5247 21.7323 30.8389C21.2929 31.1531 20.6913 31.1062 20.306 30.7277C19.3104 30.0258 18.3107 29.337 17.325 28.622C17.1549 28.4592 16.8866 28.4592 16.7164 28.622C15.7298 29.3319 14.7291 30.0258 13.7334 30.7197C13.3489 31.0978 12.7484 31.1453 12.3094 30.8322C11.8703 30.5192 11.7194 29.936 11.9516 29.4493C12.3006 28.3022 12.6455 27.1541 13.0135 26.0131C13.1362 25.7579 13.0364 25.4512 12.7869 25.3173C11.7912 24.5942 10.8136 23.8453 9.83193 23.1022C9.41749 22.834 9.23484 22.3208 9.38657 21.851C9.53831 21.3813 9.98663 21.072 10.4797 21.0968C11.1104 21.0868 11.741 21.0968 12.3717 21.0968L12.3707 21.0257Z" fill="#084CD1" fill-opacity="0.66"/>
</svg>
