<svg width="48" height="53" viewBox="0 0 48 53" fill="none" xmlns="http://www.w3.org/2000/svg">
<path fill-rule="evenodd" clip-rule="evenodd" d="M0.00605284 10.9C2.13653 17.1936 4.28998 23.4794 6.46629 29.7575C8.46385 35.5255 10.4715 41.2935 12.5459 47.0333C13.2402 48.9559 13.9293 50.8786 14.6873 52.774C14.7156 52.8658 14.7838 52.94 14.8727 52.9763C14.9616 53.0125 15.0622 53.007 15.1467 52.9612C18.7228 51.3573 22.4538 50.0863 26.1404 48.7647C30.8389 47.0808 35.5443 45.4111 40.1921 43.5896C42.7118 42.602 45.2154 41.5658 47.6805 40.4526C47.8024 40.3806 47.8612 40.2361 47.8243 40.0995C44.5232 29.9133 41.1939 19.7494 37.2312 9.79803C35.9551 6.59525 34.6397 3.40764 33.3099 0.22814C33.2605 0.0644196 33.0914 -0.0317311 32.9255 0.00955793C23.0712 2.87132 13.3253 6.08118 3.61169 9.38617C2.48537 9.76869 1.36214 10.1643 0.227785 10.5195C-0.15478 10.64 0.00815281 11.2441 0.394794 11.1267C3.04903 10.2939 5.66991 9.3467 8.305 8.45823C13.2136 6.80472 18.1383 5.19945 23.0794 3.64242C26.4072 2.60013 29.7466 1.59156 33.0974 0.616726L32.712 0.398144C36.8013 10.1765 40.5778 20.0388 43.9081 30.1025C45.028 33.4871 46.134 36.8764 47.2263 40.2705L47.3699 39.9173C38.5549 43.9286 29.3069 46.8683 20.2501 50.2573C18.4286 50.9383 16.6142 51.6355 14.8412 52.4299L15.3016 52.6171C13.6532 48.4945 12.2203 44.2798 10.7479 40.0944C8.51351 33.757 6.31028 27.4091 4.13792 21.0508C2.96009 17.6169 1.78892 14.1811 0.624555 10.7432C0.495963 10.3637 -0.109198 10.5266 0.0172938 10.9091" fill="#003849"/>
</svg>
