<svg width="18" height="8" viewBox="0 0 18 8" fill="none" xmlns="http://www.w3.org/2000/svg">
<path fill-rule="evenodd" clip-rule="evenodd" d="M0.218767 3.73053C3.2313 4.8833 6.28145 5.94546 9.3419 6.95868C11.0036 7.63088 12.7768 7.98415 14.5694 8.00001C15.5065 7.94794 17.5288 7.64388 17.8455 6.55672C18.2619 5.12592 15.8836 4.13769 14.9369 3.71282C12.627 2.73033 10.2411 1.93699 7.80278 1.34067C5.85841 0.776609 3.88188 0.330113 1.88386 0.00359898C1.47874 -0.052646 1.3037 0.567991 1.71188 0.628388C3.20702 0.870612 4.68843 1.19039 6.15027 1.58642C8.43938 2.13135 10.6972 2.80019 12.9136 3.58996C13.8817 3.92802 14.8218 4.3413 15.7253 4.82601C16.2136 5.0978 16.9749 5.48726 17.1903 6.04959C17.5246 6.91285 15.5659 7.23463 14.9953 7.31793C13.2477 7.42967 11.4979 7.13638 9.8824 6.4609C6.69585 5.41228 3.52074 4.30638 0.388467 3.10677C0.00114405 2.9589 -0.166649 3.58058 0.216733 3.73156" fill="#003849"/>
</svg>
