<svg width="343" height="35" viewBox="0 0 343 35" fill="none" xmlns="http://www.w3.org/2000/svg">
<path fill-rule="evenodd" clip-rule="evenodd" d="M0 17.5C0 12.6675 1.70854 8.54272 5.12563 5.12563C8.54272 1.70854 12.6675 0 17.5 0H325.5C330.332 0 334.457 1.70854 337.874 5.12563C341.291 8.54272 343 12.6675 343 17.5C343 22.3325 341.291 26.4573 337.874 29.8744C334.457 33.2915 330.332 35 325.5 35H17.5C12.6675 35 8.54272 33.2915 5.12563 29.8744C1.70854 26.4573 0 22.3325 0 17.5Z" fill="#05518B"/>
<path fill-rule="evenodd" clip-rule="evenodd" d="M0.5 17.5C0.5 12.8056 2.15973 8.79864 5.47918 5.47918C8.79864 2.15973 12.8056 0.5 17.5 0.5H325.5C330.194 0.5 334.201 2.15973 337.521 5.47918C340.84 8.79864 342.5 12.8056 342.5 17.5C342.5 22.1944 340.84 26.2014 337.521 29.5208C334.201 32.8403 330.194 34.5 325.5 34.5H17.5C12.8056 34.5 8.79864 32.8403 5.47918 29.5208C2.15973 26.2014 0.5 22.1944 0.5 17.5V17.5Z" stroke="white" stroke-opacity="0.0784314"/>
</svg>
