<svg width="18" height="20" viewBox="0 0 18 20" fill="none" xmlns="http://www.w3.org/2000/svg">
<path fill-rule="evenodd" clip-rule="evenodd" d="M13.75 12.5C12.7886 12.498 11.8636 12.8673 11.168 13.531L7.328 11.131C7.5585 10.396 7.5585 9.60802 7.328 8.873L11.168 6.473C11.8642 7.1352 12.7892 7.5031 13.75 7.5C15.8208 7.49945 17.4995 5.82084 17.5 3.75C17.5 1.68016 15.8218 0.00110626 13.751 0C11.6798 0 10.0005 1.67877 10 3.75C10.0002 4.13339 10.0582 4.51401 10.1721 4.87952L6.332 7.279C5.63611 6.61607 4.71112 6.24744 3.75 6.25C1.67917 6.25055 0.000549316 7.92916 0 10C0 12.0698 1.67816 13.7489 3.74899 13.75C4.71072 13.7523 5.63617 13.3829 6.332 12.719L10.172 15.119C10.0583 15.4852 10.0003 15.8665 10 16.25C10 18.3198 11.6782 19.9989 13.749 20C15.8202 20 17.4995 18.3212 17.5 16.25C17.5 14.1802 15.8218 12.5011 13.751 12.5H13.75ZM13.75 1.875C14.7855 1.875 15.625 2.71447 15.625 3.75C15.625 4.78553 14.7855 5.625 13.75 5.625C12.7145 5.625 11.875 4.78553 11.875 3.75C11.875 2.71447 12.7145 1.875 13.75 1.875ZM3.75 11.875C2.71448 11.875 1.875 11.0355 1.875 10C1.875 8.96446 2.71448 8.125 3.75 8.125C4.78552 8.125 5.625 8.96446 5.625 10C5.625 11.0355 4.78552 11.875 3.75 11.875ZM13.75 18.125C12.7145 18.125 11.875 17.2855 11.875 16.25C11.875 15.2145 12.7145 14.375 13.75 14.375C14.7855 14.375 15.625 15.2145 15.625 16.25C15.625 17.2855 14.7855 18.125 13.75 18.125Z" fill="white"/>
</svg>
