<svg width="13" height="13" viewBox="0 0 13 13" fill="none" xmlns="http://www.w3.org/2000/svg">
<path fill-rule="evenodd" clip-rule="evenodd" d="M6.50002 0C2.91016 0 0 2.91015 0 6.50002C0 10.0899 2.91016 13 6.50002 13C10.0899 13 13 10.0899 13 6.50002C13 2.91015 10.0899 0 6.50002 0ZM6.50002 11.733C3.60745 11.7336 1.26194 9.38948 1.2608 6.49691C1.26012 5.10883 1.81164 3.77589 2.79395 2.79301C3.77626 1.81011 5.10888 1.25782 6.49849 1.25769C7.88836 1.25702 9.22153 1.80874 10.2045 2.79138C11.1874 3.77403 11.7395 5.10704 11.7392 6.49691C11.7378 9.38997 9.39209 11.7339 6.49952 11.733H6.50002ZM8.11883 9.00097C8.1867 9.05127 8.27185 9.07236 8.35535 9.05958C8.43886 9.04678 8.5138 9.00117 8.56351 8.93286L9.05565 8.25398C9.10651 8.18649 9.12756 8.10115 9.11392 8.01776C9.10028 7.93435 9.05313 7.86017 8.98343 7.81239L7.22946 6.53922V2.82492C7.22617 2.65536 7.0895 2.5187 6.91993 2.51541H6.08113C5.91157 2.5187 5.7749 2.65536 5.7716 2.82492V7.12628C5.77176 7.22633 5.81919 7.32044 5.89953 7.38008L8.11883 9.00097Z" fill="#6789CA"/>
</svg>
