<svg width="2" height="3" viewBox="0 0 2 3" fill="none" xmlns="http://www.w3.org/2000/svg">
<path fill-rule="evenodd" clip-rule="evenodd" d="M1.30082 0.124847C0.734359 0.771013 0.297596 1.52016 0.014284 2.3314C-0.0447292 2.5513 0.0839897 2.77782 0.303228 2.83959C0.522875 2.89402 0.746602 2.76626 0.811329 2.54939C0.840795 2.46112 0.872873 2.37152 0.906256 2.28192L0.933029 2.2164C0.975799 2.11208 0.911643 2.26186 0.933029 2.20302L0.990573 2.07598C1.07081 1.90213 1.16174 1.73363 1.25797 1.56914C1.35428 1.40465 1.45329 1.25754 1.56022 1.10777L1.64184 0.996771L1.67253 0.956653C1.64315 0.995434 1.68861 0.936594 1.69392 0.931238C1.75415 0.855013 1.8157 0.780124 1.87855 0.706572C2.04024 0.545204 2.04057 0.283256 1.8792 0.121511C1.71783 -0.0402349 1.45582 -0.040541 1.29413 0.120837" fill="#003849"/>
</svg>
