<svg width="1" height="1" viewBox="0 0 1 1" fill="none" xmlns="http://www.w3.org/2000/svg">
<path fill-rule="evenodd" clip-rule="evenodd" d="M0.47004 0.946836L0.845504 0.729115C0.881086 0.705063 0.911355 0.670248 0.933594 0.627847C0.960898 0.590251 0.980048 0.54448 0.98919 0.494937C1.00155 0.444443 1.00327 0.390825 0.994256 0.33924C0.992402 0.287385 0.979553 0.237099 0.956821 0.193665C0.915803 0.105807 0.848963 0.0413627 0.77051 0.013926L0.686497 0C0.631147 -4.34583e-05 0.576539 0.0183008 0.528602 0.053164L0.154251 0.270885C0.118545 0.295067 0.088276 0.329853 0.0660373 0.372153C0.0121702 0.452044 -0.0104391 0.55787 0.00451025 0.66076C0.00623993 0.71261 0.019089 0.762896 0.0418218 0.80633C0.0827163 0.894459 0.149556 0.959004 0.228133 0.986074L0.311157 1C0.366507 1.00023 0.421115 0.981868 0.469052 0.946836" fill="#003849"/>
</svg>
