<svg width="21" height="19" viewBox="0 0 21 19" fill="none" xmlns="http://www.w3.org/2000/svg">
<path fill-rule="evenodd" clip-rule="evenodd" d="M14.0526 4.59389H19.0276V16.4072H1.9684V4.59389H6.94442L7.92912 1.96534H13.077L14.0526 4.59389ZM13.3014 3.83617e-06H7.92807C7.10813 -0.000366395 6.37402 0.508115 6.08611 1.27585L5.58062 2.62551H1.9684C0.88152 2.62607 0.000555347 3.50702 0 4.59389V16.4072C0.000555347 17.494 0.881458 18.3749 1.96833 18.3755H19.0317C20.1185 18.375 20.9994 17.494 21 16.4072V4.59389C20.9978 3.50816 20.1173 2.62908 19.0316 2.62855H15.4225L14.8361 1.06962C14.6002 0.425939 13.987 -0.00147709 13.3014 3.83617e-06ZM10.5 15.4225C13.2179 15.4208 15.4208 13.2179 15.4225 10.5C15.4209 7.7822 13.218 5.57929 10.5001 5.57757C7.78257 5.57976 5.58025 7.78248 5.57858 10.5C5.58018 13.2174 7.78244 15.4202 10.4999 15.4225H10.5ZM10.5 7.54695C12.13 7.54919 13.4509 8.87002 13.4531 10.5C13.4509 12.1299 12.1301 13.4508 10.5001 13.4531C8.87006 13.4509 7.5492 12.1301 7.54698 10.5C7.54913 8.87009 8.86993 7.54923 10.4999 7.54695H10.5Z" fill="#777777"/>
</svg>
