<svg width="35" height="38" viewBox="0 0 35 38" fill="none" xmlns="http://www.w3.org/2000/svg">
<path fill-rule="evenodd" clip-rule="evenodd" d="M30.164 3.05315H17.2413V11.2883H14.1932C14.1932 10.1784 14.1932 9.08769 14.1932 7.99904C14.1932 5.7178 14.2104 3.43545 14.1761 1.15421C14.164 0.326914 14.4434 -0.00402746 15.3081 3.69472e-05C21.4718 0.0252856 27.6356 0.0111217 33.8003 0.0132155C34.8375 0.0132155 35 0.16754 35 1.18056C35 10.7824 35 20.384 35 29.9853C35 31.0064 34.8345 31.1648 33.8175 31.1719C33.5804 31.1719 33.3412 31.1517 33.1112 31.1719C32.3817 31.2414 31.8843 31.0367 31.9711 30.0177C30.2215 31.4604 28.6072 32.7933 26.9908 34.1251C25.7337 35.1613 24.4876 36.2116 23.2083 37.2186C22.8188 37.4399 22.4046 37.6147 21.9743 37.7391L21.9743 36.5688C21.9743 28.0047 21.9699 19.4404 21.9612 10.8755C21.9226 10.291 22.1851 9.72716 22.6574 9.38033C25.1192 7.35231 27.5417 5.27084 30.164 3.05315ZM24.0337 22.9358C24.5503 23.4663 24.9125 24.1465 25.2828 24.1546C26.0093 24.1616 26.0759 23.3656 26.0506 22.8005C26.0264 22.2799 25.9497 21.4828 25.2223 21.6019C24.8227 21.6635 24.5261 22.3525 24.0337 22.9358Z" fill="#084CD1" fill-opacity="0.66"/>
<path fill-rule="evenodd" clip-rule="evenodd" d="M11.8563 12.9883C13.9862 12.9883 15.993 12.9832 18.0028 12.9883C19.5274 12.9883 20.2306 13.6946 20.2367 15.1958C20.2434 16.6473 20.2434 18.0989 20.2367 19.5506C20.3217 20.1501 20.1201 20.755 19.6923 21.1837C19.2645 21.6126 18.6602 21.8155 18.0604 21.7318C16.0243 21.7389 13.9872 21.7318 11.8552 21.7318C11.8552 22.1476 11.8694 22.4663 11.8552 22.7842C11.7866 24.109 11.1439 24.4914 9.99977 23.8325C7.64386 22.4745 5.3071 21.0821 2.96431 19.6959C2.20054 19.2458 1.42667 18.8089 0.687101 18.3216C-0.220956 17.7163 -0.240139 16.9373 0.696184 16.3744C3.81319 14.5023 6.94534 12.6556 10.0926 10.8341C11.0895 10.257 11.7483 10.6414 11.8522 11.7816C11.8835 12.1427 11.8563 12.4979 11.8563 12.9883Z" fill="#084CD1" fill-opacity="0.66"/>
<path fill-rule="evenodd" clip-rule="evenodd" d="M14.1914 23.3879H17.2032V24.7227C17.2032 26.5267 17.1941 28.3297 17.2082 30.1337C17.2143 30.8682 16.9348 31.191 16.1529 31.184C14.1914 31.1669 14.1914 31.1951 14.1914 29.1933C14.1914 27.2784 14.1914 25.3634 14.1914 23.3879Z" fill="#084CD1" fill-opacity="0.66"/>
</svg>
