<svg width="11" height="10" viewBox="0 0 11 10" fill="none" xmlns="http://www.w3.org/2000/svg">
<path fill-rule="evenodd" clip-rule="evenodd" d="M0.0024664 0.357011C0.148292 3.40594 0.485757 6.44262 1.0127 9.44916C1.05882 9.61106 1.20601 9.72329 1.37434 9.7249C3.01227 9.77932 4.64583 9.52573 6.19016 8.97734C7.77038 8.48816 9.31329 7.88584 10.807 7.17507C11.2434 6.97304 10.8625 6.32345 10.4291 6.52853C8.99266 7.20946 7.50919 7.78643 5.9902 8.25503C4.51061 8.78345 2.94457 9.02782 1.37434 8.97532L1.73603 9.25111C1.22148 6.31131 0.892219 3.3421 0.750031 0.361019C0.72882 -0.118834 -0.0207794 -0.121855 0.000431619 0.361034" fill="#003849"/>
</svg>
