<svg width="34" height="51" viewBox="0 0 34 51" fill="none" xmlns="http://www.w3.org/2000/svg">
<path fill-rule="evenodd" clip-rule="evenodd" d="M0.749916 50.752C3.99738 43.2381 7.93037 36.0395 12.4989 29.2473C14.6392 25.9925 16.9063 22.8336 19.128 19.6363C21.2793 16.5418 23.2796 13.3455 25.4037 10.2339C27.6534 6.74598 30.291 3.52417 33.2659 0.630048C33.6203 0.303891 33.0898 -0.223615 32.7374 0.102549C27.2379 5.17626 23.498 11.8808 19.3384 18.0135C17.1418 21.2551 14.8224 24.41 12.649 27.6697C10.394 31.0512 8.22757 34.493 6.21825 38.0275C3.90835 42.0765 1.84201 46.2596 0.0301687 50.5546C-0.155083 50.9967 0.566692 51.1899 0.749916 50.7561" fill="#003849"/>
</svg>
