<svg width="17" height="21" viewBox="0 0 17 21" fill="none" xmlns="http://www.w3.org/2000/svg">
<path fill-rule="evenodd" clip-rule="evenodd" d="M1.62559 20.9796C5.56315 19.7877 8.52954 16.5318 9.35076 12.5006C9.65521 10.9387 9.39034 9.3194 8.60414 7.93587C7.85602 6.57132 6.71155 5.46578 5.32199 4.76519C4.12796 4.13632 2.67323 4.28467 1.63071 5.14158C0.416635 6.17666 -0.517142 8.20997 0.320498 9.72373C1.18373 11.2845 3.28664 11.6609 4.90879 11.6108C7.04135 11.5506 9.06353 10.6494 10.5342 9.10391C11.7073 7.82848 12.1246 6.07848 12.6729 4.48292C12.927 3.62753 13.318 2.81894 13.8306 2.08854C14.3981 1.30223 15.2581 0.777336 16.2168 0.632085C16.3914 0.632085 16.5329 0.49058 16.5329 0.316035C16.5329 0.14149 16.3914 -1.56067e-05 16.2168 0C14.9356 0.169207 13.798 0.904718 13.1178 2.00364C12.4477 3.17605 11.935 4.43159 11.5927 5.73788C11.2124 7.14752 10.4183 8.41082 9.31299 9.36471C7.62254 10.6986 5.44291 11.2472 3.32241 10.8723C1.67266 10.5655 0.188591 9.41688 0.78077 7.58404C1.24204 6.16132 2.45511 4.78669 4.07315 5.02704C5.41694 5.34217 6.59831 6.13958 7.39318 7.26799C8.31685 8.35586 8.83068 9.7327 8.84554 11.1597C8.80665 15.3951 5.39666 19.1744 1.46297 20.3721C1.07536 20.4897 1.24104 21.1003 1.63177 20.9858" fill="#003849"/>
</svg>
