<svg width="56" height="52" viewBox="0 0 56 52" fill="none" xmlns="http://www.w3.org/2000/svg">
<path fill-rule="evenodd" clip-rule="evenodd" d="M27.9523 51.926C22.0791 51.9774 16.2233 51.4442 10.5441 50.3411C7.98756 49.8856 5.55135 49.1214 3.33431 48.0798C2.4542 47.6165 1.64837 47.0814 0.932186 46.4845C0.259498 45.9074 -0.0715566 45.1562 0.0129702 44.3984C0.18523 37.6494 6.58501 31.8556 15.5269 30.3534C16.2428 30.1858 17.0244 30.2818 17.6278 30.6112C20.4453 32.0301 23.7788 32.7904 27.1927 32.7926C30.0635 32.9256 32.937 32.5653 35.5859 31.74C36.7468 31.3418 37.8235 30.8109 38.9475 30.3535C39.138 30.2676 39.3599 30.2271 39.583 30.2376C47.4827 31.273 53.7612 35.7032 55.4996 41.4683C55.7306 42.4001 55.893 43.3404 55.9863 44.2851C56.093 45.2865 55.572 46.269 54.5717 46.9524C53.0781 48.0131 51.3005 48.8332 49.3526 49.3606C46.1563 50.298 42.8187 50.9499 39.4114 51.3024C35.6214 51.7404 31.7889 51.949 27.9524 51.9261L27.9523 51.926Z" fill="#E9AE24"/>
<path fill-rule="evenodd" clip-rule="evenodd" d="M9.25798 8.00001C9.23351 8.33502 9.21416 8.55664 9.66586 8.72158C9.99809 8.84822 10.2152 9.09434 10.2371 9.36929C10.259 9.64421 10.0825 9.9073 9.77262 10.0617C9.55281 10.1512 9.43301 10.3327 9.47319 10.5152C9.73928 13.1168 9.96347 15.7222 10.2716 18.3211C10.2929 19.4453 9.98164 20.5594 9.35939 21.5862C9.32263 21.6649 9.18435 21.7151 9.0933 21.7821C9.01626 21.7216 8.89892 21.6713 8.86569 21.6005C8.22282 20.5136 7.91944 19.3344 7.97811 18.1497C8.29495 15.8781 8.43675 13.5922 8.65208 11.3128C8.6696 11.126 8.70465 10.9404 8.7256 10.7536C8.83246 10.466 8.68435 10.16 8.35458 9.98691C8.08059 9.81912 7.94338 9.55918 7.99178 9.29921C8.04019 9.03925 8.26727 8.81602 8.59266 8.70868C9.04949 8.55924 8.97426 8.28992 8.99521 8.06444C8.99521 7.97166 8.70455 7.84152 8.51722 7.76936C8.09875 7.607 7.64182 7.49878 7.23916 7.31581C6.57032 7.00656 6.56509 6.54269 7.24964 6.25276C7.87413 6.00503 8.51711 5.78346 9.17548 5.58917C14.596 3.8591 20.0182 2.13161 25.4422 0.406716C27.0546 -0.132852 28.9043 -0.135664 30.5196 0.398969C36.4245 2.27766 42.3282 4.15719 48.2307 6.03758C48.6998 6.18705 49.2461 6.34426 49.2393 6.78751C49.2324 7.23076 48.6896 7.37895 48.2185 7.52969C46.3241 8.1353 44.4316 8.74221 42.5301 9.33364C42.2343 9.39389 42.0431 9.60428 42.08 9.82844C42.1029 11.0525 42.0469 12.2767 42.1117 13.5007C42.2021 13.9925 42.3525 14.4773 42.5615 14.9491C43.5474 18.2214 42.6896 21.648 40.1839 24.4468C38.4115 26.7384 35.6233 28.5125 32.286 29.4721C28.1022 30.6774 23.3547 30.0689 19.9709 27.8936C16.1949 25.7183 13.7406 22.5327 13.1427 19.0311C12.8208 17.3674 13.0313 15.6713 13.7572 14.078C13.8505 13.866 13.9001 13.645 13.9043 13.4222C13.9183 12.2225 13.9043 11.0229 13.9183 9.82329C13.9635 9.61226 13.7889 9.40932 13.5104 9.34912C12.1187 8.92132 10.7286 8.46646 9.25798 8.00001Z" fill="#E9AE24"/>
</svg>
