<svg width="24" height="24" viewBox="0 0 24 24" fill="none" xmlns="http://www.w3.org/2000/svg">
<path d="M10 17.9999C11.775 17.9996 13.4988 17.4054 14.897 16.3119L19.293 20.7079L20.707 19.2939L16.311 14.8979C17.405 13.4996 17.9996 11.7754 18 9.99994C18 5.58894 14.411 1.99994 10 1.99994C5.589 1.99994 2 5.58894 2 9.99994C2 14.4109 5.589 17.9999 10 17.9999ZM10 3.99994C13.309 3.99994 16 6.69094 16 9.99994C16 13.3089 13.309 15.9999 10 15.9999C6.691 15.9999 4 13.3089 4 9.99994C4 6.69094 6.691 3.99994 10 3.99994Z" fill="#2F80ED"/>
</svg>
