<svg width="40" height="40" viewBox="0 0 40 40" fill="none" xmlns="http://www.w3.org/2000/svg">
<path fill-rule="evenodd" clip-rule="evenodd" d="M23.5156 0V5.93708H21.1724C19.878 5.93708 18.8286 6.98639 18.8286 8.2808C18.8286 9.57521 19.878 10.6246 21.1724 10.6246H23.5156V16.4837H30.5463V12.9688C30.5476 12.3226 31.0718 11.7995 31.718 11.7995C32.3641 11.7995 32.8883 12.3226 32.8896 12.9688V16.4846H39.9992V0H23.5156Z" fill="#084CD1" fill-opacity="0.66"/>
<path fill-rule="evenodd" clip-rule="evenodd" d="M5.31227 24.687C5.31228 25.9814 6.3616 27.0307 7.65601 27.0307C8.95043 27.0307 9.99975 25.9814 9.99975 24.687V22.3438H15.312V16.4846H12.9688C12.3217 16.4846 11.7972 15.9601 11.7972 15.313C11.7972 14.666 12.3217 14.1414 12.9688 14.1414H15.312V7.10969H0V22.3438H5.31227V24.687Z" fill="#084CD1" fill-opacity="0.66"/>
<path fill-rule="evenodd" clip-rule="evenodd" d="M27.6557 24.687V22.3438C27.6557 21.0493 26.6063 20 25.3119 20C24.0175 20 22.9682 21.0493 22.9682 22.3438V24.687H17.6559V27.656C20.2428 27.6588 22.3385 29.7567 22.3384 32.3436C22.3384 34.9305 20.2427 37.0283 17.6558 37.031L17.6559 40H32.89V24.687H27.6557Z" fill="#084CD1" fill-opacity="0.66"/>
<path fill-rule="evenodd" clip-rule="evenodd" d="M17.6563 34.6868C18.9507 34.6868 20 33.6374 20 32.343C20 31.0486 18.9507 29.9993 17.6563 29.9993L15.312 29.9993V24.687H12.343C12.343 27.2758 10.2443 29.3745 7.65551 29.3745C5.06668 29.3745 2.96803 27.2758 2.96803 24.687H0V39.999H15.312V34.6868H17.6563Z" fill="#084CD1" fill-opacity="0.66"/>
</svg>
