<svg width="17" height="26" viewBox="0 0 17 26" fill="none" xmlns="http://www.w3.org/2000/svg">
<path fill-rule="evenodd" clip-rule="evenodd" d="M0.853251 0.213379C0.0862045 2.54705 -0.433314 5.41137 0.503231 7.76938C1.39407 10.0127 3.60294 10.725 5.82394 10.8732C6.73312 10.8442 7.64124 10.9568 8.51579 11.207C9.45841 11.5885 9.4716 12.5909 9.31839 13.4676C9.02614 15.1448 8.08762 16.5328 7.53057 18.1136C7.00864 19.6549 7.25765 21.353 8.20027 22.6795C10.0844 25.5945 13.6499 25.4028 16.7009 25.7498C17.1017 25.7954 17.0976 25.1674 16.7009 25.1227C14.0131 24.8183 10.6607 25.0547 8.88817 22.5811C8.32691 21.8416 7.97249 20.9661 7.86133 20.0445C7.8339 19.2336 8.00823 18.4285 8.36871 17.7017C9.08968 16.3526 9.62518 14.9123 9.96065 13.4199C10.1702 12.6083 9.98932 11.7454 9.4716 11.0862C8.90576 10.6188 8.19649 10.3602 7.46264 10.3537C5.47188 10.1436 3.13724 10.3435 1.71573 8.62878C-0.0862664 6.45137 0.662511 2.81491 1.46306 0.383841C1.58989 -0.000708308 0.984168 -0.165078 0.854304 0.217439" fill="#003849"/>
</svg>
