<svg width="28" height="18" viewBox="0 0 28 18" fill="none" xmlns="http://www.w3.org/2000/svg">
<path fill-rule="evenodd" clip-rule="evenodd" d="M18.6819 0.248646C18.2961 -0.088459 17.6903 -0.0819745 17.3131 0.263266C16.9358 0.608538 16.9231 1.16801 17.2844 1.52757L24.3739 8.07653H0.976544C0.437246 8.07653 3.31122e-05 8.48041 3.31122e-05 8.97859C-0.00417213 9.48084 0.432875 9.89129 0.976544 9.89569H24.3739L17.2844 16.4356C16.9061 16.7954 16.9061 17.3678 17.2844 17.7276C17.4682 17.9018 17.7204 18 17.9837 18C18.247 18 18.4992 17.9018 18.683 17.7276L27.451 9.62606C27.6388 9.45857 27.7448 9.22775 27.7448 8.9866C27.7448 8.74548 27.6388 8.51467 27.451 8.34714L18.6819 0.248646Z" fill="white"/>
</svg>
