<svg width="16" height="16" viewBox="0 0 16 16" fill="none" xmlns="http://www.w3.org/2000/svg">
<path d="M4.34394 9.54965L3.3506 13.851C3.31984 13.9812 3.32908 14.1177 3.3771 14.2426C3.42512 14.3676 3.5097 14.4751 3.61978 14.5512C3.72987 14.6273 3.86034 14.6684 3.99417 14.6692C4.128 14.67 4.25895 14.6304 4.36994 14.5557L7.99994 12.1357L11.6299 14.5557C11.7435 14.6311 11.8774 14.6699 12.0137 14.6669C12.15 14.6639 12.2821 14.6192 12.3922 14.5389C12.5023 14.4586 12.5853 14.3465 12.6298 14.2177C12.6743 14.0889 12.6783 13.9495 12.6413 13.8183L11.4219 9.55165L14.4459 6.83032C14.5428 6.74311 14.612 6.62943 14.6449 6.50333C14.6778 6.37723 14.6731 6.24424 14.6312 6.12082C14.5893 5.99739 14.5122 5.88894 14.4094 5.80887C14.3066 5.72881 14.1825 5.68064 14.0526 5.67032L10.2519 5.36766L8.60727 1.72699C8.55483 1.60976 8.46958 1.51021 8.36181 1.44036C8.25404 1.37051 8.12836 1.33334 7.99994 1.33334C7.87151 1.33334 7.74583 1.37051 7.63806 1.44036C7.53029 1.51021 7.44504 1.60976 7.3926 1.72699L5.74794 5.36766L1.94727 5.66966C1.81957 5.67977 1.69749 5.72646 1.59564 5.80414C1.49378 5.88182 1.41646 5.9872 1.37293 6.10767C1.3294 6.22815 1.32149 6.35861 1.35017 6.48346C1.37884 6.6083 1.44287 6.72225 1.5346 6.81165L4.34394 9.54965ZM6.24594 6.66566C6.36493 6.65628 6.47922 6.61507 6.5768 6.54633C6.67439 6.4776 6.7517 6.38387 6.8006 6.27499L7.99994 3.62099L9.19927 6.27499C9.24818 6.38387 9.32548 6.4776 9.42307 6.54633C9.52066 6.61507 9.63494 6.65628 9.75394 6.66566L12.4019 6.87565L10.2213 8.83832C10.0319 9.00899 9.9566 9.27166 10.0259 9.51699L10.8613 12.4403L8.3706 10.7797C8.26128 10.7063 8.1326 10.6671 8.00094 10.6671C7.86927 10.6671 7.74059 10.7063 7.63127 10.7797L5.0286 12.515L5.7286 9.48432C5.75427 9.37286 5.75082 9.25666 5.7186 9.14691C5.68638 9.03716 5.62646 8.93755 5.5446 8.85765L3.51927 6.88299L6.24594 6.66566Z" fill="#2F80ED"/>
</svg>
