<svg width="162" height="171" viewBox="0 0 162 171" fill="none" xmlns="http://www.w3.org/2000/svg">
<path fill-rule="evenodd" clip-rule="evenodd" d="M159.029 167.651H2.97139C2.9628 150.078 9.94774 133.193 22.3893 120.742C34.8308 108.29 51.7096 101.291 69.3118 101.286H92.6668C129.316 101.288 159.027 130.996 159.032 167.645L159.029 167.651Z" fill="#11AFFF"/>
<path fill-rule="evenodd" clip-rule="evenodd" d="M65.686 101.389C30.5056 103.325 2.97131 132.417 2.9714 167.65H128.401C128.401 132.418 100.868 103.327 65.6887 101.389L65.686 101.389Z" fill="#36CEF4"/>
<path fill-rule="evenodd" clip-rule="evenodd" d="M80.9995 109.93L69.214 122.331L80.9995 134.468L92.783 122.331L80.9995 109.93Z" fill="#FCCA03"/>
<path fill-rule="evenodd" clip-rule="evenodd" d="M40.5723 107.826L64.3615 126.09L79.66 114.205L65.6229 101.391C56.93 101.863 48.4163 104.05 40.5723 107.826H40.5723Z" fill="#E0EFF4"/>
<path fill-rule="evenodd" clip-rule="evenodd" d="M121.427 107.826L97.6375 126.09L82.339 114.205L96.376 101.391C105.069 101.863 113.583 104.05 121.427 107.826H121.427Z" fill="#C2DBE5"/>
<path fill-rule="evenodd" clip-rule="evenodd" d="M107.029 118.875C101.933 114.167 96.1283 110.288 89.8286 107.381L82.341 114.215L97.6395 126.102L107.029 118.875Z" fill="#E0EFF4"/>
<path fill-rule="evenodd" clip-rule="evenodd" d="M92.7849 122.331L82.332 114.208L80.9995 111.624V134.468L92.7849 122.331Z" fill="#FCAD02"/>
<path fill-rule="evenodd" clip-rule="evenodd" d="M67.6963 20.7958H94.3037C106.63 20.7958 116.622 30.7881 116.622 43.1142V78.5867C116.622 98.2603 100.674 114.209 81 114.209C61.3264 114.209 45.3778 98.2603 45.3778 78.5867V43.1142C45.3778 30.7881 55.3701 20.7958 67.6963 20.7958Z" fill="#FFC65C"/>
<path fill-rule="evenodd" clip-rule="evenodd" d="M45.3778 43.1142V78.5867C45.3893 95.1803 56.8482 109.562 73.0117 113.277C89.1693 109.552 100.618 95.1682 100.623 78.5867V43.1142C100.623 30.79 90.6336 20.7985 78.3094 20.7958H67.6973C61.7779 20.7955 56.1008 23.1468 51.9151 27.3324C47.7293 31.5179 45.3778 37.1948 45.3778 43.1143V43.1142Z" fill="#FFD89E"/>
<path fill-rule="evenodd" clip-rule="evenodd" d="M37.3046 143.118V167.646H31.3578V143.118C31.3875 141.499 32.7089 140.202 34.3287 140.202C35.9485 140.202 37.2699 141.499 37.2996 143.118H37.3046Z" fill="#11AFFF"/>
<path fill-rule="evenodd" clip-rule="evenodd" d="M91.7257 167.65H70.2732L81.0035 134.468L91.7257 167.65Z" fill="#FCAD02"/>
<path fill-rule="evenodd" clip-rule="evenodd" d="M69.6365 59.0064H56.8609C55.2414 59.0361 53.944 60.3575 53.944 61.9773C53.944 63.5971 55.2414 64.9185 56.8609 64.9482H62.178C62.7133 67.2813 64.8841 68.8648 67.2693 68.6618C69.6544 68.4588 71.5265 66.5313 71.6598 64.1413C72.5555 63.3118 72.8506 62.0178 72.4032 60.8819C71.9557 59.7461 70.8573 59.0011 69.6365 59.0054V59.0064Z" fill="#292929"/>
<path fill-rule="evenodd" clip-rule="evenodd" d="M105.138 59.0074H92.3625C91.1423 59.0032 90.0443 59.7475 89.5965 60.8826C89.1487 62.0177 89.4427 63.3112 90.3372 64.1413C90.4705 66.5313 92.3425 68.4588 94.7277 68.6618C97.1128 68.8648 99.2837 67.2813 99.819 64.9482H105.136C106.21 64.9679 107.212 64.406 107.755 63.4787C108.298 62.5514 108.298 61.4032 107.755 60.4759C107.212 59.5486 106.21 58.9867 105.136 59.0064L105.138 59.0074Z" fill="#292929"/>
<path fill-rule="evenodd" clip-rule="evenodd" d="M32.4611 55.4293H45.3758V82.1718H32.4611V55.4293Z" fill="#292929"/>
<path fill-rule="evenodd" clip-rule="evenodd" d="M91.7257 11.5932C30.2115 3.27275 45.3818 61.9768 45.3818 61.9768C55.4633 47.3901 63.909 53.2218 83.6185 42.7638C87.4277 40.8687 90.5108 37.7772 92.3955 33.9628C92.9247 35.4841 93.5548 36.9684 94.2817 38.4059C101.39 52.3498 116.626 56.4154 116.626 56.4154C121.741 13.6035 91.7307 11.5932 91.7307 11.5932H91.7257Z" fill="#CB6F2C"/>
<path fill-rule="evenodd" clip-rule="evenodd" d="M19.5924 68.8005C19.5924 78.0895 27.1226 85.6198 36.4116 85.6198V51.9813C31.9499 51.9784 27.6702 53.7495 24.5154 56.9044C21.3605 60.0592 19.5894 64.3389 19.5924 68.8005H19.5924Z" fill="#FF6100"/>
<path fill-rule="evenodd" clip-rule="evenodd" d="M129.536 82.1718H116.621V55.4293H129.536V82.1718Z" fill="#292929"/>
<path fill-rule="evenodd" clip-rule="evenodd" d="M142.408 68.8015C142.408 59.5126 134.877 51.9823 125.588 51.9823V85.6207C130.05 85.6237 134.33 83.8526 137.485 80.6977C140.639 77.5429 142.411 73.2632 142.408 68.8015Z" fill="#EF3F00"/>
<path fill-rule="evenodd" clip-rule="evenodd" d="M80.9995 99.1972C79.416 99.1931 78.1141 97.9479 78.0393 96.3662C77.9645 94.7845 79.1432 93.4221 80.7192 93.2685L117.39 89.7525V82.1728C117.42 80.5533 118.741 79.256 120.361 79.256C121.981 79.256 123.302 80.5533 123.332 82.1728V92.4525C123.332 93.9829 122.169 95.2632 120.645 95.4099L81.2838 99.1842C81.1837 99.1922 81.0916 99.1972 80.9995 99.1972Z" fill="#292929"/>
<circle cx="80.9995" cy="96.2269" r="5.86269" fill="#FF6100"/>
<path fill-rule="evenodd" clip-rule="evenodd" d="M80.4669 167.65L81.0035 134.468L70.2732 167.65H80.4669Z" fill="#FCCA03"/>
<path fill-rule="evenodd" clip-rule="evenodd" d="M91.7267 11.5933C72.667 9.01432 60.9726 12.8737 53.9055 19.4232C89.6283 15.5047 92.3915 33.9628 92.3915 33.9628C92.9207 35.4841 93.5508 36.9684 94.2776 38.4059C101.386 52.3498 116.622 56.4154 116.622 56.4154C121.742 13.6036 91.7267 11.5933 91.7267 11.5933Z" fill="#AF5819"/>
<path fill-rule="evenodd" clip-rule="evenodd" d="M143.816 120.793C143.103 119.993 142.015 119.638 140.967 119.865C139.92 120.092 139.076 120.866 138.759 121.89C138.442 122.914 138.701 124.029 139.436 124.808L139.829 125.24C140.533 126.052 141.621 126.419 142.674 126.202C143.726 125.985 144.579 125.216 144.904 124.192C145.23 123.167 144.977 122.047 144.243 121.262L143.816 120.793Z" fill="#3A3A3A"/>
<path fill-rule="evenodd" clip-rule="evenodd" d="M151.263 130.525C150.704 129.606 149.693 129.06 148.618 129.098C147.543 129.136 146.573 129.752 146.081 130.708C145.589 131.665 145.652 132.812 146.246 133.709C152.668 143.838 156.071 155.587 156.057 167.58V167.655C156.059 168.439 156.374 169.19 156.932 169.741C157.49 170.292 158.245 170.597 159.029 170.589C160.677 170.571 162.003 169.229 162 167.58C162.015 154.461 158.291 141.608 151.264 130.527L151.263 130.525Z" fill="#3A3A3A"/>
<path fill-rule="evenodd" clip-rule="evenodd" d="M127.661 140.147C126.02 140.147 124.689 141.477 124.689 143.118V167.646C124.67 168.721 125.231 169.722 126.159 170.265C127.086 170.808 128.234 170.808 129.162 170.265C130.089 169.722 130.651 168.721 130.631 167.646V143.116C130.63 141.477 129.301 140.148 127.661 140.147H127.661Z" fill="#3A3A3A"/>
<path fill-rule="evenodd" clip-rule="evenodd" d="M34.3342 140.147C32.6932 140.147 31.3628 141.477 31.3628 143.118V167.646C31.3431 168.721 31.905 169.722 32.8323 170.265C33.7596 170.808 34.9078 170.808 35.8351 170.265C36.7624 169.722 37.3243 168.721 37.3046 167.646V143.116C37.3035 141.476 35.974 140.148 34.3342 140.147H34.3342Z" fill="#3A3A3A"/>
<path fill-rule="evenodd" clip-rule="evenodd" d="M72.6069 61.9778C72.6069 60.3367 71.2765 59.0064 69.6355 59.0064H56.8609C55.2414 59.0361 53.944 60.3575 53.944 61.9773C53.944 63.5971 55.2414 64.9185 56.8609 64.9482H62.178C62.7133 67.2813 64.8841 68.8648 67.2693 68.6618C69.6544 68.4588 71.5265 66.5313 71.6598 64.1413C72.2628 63.5829 72.606 62.7986 72.6069 61.9768V61.9778Z" fill="#3A3A3A"/>
<path fill-rule="evenodd" clip-rule="evenodd" d="M90.3371 64.1403C90.4705 66.5303 92.3425 68.4578 94.7277 68.6608C97.1128 68.8638 99.2837 67.2803 99.819 64.9472H105.136C106.756 64.9175 108.053 63.5961 108.053 61.9763C108.053 60.3565 106.756 59.0351 105.136 59.0054H92.3624C91.1413 59.0003 90.0421 59.745 89.5941 60.881C89.1462 62.017 89.4412 63.3115 90.3371 64.1413V64.1403Z" fill="#3A3A3A"/>
<path fill-rule="evenodd" clip-rule="evenodd" d="M59.2516 12.1749C59.0004 12.3 58.7511 12.4282 58.5078 12.5583C57.552 13.0454 56.933 14.0099 56.8881 15.0817C56.8433 16.1535 57.3797 17.1663 58.2916 17.7314C59.2034 18.2965 60.349 18.3263 61.289 17.8093L61.9107 17.49C63.3787 16.7562 63.9739 14.9714 63.2402 13.5034C62.5065 12.0354 60.7216 11.4402 59.2536 12.1739L59.2516 12.1749Z" fill="#3A3A3A"/>
<path fill-rule="evenodd" clip-rule="evenodd" d="M125.59 49.014C123.949 49.014 122.619 50.3443 122.619 51.9854L122.619 52.4589H119.971C120.972 38.3678 118.197 27.2571 111.686 19.4101C106.747 13.4473 99.7183 9.5943 92.0351 8.63787C84.3524 7.43685 76.5229 7.52923 68.8706 8.91118C67.2812 9.25927 66.2673 10.821 66.5963 12.4145C66.9252 14.008 68.4746 15.0406 70.072 14.7308C77.0953 13.4791 84.2786 13.4115 91.3243 14.5306C91.3924 14.5306 91.4584 14.5456 91.5245 14.5506C97.625 15.3615 103.193 18.4497 107.111 23.1955C112.659 29.8821 114.983 39.6643 114.04 52.3077C106.754 49.3331 100.711 43.9465 96.9207 37.0493C96.2542 35.731 95.6763 34.3697 95.1907 32.9746C94.7915 31.842 93.7499 31.061 92.5508 30.9953C91.3517 30.9296 90.2309 31.5921 89.7104 32.6743C88.0911 35.9126 85.4609 38.5351 82.2179 40.1449C76.3877 43.2079 70.185 45.5019 63.7649 46.9696C57.5457 48.5775 52.3518 49.919 47.1809 55.0999C46.2017 47.1208 45.9335 33.0798 53.9125 23.692C54.9431 22.4385 54.7782 20.5903 53.5422 19.5389C52.3061 18.4875 50.4553 18.6214 49.3834 19.8397C41.0068 29.7039 40.2259 43.2384 40.9287 52.4529H39.3789V40.1939C39.3789 21.3063 58.0543 5.94178 80.9995 5.94178C103.945 5.94178 122.62 21.3043 122.62 40.1939C122.6 41.2683 123.162 42.2697 124.089 42.8126C125.017 43.3556 126.165 43.3556 127.092 42.8127C128.02 42.2697 128.582 41.2683 128.562 40.1939C128.562 18.0316 107.224 0 80.9995 0C54.7746 0 33.4372 18.0296 33.4372 40.1939V82.327C28.4968 81.2404 24.5422 77.5463 23.1219 72.6913C21.7016 67.8364 23.0417 62.5934 26.6174 59.0154C27.7785 57.8542 27.7785 55.9717 26.6174 54.8106C25.4563 53.6495 23.5737 53.6495 22.4126 54.8106C16.7489 60.4694 15.0533 68.9834 18.1169 76.3803C21.1804 83.7772 28.3994 88.599 36.4056 88.5962C38.0466 88.5962 39.377 87.2658 39.377 85.6247V85.1412H42.9681C43.9624 90.9148 46.2651 96.3842 49.6997 101.13C20.2985 109.949 0.120957 136.955 0 167.65C0.00181787 168.434 0.316676 169.185 0.874618 169.736C1.43256 170.287 2.18737 170.592 2.97136 170.584C4.61759 170.566 5.94288 169.227 5.94278 167.58C6.072 138.535 25.8341 113.257 53.9891 106.122C59.0462 111.091 65.3752 114.569 72.2805 116.175L64.3625 122.341L52.6371 113.337C51.7967 112.67 50.6614 112.507 49.6674 112.912C48.6733 113.317 47.975 114.227 47.8406 115.292C47.7062 116.357 48.1567 117.412 49.019 118.051L62.5634 128.448C63.6353 129.27 65.1273 129.266 66.1946 128.438L68.9367 126.308L77.6276 135.258L67.451 166.738C66.9465 168.3 67.803 169.974 69.3642 170.479C70.9254 170.983 72.5999 170.127 73.1045 168.565L81.0025 144.129L88.9005 168.564C89.405 170.126 91.0796 170.982 92.6408 170.478C94.2019 169.973 95.0585 168.299 94.554 166.737L84.3763 135.255L93.0673 126.305L95.8094 128.433C96.8767 129.261 98.3687 129.265 99.4405 128.443L121.746 111.323C125.423 113.21 128.907 115.454 132.147 118.021C133.43 119.044 135.3 118.832 136.323 117.549C137.346 116.265 137.135 114.395 135.851 113.372C128.854 107.822 120.853 103.672 112.286 101.148C113.483 99.4917 114.547 97.7426 115.468 95.9175L120.629 95.4169C122.153 95.2705 123.316 93.9904 123.316 92.4596L123.316 87.5159C123.874 88.1938 124.706 88.5876 125.584 88.5901C136.513 88.5901 145.373 79.7305 145.373 68.8015C145.373 57.8726 136.513 49.0129 125.584 49.0129L125.59 49.014ZM122.619 79.1984H119.577C119.577 78.9932 119.592 78.789 119.592 78.5837V58.4007H122.619V79.1984ZM39.38 79.1984V58.4007H41.6375C41.9479 60.3179 42.2542 61.6924 42.4064 62.3362V78.5867C42.4064 78.794 42.4184 78.9962 42.4214 79.2014L39.38 79.1984ZM81.0025 130.204L73.6581 122.64L80.6991 117.174H81.3098L88.3509 122.64L81.0025 130.204ZM97.6405 122.337L89.7084 116.178C96.6115 114.574 102.939 111.099 107.996 106.134C110.583 106.776 113.127 107.582 115.611 108.547L97.6405 122.337ZM81.0025 111.238C62.977 111.219 48.3686 96.6122 48.3482 78.5867V62.9369C53.5301 55.7777 58.0052 54.6023 65.2565 52.7252C72.1269 51.1351 78.7647 48.6695 85.0071 45.3888C87.5761 44.0568 89.885 42.2741 91.8238 40.1258C97.9098 51.715 108.955 56.8299 113.649 58.5569V78.5897C113.643 82.6037 112.891 86.5834 111.432 90.3245L88.9646 92.4756C87.1412 88.588 82.785 86.5763 78.6431 87.709C74.5013 88.8417 71.7752 92.7903 72.184 97.0648C72.5928 101.339 76.0178 104.7 80.2993 105.027C84.5808 105.354 88.4767 102.553 89.5302 98.3903L108.206 96.5993C102.167 105.733 91.9516 111.23 81.0025 111.238ZM128.565 82.327V55.2761C134.914 56.6739 139.436 62.2999 139.436 68.801C139.436 75.3022 134.914 80.9282 128.565 82.326L128.565 82.327Z" fill="#3A3A3A"/>
</svg>
